<svg width="80" height="80" viewBox="0 0 80 80" fill="none" xmlns="http://www.w3.org/2000/svg">
<path d="M61.25 0H18.75C8.39466 0 0 8.39466 0 18.75V61.25C0 71.6053 8.39466 80 18.75 80H61.25C71.6053 80 80 71.6053 80 61.25V18.75C80 8.39466 71.6053 0 61.25 0Z" fill="#0277BD"/>
<path d="M16.7978 32.0784L17.6922 42.0603H40.03V32.0784H16.7978ZM40.0297 11.875H15L15.9075 21.8569H40.0297V11.875ZM40.0297 68.3878V58.0025L39.9859 58.0141L28.8691 55.0125L28.1584 47.0512H18.1381L19.5366 62.7244L39.9837 68.4006L40.0297 68.3878Z" fill="#EBEBEB"/>
<path d="M52.2869 42.0603L51.1282 55.0059L39.9954 58.0109V68.3956L60.4588 62.7244L60.6088 61.0378L62.9544 34.7591L63.1979 32.0784L65 11.875H39.9954V21.8569H54.0607L53.1525 32.0784H39.9954V42.0603H52.2869Z" fill="white"/>
</svg>
