<svg width="80" height="80" viewBox="0 0 80 80" fill="none" xmlns="http://www.w3.org/2000/svg">
<path d="M61.25 0H18.75C8.39466 0 0 8.39466 0 18.75V61.25C0 71.6053 8.39466 80 18.75 80H61.25C71.6053 80 80 71.6053 80 61.25V18.75C80 8.39466 71.6053 0 61.25 0Z" fill="#242938"/>
<mask id="mask0_37_222" style="mask-type:luminance" maskUnits="userSpaceOnUse" x="19" y="8" width="42" height="64">
<path d="M19.0625 8.75H60.7375V71.25H19.0625V8.75Z" fill="white"/>
</mask>
<g mask="url(#mask0_37_222)">
<path d="M29.4835 71.2499C35.2335 71.2499 39.9001 66.5834 39.9001 60.8334V50.4165H29.4835C23.7335 50.4165 19.0667 55.0834 19.0667 60.8334C19.0667 66.5834 23.7335 71.2499 29.4835 71.2499Z" fill="#0ACF83"/>
<path d="M19.0667 40.0001C19.0667 34.2501 23.7335 29.5835 29.4835 29.5835H39.9001V50.4166H29.4835C23.7335 50.4166 19.0667 45.7501 19.0667 40.0001Z" fill="#A259FF"/>
<path d="M19.0667 19.1666C19.0667 13.4166 23.7335 8.75 29.4835 8.75H39.9001V29.5834H29.4835C23.7335 29.5834 19.0667 24.9166 19.0667 19.1666Z" fill="#F24E1E"/>
<path d="M39.9001 8.75H50.3167C56.0667 8.75 60.7336 13.4166 60.7336 19.1666C60.7336 24.9166 56.0667 29.5834 50.3167 29.5834H39.9001V8.75Z" fill="#FF7262"/>
<path d="M60.7336 40.0001C60.7336 45.7501 56.0667 50.4166 50.3167 50.4166C44.5667 50.4166 39.9001 45.7501 39.9001 40.0001C39.9001 34.2501 44.5667 29.5835 50.3167 29.5835C56.0667 29.5835 60.7336 34.2501 60.7336 40.0001Z" fill="#1ABCFE"/>
</g>
</svg>
