<svg width="80" height="80" viewBox="0 0 80 80" fill="none" xmlns="http://www.w3.org/2000/svg">
<path d="M61.25 0H18.75C8.39466 0 0 8.39466 0 18.75V61.25C0 71.6053 8.39466 80 18.75 80H61.25C71.6053 80 80 71.6053 80 61.25V18.75C80 8.39466 71.6053 0 61.25 0Z" fill="#F03C2E"/>
<mask id="mask0_37_209" style="mask-type:luminance" maskUnits="userSpaceOnUse" x="8" y="8" width="64" height="64">
<path d="M8.75 8.75H71.25V71.25H8.75V8.75Z" fill="white"/>
</mask>
<g mask="url(#mask0_37_209)">
<path d="M70.0704 37.217L42.7832 9.92978C42.2206 9.36656 41.5035 8.98297 40.7228 8.82759C39.942 8.67222 39.1327 8.75205 38.3973 9.05697C37.9092 9.25953 37.4657 9.55609 37.092 9.92978L31.4279 15.5938L38.6154 22.7813C40.2873 22.1954 42.2014 22.5957 43.5332 23.9279C44.1674 24.5631 44.61 25.3638 44.8107 26.2386C45.0113 27.1134 44.9619 28.0271 44.6679 28.8751L51.5957 35.8029C53.2717 35.2248 55.2051 35.5976 56.5429 36.9395C57.2131 37.6093 57.6695 38.4629 57.8542 39.3923C58.039 40.3216 57.9438 41.2849 57.5807 42.1601C57.0941 43.3335 56.1614 44.2657 54.9877 44.7516C53.814 45.2376 52.4954 45.2376 51.3217 44.7517C50.7404 44.5107 50.2123 44.1579 49.7676 43.7129C48.3614 42.3067 48.0139 40.2363 48.7248 38.5038L42.2639 32.0429V49.0451C42.7329 49.2771 43.1615 49.5831 43.5332 49.9513C44.4314 50.8496 44.9361 52.0678 44.9361 53.3381C44.9361 54.6083 44.4314 55.8266 43.5332 56.7248C42.635 57.623 41.4168 58.1276 40.1465 58.1276C38.8762 58.1276 37.658 57.623 36.7598 56.7248C36.0895 56.0552 35.6329 55.2018 35.4479 54.2725C35.2628 53.3433 35.3577 52.3801 35.7204 51.5048C35.9613 50.9236 36.3145 50.3957 36.7598 49.9513C37.2226 49.4904 37.7364 49.1407 38.3282 48.9063V31.746C37.7409 31.506 37.2076 31.1508 36.7598 30.7013C36.0873 30.0296 35.6301 29.1728 35.4465 28.2402C35.2628 27.3075 35.361 26.3414 35.7285 25.4648L28.6389 18.3795L9.92792 37.0707C9.36464 37.6336 8.98099 38.3509 8.82551 39.1319C8.67003 39.9129 8.74972 40.7225 9.05448 41.4582C9.25716 41.9466 9.55394 42.3903 9.92792 42.7642L37.217 70.0492C37.5907 70.4228 38.0342 70.7194 38.5223 70.922C39.5087 71.3298 40.6165 71.3298 41.6029 70.922C42.091 70.7194 42.5345 70.4228 42.9082 70.0492L70.0704 42.9301C70.4444 42.5564 70.7411 42.1126 70.9436 41.6242C71.1461 41.1358 71.2503 40.6123 71.2504 40.0835C71.2504 39.5548 71.1461 39.0312 70.9437 38.5427C70.7412 38.0542 70.4445 37.6104 70.0704 37.2367" fill="white"/>
</g>
</svg>
