<svg width="641" height="641" viewBox="0 0 641 641" fill="none" xmlns="http://www.w3.org/2000/svg">
<g clip-path="url(#clip0_15_5)">
<path d="M216.588 447.365C217.701 445.695 217.283 443.887 215.336 441.939C212.832 439.992 210.885 439.714 209.493 441.105C208.381 442.774 208.798 444.582 210.745 446.53C213.249 448.477 215.197 448.756 216.588 447.365ZM204.903 430.255C203.512 428.307 201.843 427.751 199.895 428.585C198.226 429.698 198.226 431.367 199.895 433.593C201.843 435.819 203.512 436.514 204.903 435.68C206.572 434.567 206.572 432.758 204.903 430.255ZM187.793 413.562C188.349 412.449 187.654 411.336 185.706 410.223C183.759 409.667 182.646 409.945 182.368 411.058C181.533 412.449 182.09 413.562 184.037 414.396C186.263 414.953 187.515 414.675 187.793 413.562ZM196.557 423.16C197.113 422.882 197.322 422.256 197.183 421.282C197.044 420.308 196.557 419.543 195.722 418.987C194.053 417.04 192.662 416.622 191.549 417.735C190.436 418.848 190.575 420.378 191.966 422.326C193.635 423.995 195.166 424.273 196.557 423.16ZM232.446 454.459C233.002 452.512 231.75 450.981 228.69 449.869C226.186 449.034 224.378 449.59 223.265 451.538C222.709 453.485 223.961 455.015 227.021 456.128C229.525 456.963 231.333 456.406 232.446 454.459ZM249.973 455.711C249.973 453.485 248.304 452.372 244.966 452.372C242.183 452.372 240.792 453.485 240.792 455.711C240.792 457.937 242.322 459.049 245.383 459.049C248.443 459.049 249.973 457.937 249.973 455.711ZM266.249 452.79C265.692 450.842 263.884 450.147 260.824 450.703C257.763 451.26 256.511 452.512 257.068 454.459C257.624 456.685 259.293 457.519 262.076 456.963C264.858 456.406 266.249 455.015 266.249 452.79ZM534.167 320.5C534.167 261.519 513.301 211.163 471.569 169.431C429.837 127.699 379.481 106.833 320.5 106.833C261.519 106.833 211.163 127.699 169.431 169.431C127.699 211.163 106.833 261.519 106.833 320.5C106.833 366.961 120.466 408.763 147.73 445.904C174.995 483.045 210.05 508.849 252.895 523.316C257.902 524.151 261.589 523.456 263.953 521.23C266.318 519.004 267.501 516.222 267.501 512.883C267.501 498.416 267.362 485.201 267.083 473.238C265.414 473.517 263.258 473.864 260.615 474.282C257.972 474.699 253.034 474.977 245.8 475.116C238.567 475.255 231.89 474.699 225.769 473.447C219.648 472.195 213.597 469.413 207.616 465.101C201.634 460.788 197.53 455.015 195.305 447.782C188.906 431.367 180.977 421.074 171.518 416.9C170.961 416.622 170.335 416.135 169.64 415.44L166.301 412.101L163.38 408.137L165.049 405.007L173.187 403.546C174.856 403.546 176.943 403.824 179.447 404.381C181.951 404.937 186.124 407.093 191.966 410.849C197.809 414.605 202.399 419.543 205.738 425.664C210.189 433.454 215.405 439.296 221.387 443.191C227.369 447.086 233.42 449.034 239.54 449.034C245.661 449.034 250.947 448.547 255.398 447.573C259.85 446.6 264.023 445.278 267.918 443.609C269.865 430.533 274.456 420.934 281.689 414.814C268.057 413.145 256.094 410.571 245.8 407.093C235.506 403.616 225.352 398.191 215.336 390.818C205.32 383.445 197.6 372.873 192.175 359.102C186.75 345.33 184.037 328.707 184.037 309.232C184.037 287.254 191.41 268.196 206.155 252.06C199.478 234.811 200.173 215.892 208.242 195.305C213.528 193.635 221.109 194.679 230.985 198.435C240.862 202.19 249.278 206.294 256.233 210.745L267.083 217.423C283.22 212.693 301.025 210.328 320.5 210.328C339.975 210.328 357.78 212.693 373.917 217.423C376.977 215.475 380.942 212.971 385.81 209.911C390.679 206.85 398.399 203.234 408.971 199.061C419.543 194.887 427.472 193.635 432.758 195.305C440.827 215.892 441.522 234.811 434.845 252.06C449.59 268.196 456.963 287.254 456.963 309.232C456.963 325.091 455.015 339.071 451.12 351.173C447.225 363.275 442.287 373.012 436.306 380.385C430.324 387.758 422.882 393.948 413.979 398.956C405.076 403.964 396.382 407.58 387.897 409.806C379.411 412.032 369.883 413.701 359.311 414.814C369.048 423.438 373.917 436.653 373.917 454.459C373.917 465.587 373.847 477.968 373.708 491.6C373.569 505.233 373.499 512.327 373.499 512.883C373.499 516.222 374.682 519.004 377.047 521.23C379.411 523.456 383.098 524.151 388.105 523.316C430.95 508.849 466.005 483.045 493.27 445.904C520.534 408.763 534.167 366.961 534.167 320.5ZM641 120.188V520.813C641 553.92 629.246 582.228 605.737 605.737C582.228 629.246 553.92 641 520.813 641H120.188C87.0803 641 58.7722 629.246 35.2633 605.737C11.7544 582.228 0 553.92 0 520.813V120.188C0 87.0803 11.7544 58.7722 35.2633 35.2633C58.7722 11.7544 87.0803 0 120.188 0H520.813C553.92 0 582.228 11.7544 605.737 35.2633C629.246 58.7722 641 87.0803 641 120.188Z" fill="black"/>
</g>
<defs>
<clipPath id="clip0_15_5">
<rect width="641" height="641" fill="white"/>
</clipPath>
</defs>
</svg>
