<svg xmlns="http://www.w3.org/2000/svg" width="80" height="80" viewBox="0 0 80 80" role="img" aria-label="GitHub">
  <rect x="0" y="0" width="80" height="80" rx="12" fill="#181717"/>
  <path fill="#ffffff" d="M40 16.25c-13.117 0-23.75 10.633-23.75 23.75 0 10.494 6.795 19.4 16.224 22.54 1.188.224 1.623-.511 1.623-1.145 0-.565-.02-2.059-.03-4.039-6.603 1.433-7.994-3.188-7.994-3.188-1.08-2.744-2.636-3.473-2.636-3.473-2.151-1.473.167-1.443.167-1.443 2.382.167 3.633 2.442 3.633 2.442 2.117 3.633 5.558 2.584 6.915 1.978.214-1.538.826-2.585 1.507-3.18-5.271-.593-10.805-2.636-10.805-11.756 0-2.6.921-4.725 2.442-6.392-.267-.601-1.068-3.024.208-6.303 0 0 1.988-.639 6.523 2.441 1.899-.528 3.916-.791 5.932-.799 2.017.008 4.033.271 5.933.799 4.505-3.08 6.493-2.441 6.493-2.441 1.276 3.279.475 5.702.237 6.303 1.513 1.667 2.432 3.792 2.432 6.392 0 9.143-5.542 11.154-10.822 11.742.837.718 1.603 2.177 1.603 4.414 0 3.194-.03 5.765-.03 6.55 0 .626.417 1.373 1.639 1.143 9.424-3.143 16.214-12.048 16.214-22.538 0-13.117-10.633-23.75-23.75-23.75z"/>
</svg>
