<svg width="80" height="80" viewBox="0 0 80 80" fill="none" xmlns="http://www.w3.org/2000/svg">
<path d="M61.25 0H18.75C8.39466 0 0 8.39466 0 18.75V61.25C0 71.6053 8.39466 80 18.75 80H61.25C71.6053 80 80 71.6053 80 61.25V18.75C80 8.39466 71.6053 0 61.25 0Z" fill="#E14E1D"/>
<path d="M15 11.875L17.6906 42.0603H52.2875L51.1266 55.0072L39.9872 58.0191L28.8687 55.0116L28.1253 46.6984H18.1062L19.5391 62.7238L39.985 68.4025L60.4569 62.7238L63.2016 32.0797H26.82L25.9066 21.8578H64.1059L65 11.875H15Z" fill="white"/>
<path d="M40 11.875H15L17.6906 42.0603H40V32.0797H26.82L25.9066 21.8578H40V11.875ZM40 58.0147L39.9872 58.0191L28.8687 55.0116L28.1253 46.6984H18.1062L19.5391 62.7238L39.985 68.4025L40.0003 68.3981L40 58.0147Z" fill="#EBEBEB"/>
</svg>
