<svg xmlns="http://www.w3.org/2000/svg" viewBox="0 0 1184 864">
  <symbol id="logo-mark" viewBox="0 0 1184 864">
    <path fill="currentColor" d="M 336 198 L 336.5 198 L 340.5 198 L 341.5 199 L 342.5 199 L 343.5 200 L 344.5 200 Q 344.8 201.2 346.5 201 L 348.5 203 L 349.5 203 L 353.5 207 L 354.5 207 L 360.5 213 L 361.5 213 L 367.5 219 L 368.5 219 L 376.5 227 L 377.5 227 L 384.5 234 L 385.5 234 L 391.5 240 L 392.5 240 L 400.5 248 L 401.5 248 L 408.5 255 L 409.5 255 L 416.5 262 L 417.5 262 L 423.5 268 L 424.5 268 L 431.5 275 L 432.5 275 L 439.5 282 L 440.5 282 L 446.5 288 L 447.5 288 L 455.5 296 L 456.5 296 L 462.5 302 L 463.5 302 L 471.5 310 L 472.5 310 L 478.5 316 L 479.5 316 L 487.5 324 L 488.5 324 L 494.5 330 L 495.5 330 L 500.5 335 L 501.5 335 L 509.5 343 L 510.5 343 L 515.5 348 L 516.5 348 L 526.5 358 L 527.5 358 L 533.5 364 L 534.5 364 L 543.5 373 L 544.5 373 L 550.5 379 L 551.5 379 L 558.5 386 L 559.5 386 L 567.5 394 L 568.5 394 L 574.5 400 L 575.5 400 L 583.5 408 L 584.5 408 L 590.5 414 L 591.5 414 L 599.5 422 L 600.5 422 L 607.5 429 L 608.5 429 L 616.5 437 L 617.5 437 L 620.5 440 L 621.5 440 L 625 436.5 L 625 435.5 Q 626.2 435.3 626 433.5 L 628 431.5 L 628 430.5 L 630 428.5 L 630 427.5 L 632 425.5 L 632 424.5 L 636 419.5 L 636 418.5 Q 637.3 418.2 637 416.5 L 641 411.5 L 641 410.5 Q 642.3 410.3 642 408.5 L 644 406.5 L 644 405.5 L 646 403.5 L 646 402.5 L 648 400.5 L 648 399.5 L 650 397.5 L 650 396.5 L 654 391.5 L 654 390.5 Q 655.3 390.3 655 388.5 L 657 386.5 L 657 385.5 L 659 383.5 L 659 382.5 L 663 377.5 L 663 376.5 Q 664.3 376.3 664 374.5 L 666 372.5 L 666 371.5 L 668 369.5 L 668 368.5 L 672 363.5 L 672 362.5 Q 673.3 362.3 673 360.5 L 676 357.5 L 676 356.5 Q 677.3 356.3 677 354.5 L 679 352.5 L 679 351.5 L 681 349.5 L 681 348.5 L 685 343.5 L 685 342.5 Q 686.3 342.3 686 340.5 L 690 335.5 L 690 334.5 Q 691.3 334.2 691 332.5 L 694 329.5 L 694 328.5 L 696 326.5 L 696 325.5 Q 697.3 325.2 697 323.5 L 699 321.5 L 699 320.5 Q 700.3 320.3 700 318.5 L 702 316.5 L 702 315.5 L 704 313.5 L 704 312.5 L 706 310.5 L 706 309.5 L 708 307.5 L 708 306.5 L 710 304.5 L 710 303.5 L 714 298.5 L 714 297.5 Q 715.3 297.3 715 295.5 L 719 290.5 L 719 289.5 Q 720.2 289.2 720 287.5 L 722 285.5 L 722 284.5 L 724 282.5 L 724 281.5 L 726 279.5 L 726 278.5 L 730 273.5 L 730 272.5 Q 731.3 272.3 731 270.5 L 733 268.5 L 733 267.5 L 735 265.5 L 735 264.5 L 739 259.5 L 739 258.5 Q 740.3 258.2 740 256.5 L 742 254.5 L 742 253.5 L 746 248.5 L 746 247.5 Q 747.2 247.2 747 245.5 L 749 243.5 L 749 242.5 L 751 240.5 L 751 239.5 L 753 237.5 L 753 236.5 L 755 234.5 L 755 233.5 L 759 228.5 L 759 227.5 Q 760.3 227.2 760 225.5 L 762 223.5 L 762 222.5 L 764 220.5 L 764 219.5 L 768 214.5 L 768 213.5 Q 769.3 213.2 769 211.5 L 771 209.5 L 771 208.5 L 773 206.5 L 773 205.5 L 776 202.5 L 776 201.5 L 778.5 199 L 781.5 199 Q 782.3 198.8 782 199.5 L 782 685.5 L 782 686 L 780.5 686 L 779.5 687 L 749.5 687 Q 748.5 685 747.5 687 L 729.5 687 L 728.5 686 L 720.5 686 Q 720 687.5 717.5 687 L 716.5 686 L 711.5 686 Q 711.2 687.3 709.5 687 L 708.5 686 L 633.5 686 Q 632.5 688 631.5 686 L 623.5 686 L 622 684.5 L 622 449.5 Q 622.4 448.5 620.5 449 L 619 450.5 L 619 451.5 L 616 454.5 L 616 455.5 Q 614.8 455.8 615 457.5 L 613 459.5 L 613 460.5 L 611 462.5 L 611 463.5 L 609 465.5 L 609 466.5 L 607 468.5 L 607 469.5 L 603 474.5 L 603 475.5 Q 601.8 475.8 602 477.5 L 600 479.5 L 600 480.5 L 596 485.5 L 596 486.5 Q 594.7 486.8 595 488.5 L 593 490.5 L 593 491.5 L 589 496.5 L 589 497.5 Q 587.8 497.8 588 499.5 L 585 502.5 L 585 503.5 Q 583.8 503.8 584 505.5 L 582 507.5 L 582 508.5 L 580 510.5 L 580 511.5 L 578 513.5 L 578 514.5 L 576 516.5 L 576 517.5 Q 574.8 517.7 575 519.5 L 573 521.5 L 573 522.5 L 571 524.5 L 571 525.5 L 567 530.5 L 567 531.5 Q 565.8 531.8 566 533.5 L 564 535.5 L 564 536.5 L 562 538.5 L 562 539.5 L 558 544.5 L 558 545.5 Q 556.8 545.7 557 547.5 L 555 549.5 L 555 550.5 L 553 552.5 L 553 553.5 L 551 555.5 L 551 556.5 L 549 558.5 L 549 559.5 L 545 564.5 L 545 565.5 Q 543.8 565.8 544 567.5 L 542 569.5 L 542 570.5 L 540 572.5 L 540 573.5 L 537.5 576 Q 537.3 574.8 535.5 575 L 532.5 572 L 531.5 572 L 526.5 567 L 525.5 567 L 521.5 563 L 520.5 563 L 514.5 557 L 513.5 557 L 507.5 551 L 506.5 551 L 500.5 545 L 499.5 545 L 494.5 540 L 493.5 540 L 487.5 534 L 486.5 534 L 480.5 528 L 479.5 528 L 473.5 522 L 472.5 522 L 467.5 517 L 466.5 517 L 461.5 512 L 460.5 512 L 453.5 505 L 452.5 505 L 447.5 500 L 446.5 500 L 440.5 494 L 439.5 494 L 433.5 488 L 432.5 488 L 427.5 483 L 426.5 483 L 420.5 477 L 419.5 477 L 414.5 472 L 413.5 472 L 407.5 466 L 406.5 466 L 399.5 459 L 398.5 459 L 393.5 454 L 392.5 454 L 386.5 448 L 385.5 448 L 379.5 442 L 378.5 442 L 373.5 437 L 372.5 437 L 366.5 431 L 365.5 431 L 360.5 426 L 359.5 426 L 354.5 421 L 353.5 421 L 347.5 415 L 346.5 415 L 342.5 411 L 341.5 411 L 337 406.5 L 337 405.5 Q 335.8 405.3 336 403.5 Q 338 402.5 336 401.5 L 336 198.5 L 336 198 Z "/>
    <path fill="currentColor" d="M 404.5 548 L 413.5 548 L 414.5 549 L 421.5 549 L 422.5 550 L 425.5 550 L 426.5 551 L 428.5 551 Q 429 552.5 431.5 552 L 434.5 554 L 436.5 554 L 437.5 555 L 438.5 555 L 439.5 556 L 440.5 556 Q 440.7 557.3 442.5 557 L 444.5 559 L 445.5 559 L 447.5 561 L 448.5 561 L 450.5 563 L 451.5 563 L 455.5 567 L 456.5 567 L 461 571.5 L 461 572.5 L 465 576.5 L 465 577.5 L 467 579.5 L 467 580.5 L 471 585.5 Q 470.7 587.2 472 587.5 L 472 589.5 L 473 590.5 L 473 591.5 L 475 594.5 L 475 597.5 L 476 598.5 Q 475.5 601 477 601.5 L 477 605.5 L 478 606.5 L 478 630.5 L 477 631.5 L 477 635.5 L 476 636.5 L 476 640.5 L 475 641.5 L 475 643.5 L 474 644.5 L 474 646.5 Q 472.5 647 473 649.5 L 472 650.5 L 472 651.5 L 471 652.5 L 471 653.5 L 470 654.5 L 470 655.5 Q 468.7 655.8 469 657.5 L 467 659.5 L 467 660.5 L 465 662.5 L 465 663.5 L 461 667.5 L 461 668.5 L 453.5 676 L 452.5 676 L 448.5 680 L 447.5 680 L 445.5 682 L 444.5 682 L 443.5 683 L 442.5 683 L 441.5 684 L 440.5 684 L 439.5 685 L 438.5 685 L 437.5 686 L 436.5 686 L 435.5 687 L 434.5 687 L 431.5 689 L 429.5 689 L 428.5 690 Q 426 689.5 425.5 691 Q 422.3 690.3 421.5 692 L 415.5 692 L 414.5 693 L 393.5 693 L 392.5 692 L 388.5 692 L 387.5 691 Q 385 691.5 384.5 690 L 381.5 690 L 378.5 688 L 376.5 688 L 375.5 687 L 374.5 687 L 373.5 686 L 372.5 686 L 371.5 685 L 370.5 685 Q 370.2 683.7 368.5 684 L 366.5 682 L 365.5 682 L 363.5 680 L 362.5 680 L 359.5 677 L 358.5 677 L 350 668.5 L 350 667.5 L 347 664.5 L 347 663.5 L 344 660.5 L 344 659.5 Q 342.8 659.3 343 657.5 L 341 655.5 Q 341.2 653.7 340 653.5 L 340 651.5 L 338 648.5 L 338 646.5 L 337 645.5 L 337 643.5 L 336 642.5 Q 336.5 640 335 639.5 L 335 635.5 L 334 634.5 L 334 627.5 L 333 626.5 L 333 619.5 L 334 618.5 L 334 606.5 L 335 605.5 L 335 602.5 L 336 601.5 L 336 598.5 L 338 595.5 L 338 593.5 L 339 592.5 L 339 591.5 L 340 590.5 L 340 589.5 L 341 588.5 L 341 587.5 L 342 586.5 L 342 585.5 Q 343.3 585.2 343 583.5 L 345 581.5 L 345 580.5 L 347 578.5 L 347 577.5 L 357.5 567 L 358.5 567 L 362.5 563 L 363.5 563 L 365.5 561 L 366.5 561 L 368.5 559 L 369.5 559 L 371.5 557 L 372.5 557 L 375.5 555 L 377.5 555 L 380.5 553 L 382.5 553 L 383.5 552 Q 386 552.5 386.5 551 L 389.5 551 Q 390.3 549.3 393.5 550 L 394.5 549 L 403.5 549 L 404.5 548 Z "/>
  </symbol>
</svg>
