<svg xmlns="http://www.w3.org/2000/svg" viewBox="0 0 3797 3486">
  <symbol id="logo-mark" viewBox="0 0 3797 3486">
    <path fill="currentColor" d="M1.5 3373.91C1.5 2578.22 1 1335.91 1 1335.91C26.0279 1306.32 44.9006 1304.13 83.5 1319.41L667.5 2052.41C722.903 2112.36 737.024 2148.35 745.5 2214.91L748 3359.91C722.504 3433.71 693.452 3461.25 614.5 3484.91L142.5 3484.41C56.3229 3457.31 25.513 3428.99 1.5 3373.91Z"/>
    <path fill="currentColor" d="M1567.5 2724.91L40.5 732.911C-13.6113 593.09 17.3692 533.2 168.5 490.91H724.5C788.191 501.83 814.917 516.181 851.5 551.911L1675.5 1667.91C1703.61 1711.5 1719.39 1718.75 1747.5 1667.91L2946.5 32.9105C2967.32 3.93448 2985.76 -0.475179 3024.5 1.91051H3741.5C3800.81 -3.33887 3807.47 13.4341 3783.5 69.9105L1839.5 2719.91C1729.22 2792.03 1669.94 2788.25 1567.5 2724.91Z"/>
    <path fill="currentColor" d="M2647.5 3362.91V2188.91C2658.77 2105.19 2677.13 2066.2 2731.5 2010.91L3291 1277.91C3351.73 1231 3401.73 1244.57 3400.5 1324.41V3362.41C3367.51 3433.65 3339.56 3460.61 3269.5 3480.91H2771.5C2693.95 3454.56 2666.3 3429.07 2647.5 3362.91Z"/>
  </symbol>
</svg>
