<svg width="4096" height="4096" viewBox="0 0 4096 4096" fill="none" xmlns="http://www.w3.org/2000/svg">
<g clip-path="url(#clip0_19_9)">
<path d="M1426 4.00011C1427.58 4.41804 1429.16 4.83467 1430.73 5.25011C1450.21 10.6382 1467.86 20.4985 1482 35.0001C1482.85 35.8457 1483.69 36.6914 1484.56 37.5626C1485.37 38.367 1486.17 39.1714 1487 40.0001C1488.14 41.0829 1488.14 41.0829 1489.31 42.1876C1491 44.0001 1491 44.0001 1491 46.0001C1491.66 46.0001 1492.32 46.0001 1493 46.0001C1494.65 48.1328 1496.15 50.2511 1497.62 52.5001C1498.07 53.1707 1498.51 53.8412 1498.97 54.5321C1504.98 63.8467 1510.69 73.8456 1513.33 84.6915C1513.99 87.1918 1513.99 87.1918 1515.47 90.1329C1517.48 94.6961 1518 99.4026 1518.62 104.313C1518.86 106.101 1519.11 107.889 1519.35 109.676C1519.45 110.459 1519.55 111.242 1519.66 112.048C1519.92 114.072 1519.92 114.072 1521 116C1521.21 120.582 1521.19 125.169 1521.19 129.756C1521.19 132.029 1521.21 134.303 1521.22 136.576C1521.25 143.226 1521.25 149.624 1519.5 156.092C1518.64 159.354 1518.37 162.65 1518 166C1515.61 186.383 1508.4 206.176 1500.99 225.219C1498.61 231.333 1496.39 237.487 1494.25 243.688C1492.24 249.502 1490.16 255.25 1487.82 260.942C1485.05 267.876 1483.01 275.111 1480.8 282.241C1479.93 285.063 1479.04 287.879 1478.1 290.68C1476.76 294.737 1475.48 298.814 1474.21 302.895C1473.94 303.751 1473.67 304.608 1473.4 305.491C1462.82 338.575 1462.82 338.575 1454.61 372.289C1453.94 375.272 1452.92 377.921 1451.75 380.734C1450.27 385.196 1449.58 389.893 1448.75 394.512C1448 398 1448 398 1447.01 400.473C1445.68 403.811 1445.08 407.231 1444.44 410.75C1443.13 417.87 1443.13 417.87 1442 419C1441.65 420.47 1441.34 421.952 1441.06 423.438C1440.89 424.332 1440.72 425.227 1440.54 426.149C1440.36 427.09 1440.18 428.031 1440 429C1439.65 430.855 1439.3 432.709 1438.94 434.563C1438.78 435.389 1438.63 436.215 1438.46 437.067C1438 439 1438 439 1437 440C1436.54 442.373 1436.13 444.74 1435.74 447.125C1434.05 457.128 1431.93 467.029 1429.78 476.945C1428.66 482.132 1427.56 487.322 1426.45 492.512C1426.23 493.519 1426.02 494.526 1425.8 495.563C1424.14 503.306 1422.51 511.053 1420.94 518.813C1420.75 519.739 1420.55 520.665 1420.36 521.619C1419.35 526.678 1418.7 531.672 1418.24 536.809C1417.96 539.39 1417.37 541.766 1416.62 544.25C1414.79 551.134 1413.95 558.111 1413.09 565.171C1412.61 569.033 1412.1 572.652 1411.01 576.395C1409.54 581.647 1409.05 586.965 1408.44 592.375C1408.19 594.55 1407.94 596.725 1407.68 598.899C1407.58 599.854 1407.47 600.81 1407.36 601.795C1407 604 1407 604 1406 605C1405.64 607.417 1405.33 609.819 1405.06 612.246C1404.98 612.973 1404.89 613.699 1404.8 614.447C1404.53 616.777 1404.27 619.107 1404 621.438C1403.73 623.765 1403.47 626.091 1403.2 628.417C1403.03 629.867 1402.86 631.317 1402.7 632.768C1402.11 637.775 1402.11 637.775 1401 640C1400.77 641.624 1400.58 643.254 1400.42 644.887C1400.32 645.945 1400.21 647.003 1400.1 648.093C1399.98 649.279 1399.87 650.465 1399.75 651.688C1399.48 654.354 1399.22 657.021 1398.95 659.688C1398.84 660.779 1398.84 660.779 1398.73 661.892C1398.13 667.807 1397.49 673.716 1396.83 679.625C1392.96 714.678 1389.82 749.788 1387.81 785C1387.74 786.24 1387.67 787.479 1387.59 788.757C1386.11 817 1385.83 845.258 1385.87 873.534C1385.87 876.24 1385.88 878.947 1385.88 881.654C1385.98 967.557 1390.01 1053.2 1397.98 1138.74C1398.23 1141.42 1398.48 1144.11 1398.73 1146.79C1398.85 1148.06 1398.97 1149.32 1399.09 1150.63C1399.84 1158.8 1400.42 1166.97 1400.78 1175.17C1400.82 1177.95 1400.82 1177.95 1402 1180C1402.34 1182.88 1402.64 1185.74 1402.9 1188.63C1403.07 1190.4 1403.24 1192.18 1403.41 1193.96C1403.67 1196.75 1403.94 1199.55 1404.2 1202.34C1404.45 1205.04 1404.71 1207.74 1404.96 1210.44C1405.04 1211.26 1405.11 1212.09 1405.19 1212.93C1405.65 1217.7 1406.45 1222.25 1407.54 1226.92C1408.18 1229.82 1408.5 1232.73 1408.78 1235.69C1408.96 1237.48 1408.96 1237.48 1409.14 1239.3C1409.38 1241.77 1409.62 1244.23 1409.86 1246.7C1410.44 1252.48 1411.14 1258.05 1412.51 1263.7C1413.78 1269.66 1414.2 1275.8 1414.86 1281.85C1415.43 1286.93 1416.13 1291.73 1417.49 1296.68C1418.18 1299.83 1418.52 1302.98 1418.9 1306.19C1420.07 1316.2 1421.84 1326.08 1423.62 1336C1423.8 1336.96 1423.97 1337.93 1424.15 1338.92C1427.03 1355.08 1430.15 1371.19 1433.47 1387.27C1436.1 1400.04 1436.1 1400.04 1436.6 1405.23C1436.98 1408.81 1437.83 1411.62 1439 1415C1439.57 1417.76 1440 1420.53 1440.44 1423.31C1441.33 1428.7 1442.41 1433.71 1444.32 1438.84C1445.47 1442.49 1445.9 1446.26 1446.47 1450.04C1447.1 1453.55 1448.12 1456.82 1449.21 1460.2C1450.58 1465.06 1451.43 1470.02 1452.35 1474.97C1452.68 1477.87 1452.68 1477.87 1454 1479C1454.34 1480.65 1454.64 1482.31 1454.91 1483.97C1455.83 1489.23 1457 1494.35 1458.38 1499.5C1458.62 1500.43 1458.86 1501.36 1459.12 1502.32C1462.5 1515.07 1466.1 1527.77 1469.69 1540.47C1470.19 1542.26 1470.69 1544.05 1471.2 1545.84C1471.44 1546.71 1471.68 1547.58 1471.93 1548.47C1473.79 1555.13 1475.47 1561.82 1477.04 1568.56C1478.07 1572.25 1479.45 1575.5 1481 1579C1481.57 1581.05 1482.09 1583.11 1482.56 1585.19C1483.38 1588.78 1484.36 1591.72 1486 1595C1486.52 1596.88 1487 1598.78 1487.44 1600.69C1488.25 1604.19 1489.17 1607.6 1490.32 1611.01C1490.72 1612.2 1490.72 1612.2 1491.13 1613.42C1491.42 1614.27 1491.7 1615.12 1492 1616C1492.29 1616.86 1492.58 1617.73 1492.88 1618.62C1493.85 1621.48 1494.83 1624.35 1495.8 1627.22C1496.16 1628.28 1496.52 1629.33 1496.89 1630.42C1497.65 1632.65 1498.4 1634.88 1499.16 1637.11C1500.3 1640.46 1501.44 1643.82 1502.58 1647.17C1505.8 1656.68 1509.04 1666.18 1512.36 1675.66C1512.58 1676.31 1512.81 1676.96 1513.05 1677.64C1514.13 1680.72 1515.3 1683.74 1516.6 1686.72C1518 1690 1518 1690 1519.06 1693.75C1519.85 1697.11 1519.85 1697.11 1522 1700C1522.48 1701.47 1522.91 1702.95 1523.31 1704.44C1524.41 1708.25 1525.72 1711.86 1527.28 1715.51C1530.06 1722.1 1532.66 1728.76 1535.25 1735.44C1539.92 1747.4 1544.87 1759.22 1550 1771C1551.03 1773.37 1552.05 1775.75 1553.06 1778.13C1553.45 1779.01 1553.83 1779.9 1554.22 1780.82C1555 1783 1555 1783 1555 1786C1555.66 1786 1556.32 1786 1557 1786C1557.24 1786.69 1557.48 1787.38 1557.73 1788.09C1560.63 1796.22 1563.96 1803.93 1567.82 1811.64C1570.14 1816.29 1572.42 1820.95 1574.69 1825.63C1575.19 1826.64 1575.68 1827.65 1576.2 1828.69C1576.67 1829.67 1577.15 1830.65 1577.64 1831.66C1578.07 1832.55 1578.5 1833.43 1578.94 1834.33C1580.09 1837.22 1580.59 1839.93 1581 1843C1581.66 1843 1582.32 1843 1583 1843C1585.03 1846.73 1586 1848.67 1586 1853C1586.66 1853 1587.32 1853 1588 1853C1588.38 1853.81 1588.38 1853.81 1588.76 1854.63C1596.54 1871.24 1604.82 1887.5 1613.9 1903.45C1615.97 1907.1 1617.92 1910.78 1619.75 1914.56C1624.69 1924.63 1630.42 1934.29 1636 1944C1636.45 1944.79 1636.91 1945.58 1637.38 1946.4C1642.63 1955.52 1648.15 1964.44 1653.81 1973.32C1657 1978.34 1659.95 1983.42 1662.73 1988.68C1664.39 1991.7 1666.28 1994.51 1668.23 1997.35C1671.03 2001.55 1673.67 2005.85 1676.31 2010.15C1678.36 2013.47 1680.47 2016.67 1682.81 2019.8C1685 2023 1685 2023 1685 2026C1685.66 2026 1686.32 2026 1687 2026C1688.48 2028.1 1689.85 2030.19 1691.19 2032.38C1692 2033.67 1692.82 2034.97 1693.63 2036.27C1694.04 2036.91 1694.44 2037.55 1694.85 2038.21C1696.89 2041.39 1699.08 2044.45 1701.27 2047.52C1703.16 2050.23 1704.99 2052.99 1706.81 2055.75C1710.62 2061.49 1714.59 2067.09 1718.61 2072.68C1718.99 2073.22 1719.38 2073.76 1719.78 2074.31C1720.65 2075.51 1721.53 2076.71 1722.41 2077.9C1726 2082.79 1726 2082.79 1726 2085C1726.66 2085 1727.32 2085 1728 2085C1730.3 2087.56 1731 2088.48 1731 2092C1731.99 2092.33 1732.98 2092.66 1734 2093C1734.93 2094.3 1735.84 2095.62 1736.68 2096.98C1739.07 2100.65 1741.77 2104.1 1744.39 2107.61C1746 2110 1746 2110 1746 2112C1746.99 2112.33 1747.98 2112.66 1749 2113C1750.95 2115.3 1750.95 2115.3 1753.12 2118.31C1753.92 2119.4 1754.71 2120.49 1755.5 2121.57C1755.91 2122.14 1756.32 2122.7 1756.74 2123.28C1758 2125 1759.29 2126.7 1760.59 2128.39C1761 2128.94 1761.42 2129.48 1761.85 2130.04C1763.01 2131.56 1764.18 2133.08 1765.35 2134.6C1767 2137 1767 2137 1767 2139C1767.57 2139.21 1768.13 2139.42 1768.71 2139.64C1771.77 2141.46 1773.51 2143.98 1775.56 2146.81C1779.09 2151.54 1782.72 2156.14 1786.56 2160.62C1787.48 2161.7 1788.4 2162.77 1789.31 2163.85C1789.76 2164.37 1790.2 2164.89 1790.66 2165.43C1792.82 2167.96 1794.94 2170.51 1797.06 2173.06C1797.78 2173.92 1798.49 2174.78 1799.22 2175.66C1800.79 2177.72 1801.95 2179.64 1803 2182C1803.66 2182 1804.32 2182 1805 2182C1806.35 2183.51 1807.63 2185.09 1808.88 2186.69C1812.4 2191.09 1816.03 2195.31 1819.88 2199.44C1820.38 2199.98 1820.88 2200.52 1821.4 2201.08C1822.43 2202.18 1823.45 2203.27 1824.48 2204.37C1831.66 2212.07 1838.77 2219.83 1845.58 2227.87C1846.09 2228.47 1846.6 2229.07 1847.12 2229.69C1847.56 2230.21 1848 2230.73 1848.45 2231.26C1851.5 2234.68 1854.83 2237.84 1858.11 2241.04C1859.18 2242.09 1860.25 2243.14 1861.31 2244.19C1861.86 2244.72 1862.41 2245.25 1862.98 2245.8C1864.36 2247.16 1865.68 2248.58 1867 2250C1867 2250.66 1867 2251.32 1867 2252C1867.96 2252.4 1867.96 2252.4 1868.94 2252.81C1871 2254 1871 2254 1872 2257C1872.87 2257.4 1872.87 2257.4 1873.75 2257.81C1876.98 2259.52 1878.71 2262.19 1881 2265C1882.33 2266.01 1883.66 2267.01 1885 2268C1885 2268.66 1885 2269.32 1885 2270C1885.56 2270.23 1886.11 2270.45 1886.69 2270.69C1889.66 2272.38 1891.72 2274.47 1894 2277C1894 2277.66 1894 2278.32 1894 2279C1894.56 2279.23 1895.11 2279.45 1895.69 2279.69C1898.66 2281.37 1900.65 2283.53 1903 2286C1906.47 2289.56 1906.47 2289.56 1910.31 2292.69C1911.15 2293.34 1911.15 2293.34 1912 2294C1912 2294.66 1912 2295.32 1912 2296C1913.32 2296.66 1914.64 2297.32 1916 2298C1916 2298.66 1916 2299.32 1916 2300C1916.58 2300.25 1917.17 2300.51 1917.77 2300.77C1920.24 2302.13 1921.81 2303.64 1923.75 2305.69C1928.62 2310.67 1933.77 2315.19 1939.17 2319.59C1939.72 2320.04 1940.27 2320.49 1940.84 2320.95C1941.93 2321.85 1943.03 2322.74 1944.14 2323.62C1945.46 2324.71 1946.74 2325.85 1948 2327C1948 2327.66 1948 2328.32 1948 2329C1948.56 2329.25 1949.11 2329.5 1949.69 2329.75C1952.42 2331.23 1954.68 2332.93 1957 2335C1957 2335.66 1957 2336.32 1957 2337C1957.55 2337.23 1958.1 2337.46 1958.66 2337.7C1961.67 2339.37 1963.88 2341.52 1966.38 2343.88C1969.25 2346.59 1972.02 2349.08 1975.35 2351.2C1976.23 2351.79 1977.1 2352.39 1978 2353C1978 2353.66 1978 2354.32 1978 2355C1978.74 2355.25 1979.49 2355.5 1980.25 2355.75C1983.23 2357.1 1984.78 2358.63 1987 2361C1987.99 2361.66 1988.98 2362.32 1990 2363C1990 2363.66 1990 2364.32 1990 2365C1990.57 2365.26 1991.13 2365.51 1991.72 2365.78C1994.25 2367.14 1996.28 2368.73 1998.5 2370.56C2001.4 2372.93 2004.31 2375.25 2007.32 2377.46C2007.87 2377.86 2008.42 2378.26 2008.99 2378.68C2010.56 2379.83 2012.14 2380.97 2013.73 2382.12C2014.48 2382.74 2015.23 2383.36 2016 2384C2016 2384.66 2016 2385.32 2016 2386C2016.66 2386.21 2017.32 2386.41 2018 2386.62C2022.62 2388.74 2026.84 2391.81 2030.41 2395.44C2031.95 2396.95 2033.51 2398.22 2035.23 2399.5C2035.86 2399.97 2036.49 2400.44 2037.14 2400.92C2038.15 2401.67 2038.15 2401.67 2039.19 2402.44C2040.62 2403.51 2042.05 2404.57 2043.49 2405.64C2044.23 2406.19 2044.97 2406.74 2045.73 2407.31C2048.01 2409 2050.28 2410.71 2052.54 2412.42C2053.27 2412.97 2054 2413.52 2054.74 2414.08C2056.15 2415.14 2057.55 2416.19 2058.95 2417.25C2062.33 2419.85 2062.33 2419.85 2066 2422C2066 2422.66 2066 2423.32 2066 2424C2066.82 2424.13 2066.82 2424.13 2067.66 2424.26C2070.76 2425.24 2072.85 2426.92 2075.44 2428.88C2078.2 2430.95 2080.85 2432.91 2083.85 2434.63C2084.56 2435.08 2085.27 2435.54 2086 2436C2086 2436.66 2086 2437.32 2086 2438C2086.87 2438.24 2087.75 2438.49 2088.65 2438.74C2092.25 2440.09 2094.62 2441.75 2097.62 2444.12C2103.57 2448.71 2109.72 2452.88 2116 2457C2117.48 2458 2118.96 2459 2120.44 2460C2129.98 2466.41 2129.98 2466.41 2140 2472C2140 2472.66 2140 2473.32 2140 2474C2140.59 2474.12 2141.18 2474.25 2141.79 2474.37C2145.37 2475.39 2148.33 2477.56 2151.44 2479.56C2152.88 2480.48 2154.32 2481.39 2155.76 2482.3C2156.47 2482.76 2157.19 2483.22 2157.93 2483.69C2160.87 2485.55 2163.84 2487.37 2166.81 2489.19C2170.89 2491.68 2174.92 2494.23 2178.94 2496.81C2182.54 2499.12 2186.14 2501.15 2190 2503C2193.01 2504.64 2196.01 2506.32 2199 2508C2199 2508.66 2199 2509.32 2199 2510C2199.73 2510.11 2200.46 2510.22 2201.21 2510.33C2204.15 2511.04 2206.03 2512.04 2208.56 2513.66C2214.25 2517.19 2220.1 2520.35 2226 2523.5C2232.71 2527.09 2239.35 2530.73 2245.84 2534.71C2251.95 2538.36 2258.49 2541.16 2265 2544C2265 2544.66 2265 2545.32 2265 2546C2266.11 2546.19 2266.11 2546.19 2267.23 2546.38C2269.86 2546.97 2271.87 2547.75 2274.26 2548.96C2275.07 2549.37 2275.88 2549.77 2276.71 2550.19C2278.01 2550.84 2278.01 2550.84 2279.32 2551.52C2280.23 2551.97 2281.13 2552.42 2282.06 2552.89C2284.94 2554.34 2287.81 2555.79 2290.69 2557.25C2292.6 2558.22 2294.52 2559.18 2296.44 2560.14C2299.99 2561.93 2303.54 2563.73 2307.09 2565.52C2310.53 2567.26 2313.96 2568.99 2317.41 2570.72C2318.6 2571.32 2318.6 2571.32 2319.82 2571.93C2323.6 2573.78 2327.46 2575.39 2331.37 2576.93C2332.22 2577.26 2333.06 2577.59 2333.94 2577.94C2334.71 2578.24 2335.48 2578.53 2336.28 2578.84C2338.48 2579.78 2340.59 2580.78 2342.72 2581.86C2347.25 2584.15 2351.86 2586.24 2356.5 2588.31C2357.8 2588.9 2357.8 2588.9 2359.13 2589.49C2361.75 2590.66 2364.38 2591.83 2367 2593C2367.78 2593.35 2368.55 2593.69 2369.35 2594.05C2371.48 2594.99 2373.62 2595.94 2375.75 2596.88C2376.37 2597.15 2376.99 2597.42 2377.62 2597.7C2381.44 2599.38 2385.3 2600.88 2389.21 2602.32C2391.28 2603.11 2393.3 2604 2395.31 2604.94C2399.55 2606.85 2403.86 2608.44 2408.24 2610C2411.66 2611.24 2415.03 2612.58 2418.4 2613.95C2426.01 2617.03 2433.64 2620.03 2441.33 2622.93C2442.28 2623.29 2443.23 2623.65 2444.21 2624.02C2446.21 2624.78 2448.21 2625.54 2450.21 2626.29C2453.23 2627.43 2456.25 2628.57 2459.26 2629.71C2479.81 2637.62 2479.81 2637.62 2500.75 2644.38C2504.24 2645.41 2507.58 2646.6 2510.94 2648C2515.33 2649.81 2519.74 2651.09 2524.33 2652.28C2527.58 2653.16 2530.74 2654.22 2533.92 2655.3C2536.92 2656.31 2539.95 2657.16 2543 2658C2543 2658.66 2543 2659.32 2543 2660C2544.27 2660.1 2545.54 2660.21 2546.85 2660.31C2552.26 2660.92 2557.24 2662.38 2562.41 2664.02C2563.39 2664.32 2564.36 2664.62 2565.36 2664.93C2568.45 2665.88 2571.54 2666.85 2574.62 2667.81C2578.68 2669.07 2582.73 2670.33 2586.79 2671.58C2587.76 2671.88 2588.74 2672.19 2589.74 2672.5C2599.46 2675.48 2609.25 2678.1 2619.12 2680.5C2623.25 2681.51 2627.27 2682.7 2631.31 2684C2637.32 2685.89 2643.31 2687.15 2649.49 2688.29C2653.07 2689.01 2656.5 2689.98 2660 2691C2663.17 2691.79 2666.35 2692.56 2669.52 2693.32C2672 2694 2672 2694 2673 2695C2675.19 2695.45 2677.38 2695.84 2679.58 2696.22C2686.55 2697.48 2693.46 2698.96 2700.36 2700.56C2701.36 2700.79 2702.37 2701.02 2703.4 2701.26C2706.52 2701.98 2709.63 2702.71 2712.75 2703.44C2730.23 2707.51 2747.71 2711.39 2765.38 2714.5C2768.52 2715.1 2771.63 2715.8 2774.75 2716.5C2781.02 2717.87 2787.25 2718.75 2793.62 2719.47C2797 2720 2797 2720 2799.75 2720.96C2804.4 2722.45 2809.1 2722.91 2813.94 2723.5C2815.86 2723.73 2817.79 2723.97 2819.71 2724.22C2820.56 2724.32 2821.41 2724.42 2822.28 2724.53C2825 2725 2825 2725 2828.15 2725.96C2833.03 2727.28 2837.86 2727.82 2842.88 2728.39C2851.33 2729.4 2859.74 2730.51 2868.15 2731.8C2869.18 2731.95 2870.2 2732.11 2871.25 2732.27C2873.38 2732.59 2875.5 2732.92 2877.63 2733.25C2927.32 2740.82 2977.48 2747.64 3027.7 2750.41C3029.48 2750.5 3029.48 2750.5 3031.3 2750.61C3032.33 2750.66 3033.37 2750.71 3034.43 2750.77C3037 2751 3037 2751 3040 2752C3043.26 2752.45 3046.54 2752.67 3049.81 2752.94C3051.38 2753.06 3051.38 2753.06 3052.97 2753.2C3067.21 2754.27 3081.47 2754.76 3095.73 2755.3C3096.72 2755.34 3097.72 2755.38 3098.74 2755.42C3100.62 2755.5 3102.51 2755.57 3104.4 2755.63C3105.24 2755.67 3106.08 2755.7 3106.95 2755.73C3107.68 2755.76 3108.42 2755.79 3109.18 2755.82C3111 2756 3111 2756 3113 2757C3115.31 2757.22 3117.6 2757.38 3119.92 2757.5C3120.7 2757.54 3121.48 2757.58 3122.29 2757.62C3136.93 2758.33 3151.59 2758.69 3166.25 2759.06C3167.12 2759.08 3167.99 2759.11 3168.88 2759.13C3296.36 2768.63 3296.36 2768.63 3415 2756C3417.52 2755.8 3420.02 2755.65 3422.55 2755.54C3424.12 2755.46 3425.7 2755.38 3427.27 2755.3C3428.09 2755.26 3428.92 2755.22 3429.77 2755.18C3441.4 2754.63 3453.03 2754.06 3464.62 2752.94C3465.46 2752.86 3466.29 2752.78 3467.15 2752.7C3470.25 2752.38 3473.02 2751.99 3476 2751C3477.91 2750.82 3479.83 2750.68 3481.74 2750.56C3524.95 2747.63 3568.01 2741.09 3610.81 2734.62C3611.89 2734.46 3612.97 2734.3 3614.09 2734.13C3625 2732.48 3635.87 2730.7 3646.71 2728.61C3651.94 2727.64 3657.18 2727.09 3662.48 2726.53C3665.95 2726.11 3665.95 2726.11 3668.96 2725.01C3672.62 2723.79 3676.25 2723.31 3680.06 2722.88C3681.1 2722.75 3681.1 2722.75 3682.17 2722.61C3685.8 2722.18 3689.34 2721.9 3693 2722C3693 2721.34 3693 2720.68 3693 2720C3693.55 2719.92 3694.1 2719.85 3694.66 2719.77C3708.03 2717.98 3708.03 2717.98 3721.1 2714.78C3724.34 2713.91 3727.56 2713.32 3730.86 2712.75C3740.8 2710.94 3750.63 2708.62 3760.46 2706.29C3763.56 2705.56 3766.66 2704.84 3769.76 2704.12C3779.5 2701.83 3789.22 2699.49 3798.86 2696.78C3802.22 2695.94 3805.57 2695.46 3809 2695C3811.05 2694.36 3811.05 2694.36 3812.81 2693.56C3815.86 2692.34 3818.77 2691.59 3822 2691C3825.9 2690.29 3829.34 2689.19 3833 2687.72C3835.15 2686.94 3837.26 2686.46 3839.5 2686C3843.13 2685.25 3846.4 2684.15 3849.84 2682.79C3853.16 2681.58 3856.57 2680.72 3860 2679.84C3862.42 2679.16 3864.78 2678.42 3867.16 2677.62C3892.97 2668.93 3919.06 2662.77 3946.38 2662.75C3947.08 2662.75 3947.79 2662.75 3948.53 2662.75C3976.44 2662.79 4002.4 2669.71 4026 2685C4026.91 2685.56 4026.91 2685.56 4027.84 2686.14C4029.26 2687.04 4030.64 2688.01 4032 2689C4032 2689.66 4032 2690.32 4032 2691C4033.02 2691.28 4033.02 2691.28 4034.06 2691.56C4038.21 2693.59 4040.86 2696.68 4044 2700C4045.18 2701.14 4045.18 2701.14 4046.38 2702.31C4059.8 2716.08 4069.19 2732.73 4075 2751C4075.26 2751.76 4075.52 2752.53 4075.78 2753.32C4077.68 2759.26 4078.74 2765.13 4079.57 2771.31C4079.86 2773.96 4079.86 2773.96 4081 2776C4081.1 2778.76 4081.14 2781.49 4081.13 2784.25C4081.13 2785.07 4081.13 2785.89 4081.14 2786.73C4081.14 2788.45 4081.13 2790.18 4081.13 2791.9C4081.13 2794.56 4081.13 2797.21 4081.14 2799.86C4081.14 2801.53 4081.13 2803.21 4081.13 2804.88C4081.14 2806.08 4081.14 2806.08 4081.14 2807.3C4081.11 2812.89 4081.11 2812.89 4080 2814C4079.74 2815.45 4079.53 2816.91 4079.35 2818.38C4079.17 2819.73 4079.17 2819.73 4078.99 2821.11C4078.75 2823.01 4078.51 2824.9 4078.28 2826.79C4077.58 2832.1 4076.51 2836.92 4074.7 2841.97C4073.7 2844.86 4073.13 2847.82 4072.5 2850.81C4067.64 2871.62 4058.39 2894.82 4047 2913C4045.98 2914.99 4044.98 2916.99 4044 2919C4043.27 2920.46 4042.54 2921.92 4041.81 2923.38C4040.33 2926.33 4038.86 2929.29 4037.39 2932.25C4033.27 2940.57 4029.06 2948.84 4024.8 2957.08C4023.9 2958.83 4023 2960.58 4022.1 2962.33C4019.03 2968.26 4015.83 2974.04 4012.34 2979.74C4010.74 2982.43 4009.35 2985.19 4007.98 2988C4006.16 2991.72 4004.19 2995.35 4002.25 2999C4001.84 2999.77 4001.43 3000.55 4001 3001.35C4000 3003.23 3999 3005.12 3998 3007C3997.34 3007 3996.68 3007 3996 3007C3995.88 3007.73 3995.77 3008.46 3995.65 3009.22C3994.99 3012.06 3994.06 3014.04 3992.59 3016.55C3992.1 3017.41 3991.61 3018.27 3991.1 3019.15C3990.57 3020.05 3990.04 3020.95 3989.5 3021.88C3988.69 3023.27 3988.69 3023.27 3987.87 3024.69C3983.33 3032.51 3978.69 3040.27 3974 3048C3972.13 3051.09 3970.31 3054.21 3968.56 3057.38C3966.41 3061.27 3964.22 3065.14 3962 3069C3961.34 3069 3960.68 3069 3960 3069C3959.92 3069.69 3959.83 3070.39 3959.75 3071.11C3958.81 3074.74 3957.15 3077.19 3955.06 3080.31C3954.24 3081.55 3953.42 3082.8 3952.61 3084.04C3951.96 3085.01 3951.96 3085.01 3951.31 3086C3949.11 3089.36 3946.99 3092.77 3944.88 3096.19C3941.5 3101.6 3938.11 3107.01 3934.66 3112.38C3933.46 3114.28 3932.26 3116.2 3931.09 3118.12C3930.15 3119.64 3930.15 3119.64 3929.19 3121.19C3928.62 3122.11 3928.06 3123.03 3927.48 3123.98C3926.99 3124.65 3926.5 3125.31 3926 3126C3925.34 3126 3924.68 3126 3924 3126C3923.92 3126.53 3923.84 3127.06 3923.75 3127.6C3922.72 3130.89 3920.89 3133.54 3919 3136.38C3918.19 3137.61 3917.37 3138.85 3916.56 3140.09C3916.14 3140.73 3915.72 3141.37 3915.28 3142.03C3913.99 3144.01 3912.73 3146.02 3911.47 3148.03C3911.07 3148.68 3910.66 3149.32 3910.25 3149.98C3909.47 3151.23 3908.69 3152.48 3907.92 3153.73C3907 3155.19 3906.01 3156.6 3905 3158C3904.34 3158 3903.68 3158 3903 3158C3902.75 3158.89 3902.5 3159.77 3902.25 3160.69C3900.94 3164.17 3899.43 3166.21 3897 3169C3894.05 3172.49 3891.93 3175.85 3890 3180C3889.34 3180 3888.68 3180 3888 3180C3887.69 3180.78 3887.38 3181.57 3887.06 3182.38C3886 3185 3886 3185 3885 3187C3884.34 3187 3883.68 3187 3883 3187C3882.74 3187.72 3882.48 3188.45 3882.22 3189.19C3880.94 3192.14 3879.43 3194.37 3877.5 3196.94C3874.29 3201.26 3871.12 3205.61 3868 3210C3857.53 3224.69 3846.71 3239.1 3835.76 3253.44C3832.74 3257.39 3829.74 3261.35 3826.76 3265.33C3824.56 3268.27 3822.31 3271.15 3820 3274C3815.45 3279.66 3810.93 3285.35 3806.44 3291.06C3805.97 3291.66 3805.5 3292.25 3805.02 3292.87C3802.93 3295.53 3800.85 3298.19 3798.81 3300.89C3798.19 3301.71 3797.57 3302.53 3796.94 3303.38C3796.41 3304.08 3795.88 3304.79 3795.34 3305.52C3794.9 3306.01 3794.46 3306.5 3794 3307C3793.34 3307 3792.68 3307 3792 3307C3791.85 3307.96 3791.85 3307.96 3791.69 3308.94C3791.46 3309.62 3791.23 3310.3 3791 3311C3789.51 3311.5 3789.51 3311.5 3788 3312C3787.88 3312.58 3787.75 3313.15 3787.62 3313.75C3786.7 3317.07 3784.45 3318.6 3782 3321C3780.4 3323.11 3778.85 3325.25 3777.33 3327.43C3776.67 3328.21 3776.67 3328.21 3776 3329C3775.34 3329 3774.68 3329 3774 3329C3773.34 3330.65 3772.68 3332.3 3772 3334C3771.34 3334 3770.68 3334 3770 3334C3769.75 3334.56 3769.5 3335.12 3769.24 3335.69C3767.8 3338.37 3766.09 3340.57 3764.19 3342.94C3763.52 3343.77 3762.85 3344.61 3762.17 3345.46C3759.9 3348.12 3757.47 3350.53 3755 3353C3753.02 3355.19 3751.1 3357.44 3749.19 3359.69C3748.67 3360.3 3748.14 3360.91 3747.61 3361.53C3743.78 3366.03 3740.1 3370.61 3736.52 3375.3C3736.02 3375.86 3735.52 3376.42 3735 3377C3734.34 3377 3733.68 3377 3733 3377C3732.74 3377.57 3732.48 3378.14 3732.22 3378.73C3730.89 3381.21 3729.35 3383.13 3727.5 3385.25C3726.89 3385.96 3726.28 3386.66 3725.66 3387.39C3724 3389 3724 3389 3722 3389C3721.76 3389.56 3721.51 3390.12 3721.26 3390.7C3719.76 3393.44 3717.93 3395.46 3715.81 3397.75C3715 3398.63 3714.2 3399.51 3713.36 3400.42C3712.58 3401.27 3711.8 3402.12 3711 3403C3709.83 3404.33 3708.66 3405.66 3707.5 3407C3695.03 3421.3 3695.03 3421.3 3691 3425C3690.34 3425 3689.68 3425 3689 3425C3688.74 3425.59 3688.48 3426.18 3688.21 3426.78C3686.92 3429.15 3685.52 3430.65 3683.56 3432.5C3681.56 3434.43 3679.85 3436.2 3678.19 3438.44C3677.8 3438.95 3677.4 3439.47 3677 3440C3676.34 3440 3675.68 3440 3675 3440C3674.64 3440.85 3674.64 3440.85 3674.27 3441.72C3672.74 3444.47 3670.89 3446.31 3668.64 3448.52C3667.77 3449.38 3666.9 3450.24 3666.01 3451.12C3665.1 3452.01 3664.19 3452.9 3663.25 3453.81C3657.58 3459.37 3652.08 3464.9 3647 3471C3645.35 3472.69 3643.69 3474.36 3642 3476C3641.13 3476.91 3640.27 3477.81 3639.38 3478.75C3637 3481 3637 3481 3634 3482C3634 3482.66 3634 3483.32 3634 3484C3633.34 3484 3632.68 3484 3632 3484C3631.73 3484.64 3631.46 3485.28 3631.19 3485.94C3630 3488 3630 3488 3627 3489C3626.32 3490.33 3625.65 3491.66 3625 3493C3623.27 3494.68 3623.27 3494.68 3621.25 3496.31C3618.58 3498.57 3616.21 3500.79 3614 3503.5C3611.36 3506.7 3608.45 3509.29 3605.29 3511.96C3601.93 3514.96 3598.8 3518.19 3595.68 3521.44C3594.49 3522.67 3593.25 3523.84 3592 3525C3591.34 3525 3590.68 3525 3590 3525C3590 3525.66 3590 3526.32 3590 3527C3589.34 3527 3588.68 3527 3588 3527C3588 3527.66 3588 3528.32 3588 3529C3586.43 3530.33 3586.43 3530.33 3584.31 3531.81C3580.84 3534.25 3577.96 3536.96 3575 3540C3566.27 3548.85 3557.32 3557.01 3547.61 3564.79C3544.92 3567.06 3542.48 3569.5 3540 3572C3538 3573.67 3536 3575.33 3534 3577C3533.2 3577.8 3532.39 3578.61 3531.56 3579.44C3529.53 3581.47 3527.47 3583.41 3525.31 3585.31C3524.73 3585.82 3524.15 3586.34 3523.55 3586.86C3522 3588 3522 3588 3520 3588C3519.5 3589.49 3519.5 3589.49 3519 3591C3516.95 3592.88 3516.95 3592.88 3514.25 3595C3513.25 3595.79 3512.26 3596.59 3511.23 3597.41C3510.71 3597.83 3510.18 3598.25 3509.63 3598.68C3506.88 3600.91 3504.19 3603.2 3501.5 3605.5C3496.72 3609.56 3491.91 3613.57 3487.04 3617.52C3484.64 3619.48 3482.25 3621.44 3479.86 3623.41C3478.41 3624.61 3476.95 3625.8 3475.5 3627C3474.8 3627.58 3474.11 3628.15 3473.39 3628.75C3472.41 3629.55 3472.41 3629.55 3471.41 3630.38C3470.82 3630.86 3470.24 3631.34 3469.63 3631.84C3468 3633 3468 3633 3465 3634C3465 3634.66 3465 3635.32 3465 3636C3463.39 3637.47 3463.39 3637.47 3461.25 3639.06C3460.55 3639.59 3459.86 3640.12 3459.14 3640.66C3457.04 3641.98 3455.38 3642.42 3453 3643C3451.72 3644.98 3451.72 3644.98 3451 3647C3450.01 3647 3449.02 3647 3448 3647C3447.5 3648.49 3447.5 3648.49 3447 3650C3445.48 3651.39 3445.48 3651.39 3443.54 3652.81C3442.84 3653.33 3442.14 3653.85 3441.42 3654.38C3440.68 3654.92 3439.95 3655.45 3439.19 3656C3438.1 3656.8 3438.1 3656.8 3436.99 3657.62C3435.63 3658.62 3434.27 3659.61 3432.91 3660.61C3431.55 3661.6 3430.21 3662.63 3428.88 3663.68C3427 3665 3427 3665 3425 3665C3425 3665.66 3425 3666.32 3425 3667C3423.02 3668.63 3423.02 3668.63 3420.25 3670.56C3416.27 3673.39 3412.33 3676.24 3408.44 3679.19C3402.74 3683.48 3396.96 3687.66 3391.16 3691.82C3386.98 3694.82 3382.84 3697.86 3378.73 3700.95C3377.86 3701.59 3377 3702.24 3376.11 3702.9C3374.44 3704.16 3372.77 3705.42 3371.11 3706.68C3370.35 3707.25 3369.59 3707.81 3368.82 3708.39C3368.15 3708.9 3367.48 3709.4 3366.8 3709.92C3365 3711 3365 3711 3362 3711C3361.5 3712.49 3361.5 3712.49 3361 3714C3356.67 3717 3356.67 3717 3354 3717C3354 3717.66 3354 3718.32 3354 3719C3352.02 3719.66 3350.04 3720.32 3348 3721C3348 3721.66 3348 3722.32 3348 3723C3345.95 3724.48 3345.95 3724.48 3343.12 3726.19C3339.36 3728.51 3335.67 3730.88 3332.06 3733.44C3311.48 3748 3311.48 3748 3308 3748C3308 3748.66 3308 3749.32 3308 3750C3306.28 3751.37 3306.28 3751.37 3303.94 3752.88C3303.18 3753.37 3302.43 3753.86 3301.65 3754.37C3299.78 3755.52 3297.88 3756.63 3295.96 3757.71C3290.42 3760.85 3285.1 3764.37 3279.75 3767.81C3277.6 3769.19 3275.45 3770.58 3273.3 3771.96C3272.25 3772.63 3271.2 3773.3 3270.12 3774C3267.09 3775.94 3264.05 3777.89 3261.02 3779.82C3260.17 3780.37 3259.32 3780.91 3258.45 3781.46C3255.98 3783.01 3253.5 3784.51 3251 3786C3249.69 3786.83 3248.37 3787.66 3247.06 3788.5C3238.27 3794 3238.27 3794 3235 3794C3235 3794.66 3235 3795.32 3235 3796C3234.16 3796.41 3233.32 3796.81 3232.45 3797.23C3228.8 3799.1 3225.31 3801.13 3221.81 3803.25C3221.16 3803.64 3220.51 3804.03 3219.84 3804.44C3214.89 3807.42 3210.05 3810.55 3205.27 3813.79C3203 3815 3203 3815 3199 3815C3198.5 3816.49 3198.5 3816.49 3198 3818C3194.44 3819.19 3194.44 3819.19 3191 3820C3191 3820.66 3191 3821.32 3191 3822C3190.39 3822.29 3189.79 3822.58 3189.16 3822.88C3184.7 3825.07 3180.36 3827.33 3176.12 3829.94C3172.71 3832.02 3169.29 3833.88 3165.69 3835.62C3159.81 3838.5 3154.17 3841.73 3148.5 3845C3141.88 3848.82 3135.27 3852.52 3128.38 3855.82C3125.92 3857 3125.92 3857 3123.39 3858.57C3121 3860 3121 3860 3117.81 3861.31C3114.82 3862.55 3112.17 3864.07 3109.43 3865.79C3104.23 3868.93 3098.88 3871.56 3093.38 3874.12C3085.05 3878.05 3076.79 3882.06 3068.56 3886.19C3067.56 3886.69 3066.56 3887.19 3065.52 3887.71C3061.1 3889.93 3056.69 3892.15 3052.29 3894.39C3046.13 3897.52 3040.01 3900.51 3033.55 3902.96C3030.87 3904.05 3028.34 3905.32 3025.77 3906.64C3018.69 3910.21 3011.48 3913.41 3004.23 3916.59C3002 3917.56 2999.78 3918.54 2997.55 3919.52C2990.19 3922.76 2982.81 3925.95 2975.36 3929C2972.51 3930.21 2969.76 3931.59 2967 3933C2965.34 3933.67 2963.67 3934.34 2962 3935C2960.04 3935.81 2958.08 3936.62 2956.12 3937.44C2955.14 3937.85 2954.15 3938.26 2953.13 3938.68C2951.02 3939.57 2948.91 3940.47 2946.8 3941.37C2911.85 3956.36 2911.85 3956.36 2895.5 3962.44C2894.4 3962.85 2894.4 3962.85 2893.28 3963.27C2889.94 3964.48 2887.61 3965 2884 3965C2884 3965.66 2884 3966.32 2884 3967C2883.13 3967.25 2882.26 3967.51 2881.37 3967.77C2879.64 3968.29 2879.64 3968.29 2877.88 3968.81C2876.74 3969.15 2875.6 3969.49 2874.43 3969.83C2871.1 3970.97 2868.13 3972.4 2865 3974C2862.67 3974.69 2860.34 3975.35 2858 3976C2856.12 3976.7 2854.23 3977.41 2852.35 3978.12C2844.55 3981.04 2836.66 3983.74 2828.79 3986.49C2826.51 3987.29 2824.23 3988.09 2821.95 3988.9C2818.64 3990.07 2815.33 3991.23 2812.02 3992.39C2810.5 3992.93 2810.5 3992.93 2808.95 3993.49C2804.17 3995.14 2800.13 3996.5 2795 3996C2795 3996.66 2795 3997.32 2795 3998C2793.5 3998.38 2793.5 3998.38 2791.96 3998.77C2790.62 3999.12 2789.28 3999.46 2787.94 3999.81C2787.28 3999.98 2786.62 4000.14 2785.95 4000.31C2782.6 4001.19 2779.47 4002.17 2776.31 4003.59C2773.37 4004.84 2771.21 4005.45 2768.06 4005.69C2767.29 4005.75 2766.52 4005.82 2765.72 4005.89C2765.15 4005.92 2764.59 4005.96 2764 4006C2764 4006.66 2764 4007.32 2764 4008C2763.46 4008.14 2762.92 4008.28 2762.37 4008.43C2759.89 4009.08 2757.41 4009.73 2754.94 4010.38C2754.09 4010.6 2753.24 4010.82 2752.37 4011.05C2751.53 4011.27 2750.7 4011.49 2749.84 4011.71C2748.7 4012.01 2748.7 4012.01 2747.54 4012.31C2742.1 4013.78 2736.71 4015.39 2731.32 4017.03C2720.95 4020.17 2710.54 4023.09 2700.07 4025.88C2697.5 4026.56 2694.93 4027.25 2692.36 4027.94C2683.64 4030.28 2674.91 4032.56 2666.16 4034.78C2664.93 4035.09 2664.93 4035.09 2663.68 4035.41C2659.14 4036.55 2654.66 4037.39 2650 4038C2648.59 4038.43 2647.19 4038.91 2645.81 4039.44C2642.22 4040.7 2638.76 4041.43 2635 4042C2631.42 4042.54 2628.15 4043.19 2624.75 4044.44C2619.9 4046.19 2614.91 4047.04 2609.85 4047.91C2606.68 4048.46 2603.62 4049.11 2600.53 4050C2596.6 4051.11 2592.71 4051.83 2588.69 4052.5C2584.22 4053.25 2579.76 4054.03 2575.32 4054.93C2550.12 4060 2524.88 4064.82 2499.52 4069.03C2497.4 4069.38 2495.28 4069.74 2493.17 4070.09C2472.02 4073.66 2472.02 4073.66 2462 4073C2462 4073.66 2462 4074.32 2462 4075C2450.1 4076.72 2438.22 4078.3 2426.23 4079.27C2422.14 4079.61 2418.19 4080.12 2414.18 4080.99C2408.3 4082.23 2402.42 4082.65 2396.44 4083.06C2384.38 4083.18 2384.38 4083.18 2373 4086C2371.37 4086.2 2369.73 4086.35 2368.09 4086.46C2366.56 4086.58 2366.56 4086.58 2365 4086.7C2363.89 4086.78 2362.78 4086.86 2361.64 4086.94C2359.93 4087.06 2359.93 4087.06 2358.19 4087.2C2354.55 4087.47 2350.9 4087.73 2347.25 4088C2343.62 4088.27 2339.98 4088.53 2336.35 4088.8C2334.08 4088.97 2331.82 4089.14 2329.56 4089.3C2328.52 4089.38 2327.49 4089.46 2326.42 4089.54C2325.52 4089.6 2324.61 4089.67 2323.68 4089.73C2320.96 4089.97 2320.96 4089.97 2318.12 4090.5C2314.62 4091.06 2311.19 4091.28 2307.65 4091.46C2306.94 4091.5 2306.22 4091.54 2305.49 4091.58C2303.14 4091.7 2300.8 4091.82 2298.45 4091.94C2296.79 4092.02 2295.13 4092.11 2293.48 4092.2C2289.99 4092.38 2286.51 4092.55 2283.02 4092.73C2278.64 4092.95 2274.25 4093.18 2269.86 4093.41C2266.43 4093.58 2262.99 4093.76 2259.56 4093.94C2257.94 4094.02 2256.33 4094.1 2254.72 4094.18C2250.01 4094.43 2245.3 4094.66 2240.59 4094.88C2238.8 4094.96 2237.02 4095.05 2235.24 4095.13C2218.07 4095.96 2200.92 4096.18 2183.73 4096.2C2181.52 4096.2 2179.31 4096.21 2177.1 4096.21C2170.06 4096.23 2163.02 4096.24 2155.99 4096.24C2148.87 4096.24 2141.75 4096.25 2134.63 4096.28C2092.44 4096.43 2050.47 4095.5 2008.34 4093.18C2000.42 4092.75 1992.49 4092.38 1984.56 4091.99C1967.26 4091.14 1967.26 4091.14 1963 4090C1961.55 4089.82 1960.09 4089.66 1958.63 4089.54C1957.76 4089.46 1956.89 4089.38 1955.99 4089.3C1955.05 4089.22 1954.1 4089.14 1953.12 4089.06C1951.65 4088.94 1951.65 4088.94 1950.14 4088.8C1944.05 4088.3 1937.97 4087.85 1931.88 4087.46C1930.86 4087.39 1930.86 4087.39 1929.81 4087.33C1926.44 4087.11 1923.06 4086.9 1919.68 4086.7C1917.83 4086.58 1917.83 4086.58 1915.95 4086.46C1914.85 4086.4 1913.75 4086.33 1912.62 4086.27C1910 4086 1910 4086 1908 4085C1905.64 4084.64 1903.3 4084.33 1900.94 4084.06C1900.21 4083.98 1899.49 4083.89 1898.74 4083.8C1890.55 4082.89 1882.33 4082.28 1874.12 4081.7C1873.08 4081.62 1872.04 4081.54 1870.97 4081.46C1870.03 4081.4 1869.1 4081.33 1868.14 4081.27C1866 4081 1866 4081 1865 4080C1863.01 4079.72 1861.01 4079.51 1859.02 4079.32C1857.15 4079.13 1857.15 4079.13 1855.24 4078.94C1853.91 4078.82 1852.58 4078.69 1851.25 4078.56C1823.94 4075.94 1823.94 4075.94 1822 4074C1819.34 4073.69 1816.69 4073.44 1814.03 4073.2C1801.77 4072 1789.69 4069.91 1777.56 4067.81C1775.22 4067.41 1772.88 4067.01 1770.54 4066.61C1750.71 4063.19 1730.95 4059.45 1711.24 4055.44C1706.96 4054.57 1702.68 4053.76 1698.39 4053C1697.45 4052.83 1696.51 4052.67 1695.54 4052.5C1693.62 4052.16 1691.7 4051.83 1689.77 4051.5C1688.84 4051.33 1687.91 4051.17 1686.95 4051C1686.12 4050.86 1685.29 4050.71 1684.43 4050.56C1681.81 4049.96 1679.49 4049 1677 4048C1675.59 4047.69 1674.18 4047.43 1672.75 4047.22C1671.98 4047.1 1671.2 4046.98 1670.41 4046.86C1669.22 4046.68 1669.22 4046.68 1668 4046.5C1663.01 4045.76 1658.69 4044.88 1654 4043C1650.6 4042.21 1647.18 4041.58 1643.75 4040.94C1641.93 4040.6 1640.11 4040.25 1638.3 4039.9C1637.5 4039.75 1636.7 4039.6 1635.87 4039.45C1634 4039 1634 4039 1633 4038C1630.95 4037.57 1628.89 4037.18 1626.83 4036.8C1616.31 4034.8 1606.02 4031.92 1595.69 4029.12C1593.74 4028.6 1591.79 4028.08 1589.85 4027.56C1580.22 4024.97 1570.6 4022.36 1561.01 4019.65C1554.89 4017.94 1548.73 4016.44 1542.55 4014.99C1538.86 4013.96 1535.52 4012.52 1532 4011C1529.95 4010.43 1527.89 4009.91 1525.81 4009.44C1522.22 4008.62 1519.28 4007.64 1516 4006C1514.05 4005.46 1512.09 4004.96 1510.12 4004.5C1506 4003.5 1502.01 4002.4 1498 4001C1495.62 4000.28 1493.24 3999.58 1490.86 3998.88C1483.71 3996.68 1476.65 3994.21 1469.57 3991.79C1467.79 3991.18 1466.01 3990.57 1464.22 3989.96C1461.46 3989.01 1458.69 3988.06 1455.93 3987.12C1442.13 3982.4 1442.13 3982.4 1428.31 3977.77C1423.29 3976.09 1418.43 3974.21 1413.62 3972C1409.71 3970.23 1405.79 3968.95 1401.65 3967.81C1395.11 3965.81 1388.76 3963.14 1382.4 3960.64C1381.6 3960.32 1380.8 3960.01 1379.98 3959.68C1378.29 3959.02 1376.61 3958.36 1374.93 3957.69C1372.4 3956.7 1369.88 3955.71 1367.35 3954.71C1358.81 3951.35 1350.32 3947.91 1341.9 3944.26C1334.71 3941.14 1327.46 3938.38 1320 3936C1320 3935.34 1320 3934.68 1320 3934C1319.41 3933.89 1318.82 3933.78 1318.21 3933.67C1317.42 3933.51 1316.63 3933.35 1315.81 3933.19C1315.04 3933.04 1314.26 3932.89 1313.46 3932.73C1311 3932 1311 3932 1308.7 3930.59C1305.96 3928.98 1303.34 3927.92 1300.36 3926.84C1292.31 3923.82 1284.55 3920.25 1276.76 3916.63C1274.31 3915.5 1271.85 3914.37 1269.4 3913.24C1262.17 3909.91 1254.96 3906.57 1247.88 3902.94C1244.98 3901.49 1241.99 3900.26 1239 3899C1235.32 3897.36 1231.66 3895.68 1228 3894C1226.35 3893.24 1226.35 3893.24 1224.66 3892.47C1209.69 3885.57 1195 3878.13 1180.44 3870.4C1175.66 3867.86 1170.85 3865.4 1166 3863C1159.33 3859.67 1152.67 3856.33 1146 3853C1146 3852.34 1146 3851.68 1146 3851C1145.3 3850.9 1144.59 3850.79 1143.86 3850.68C1140.61 3849.91 1138.12 3848.65 1135.18 3847.05C1134.06 3846.45 1132.95 3845.85 1131.81 3845.23C1130.65 3844.6 1129.5 3843.96 1128.31 3843.31C1127.18 3842.7 1126.05 3842.09 1124.88 3841.46C1118.84 3838.17 1112.88 3834.79 1107.01 3831.21C1104.41 3829.65 1101.74 3828.31 1099 3827C1097.21 3826.11 1095.42 3825.21 1093.62 3824.31C1092.75 3823.88 1091.88 3823.44 1090.98 3822.99C1090 3822.5 1090 3822.5 1089 3822C1089 3821.34 1089 3820.68 1089 3820C1087.69 3819.6 1087.69 3819.6 1086.36 3819.2C1083.03 3818.01 1080.24 3816.58 1077.18 3814.8C1076.1 3814.17 1075.01 3813.54 1073.89 3812.9C1072.18 3811.9 1072.18 3811.9 1070.44 3810.88C1069.26 3810.19 1068.08 3809.5 1066.9 3808.82C1059.2 3804.33 1051.54 3799.76 1044 3795C1042.56 3794.1 1041.13 3793.21 1039.69 3792.31C1037.84 3791.16 1036 3790 1034.16 3788.83C1030.28 3786.38 1026.35 3784.04 1022.37 3781.75C1016.05 3778.08 1009.93 3774.15 1003.8 3770.17C1001.37 3768.59 998.932 3767.03 996.492 3765.47C992.177 3762.7 987.872 3759.93 983.625 3757.06C980.364 3754.87 977.041 3752.79 973.69 3750.73C963.952 3744.74 954.621 3738.23 945.294 3731.62C942.085 3729.35 938.858 3727.11 935.625 3724.88C934.668 3724.21 933.712 3723.55 932.727 3722.87C927.032 3718.95 927.032 3718.95 921.125 3715.38C920.424 3714.92 919.722 3714.47 919 3714C919 3713.34 919 3712.68 919 3712C918.237 3711.71 917.474 3711.42 916.687 3711.12C914 3710 914 3710 911 3708C911 3707.34 911 3706.68 911 3706C910.479 3705.93 909.958 3705.86 909.422 3705.79C905.912 3704.64 903.19 3702.48 900.25 3700.31C899.311 3699.63 899.311 3699.63 898.352 3698.93C894.522 3696.14 890.721 3693.32 886.953 3690.44C883.679 3688.03 880.288 3685.78 876.906 3683.52C876.277 3683.02 875.648 3682.52 875 3682C875 3681.34 875 3680.68 875 3680C874.336 3679.78 873.672 3679.57 872.988 3679.34C868.996 3677.55 865.694 3675.1 862.187 3672.5C861.495 3672 860.802 3671.5 860.088 3670.99C859.434 3670.51 858.779 3670.03 858.105 3669.53C857.509 3669.09 856.912 3668.66 856.298 3668.21C855.869 3667.81 855.441 3667.41 855 3667C855 3666.34 855 3665.68 855 3665C853.886 3664.6 853.886 3664.6 852.75 3664.19C850.041 3663.02 848.241 3661.78 846.004 3659.88C845.28 3659.28 844.556 3658.67 843.81 3658.04C842.698 3657.09 842.698 3657.09 841.562 3656.12C836.841 3652.13 832.165 3648.42 827 3645C824.208 3642.82 821.479 3640.57 818.75 3638.31C817.329 3637.14 815.908 3635.97 814.484 3634.8C813.863 3634.29 813.241 3633.77 812.601 3633.24C811.008 3631.92 811.008 3631.92 809 3631C809 3630.34 809 3629.68 809 3629C808.299 3628.77 807.597 3628.55 806.875 3628.31C803.259 3626.66 800.912 3624.71 798 3622C798 3621.34 798 3620.68 798 3620C797.415 3619.73 796.831 3619.46 796.228 3619.18C794.013 3618.01 792.271 3616.73 790.348 3615.13C789.66 3614.56 788.972 3613.99 788.263 3613.4C787.537 3612.8 786.811 3612.19 786.062 3611.56C785.31 3610.94 784.557 3610.31 783.781 3609.67C781.517 3607.78 779.257 3605.89 777 3604C776.362 3603.47 775.723 3602.93 775.065 3602.38C766.983 3595.6 758.995 3588.72 751.187 3581.62C745.161 3576.18 738.902 3571.03 732.488 3566.05C729.813 3563.85 727.434 3561.47 725 3559C723.03 3557.15 721.054 3555.32 719.062 3553.5C718.563 3553.04 718.063 3552.58 717.549 3552.11C714.968 3549.74 712.354 3547.47 709.621 3545.28C708.756 3544.53 707.891 3543.78 707 3543C707 3542.34 707 3541.68 707 3541C706.116 3540.59 706.116 3540.59 705.215 3540.18C699.698 3537.25 695.372 3532.37 691 3528C689.546 3526.82 689.546 3526.82 688.062 3525.62C685.117 3523.23 682.799 3520.5 680.391 3517.57C678.782 3515.75 676.955 3514.43 675 3513C675 3512.34 675 3511.68 675 3511C674.174 3510.67 674.174 3510.67 673.332 3510.33C670.25 3508.57 668.15 3506.3 665.687 3503.75C662.628 3500.61 659.578 3497.53 656.187 3494.75C653.283 3492.35 650.986 3489.68 648.594 3486.78C646.871 3484.86 645.034 3483.23 643.062 3481.56C639.524 3478.56 636.575 3475.3 633.582 3471.77C631.953 3469.85 631.953 3469.85 629.5 3468C626.505 3465.6 624.19 3462.87 621.703 3459.96C619.041 3456.9 616.157 3454.08 613.187 3451.31C612 3450 612 3450 612 3448C611.041 3447.6 611.041 3447.6 610.062 3447.19C608 3446 608 3446 607 3443C605.676 3442.31 604.342 3441.65 603 3441C601.394 3439.37 601.394 3439.37 599.812 3437.44C597.167 3434.31 594.424 3431.37 591.5 3428.5C586.47 3423.53 581.861 3418.27 577.375 3412.81C575.054 3409.98 575.054 3409.98 572.5 3407.5C569.805 3404.81 567.439 3401.93 565 3399C562.772 3396.72 560.521 3394.49 558.187 3392.31C557 3391 557 3391 557 3389C556.01 3388.67 555.02 3388.34 554 3388C549 3382.53 549 3382.53 549 3380C548.43 3379.78 547.86 3379.55 547.273 3379.32C544.323 3377.61 542.732 3375.49 540.625 3372.81C539.836 3371.82 539.047 3370.83 538.234 3369.81C537.497 3368.88 536.76 3367.96 536 3367C532.892 3363.28 529.692 3359.65 526.5 3356C525.921 3355.34 525.342 3354.67 524.746 3353.99C523.577 3352.66 522.403 3351.33 521.223 3350.01C520.675 3349.39 520.127 3348.77 519.562 3348.12C518.822 3347.29 518.822 3347.29 518.066 3346.45C517 3345 517 3345 517 3343C516.34 3343 515.68 3343 515 3343C513.459 3341.3 511.991 3339.54 510.562 3337.75C509.78 3336.78 508.998 3335.8 508.191 3334.8C507.107 3333.41 507.107 3333.41 506 3332C505.116 3330.89 505.116 3330.89 504.215 3329.77C503 3328 503 3328 503 3326C502.147 3325.68 502.147 3325.68 501.277 3325.35C498.203 3323.53 496.68 3321.25 494.562 3318.38C493.682 3317.2 492.799 3316.02 491.914 3314.84C491.445 3314.22 490.976 3313.6 490.493 3312.95C487.88 3309.54 485.158 3306.21 482.437 3302.88C481.889 3302.2 481.341 3301.53 480.777 3300.83C478.265 3297.75 475.74 3294.68 473.172 3291.64C472.352 3290.67 471.532 3289.69 470.687 3288.69C469.969 3287.85 469.251 3287 468.512 3286.14C467 3284 467 3284 467 3281C466.415 3280.77 465.829 3280.54 465.227 3280.3C462.424 3278.66 461.213 3276.86 459.375 3274.19C456.359 3269.9 453.276 3265.7 450.062 3261.56C445.741 3255.98 441.486 3250.34 437.26 3244.68C435.849 3242.8 434.433 3240.92 433.016 3239.04C428.119 3232.55 423.261 3226.05 418.641 3219.36C416.797 3216.71 414.903 3214.1 413 3211.5C410.321 3207.82 407.644 3204.14 405 3200.44C404.134 3199.23 404.134 3199.23 403.25 3198C402 3196 402 3196 402 3194C401.34 3194 400.68 3194 400 3194C398.555 3191.98 398.555 3191.98 396.875 3189.19C394.377 3185.14 391.779 3181.25 388.937 3177.44C385.769 3173.15 382.991 3168.76 380.316 3164.16C378.943 3161.8 378.943 3161.8 376.687 3159.12C375.008 3157.01 374.392 3155.64 374 3153C373.34 3153 372.68 3153 372 3153C370.388 3150.65 368.899 3148.31 367.437 3145.88C366.544 3144.41 365.649 3142.95 364.754 3141.48C364.299 3140.74 363.844 3139.99 363.375 3139.22C360.895 3135.21 358.3 3131.27 355.693 3127.34C353 3123.22 353 3123.22 353 3121C352.34 3121 351.68 3121 351 3121C347.295 3115.55 344.129 3109.78 340.943 3104.01C338.906 3100.38 336.623 3097.22 334 3094C333.191 3092.65 332.418 3091.27 331.687 3089.88C328.283 3083.58 324.371 3077.61 320.441 3071.63C319.986 3070.93 319.531 3070.22 319.062 3069.5C318.461 3068.59 318.461 3068.59 317.848 3067.66C317 3066 317 3066 317 3063C316.34 3063 315.68 3063 315 3063C314.381 3061.87 313.762 3060.73 313.125 3059.56C310.659 3055.12 308.089 3050.75 305.5 3046.38C300.767 3038.38 296.186 3030.3 291.643 3022.19C288.58 3016.74 285.428 3011.38 282.093 3006.09C281 3004 281 3004 281 3001C280.34 3001 279.68 3001 279 3001C277.792 2998.58 276.584 2996.17 275.379 2993.75C274.52 2992.04 273.654 2990.33 272.777 2988.62C270 2983.21 270 2983.21 270 2981C269.34 2981 268.68 2981 268 2981C267.573 2980.14 267.147 2979.27 266.707 2978.38C262.439 2969.77 258.061 2961.21 253.625 2952.69C252.786 2951.07 252.786 2951.07 251.93 2949.43C249.39 2944.56 246.841 2939.69 244.258 2934.84C239.706 2926.29 235.356 2917.69 231.253 2908.91C228.91 2903.9 226.496 2898.94 224 2894C220.651 2887.37 217.459 2880.67 214.298 2873.95C211.466 2867.94 208.525 2862 205.508 2856.08C203.115 2851.19 201.048 2846.19 199.062 2841.12C196.692 2835.18 194.194 2829.32 191.266 2823.62C188.149 2817.42 185.488 2811 182.75 2804.62C181.594 2801.94 180.436 2799.25 179.277 2796.57C178.994 2795.91 178.711 2795.25 178.42 2794.58C175.802 2788.52 173.119 2782.49 170.36 2776.49C168.507 2772.4 167.188 2768.33 166 2764C165.034 2761.98 164.033 2759.98 163 2758C160.773 2753.06 158.887 2748.04 157.062 2742.94C154.652 2736.27 152.1 2729.65 149.531 2723.04C148.871 2721.33 148.211 2719.63 147.551 2717.92C146.526 2715.27 145.5 2712.62 144.47 2709.98C143.466 2707.4 142.467 2704.81 141.469 2702.23C141.014 2701.06 141.014 2701.06 140.55 2699.87C138.681 2695.02 137.082 2690.13 135.635 2685.14C134.91 2682.7 134.041 2680.35 133.062 2678C132.725 2677.18 132.387 2676.35 132.039 2675.5C131.696 2674.68 131.353 2673.85 131 2673C127.278 2663.92 124.227 2654.76 121.32 2645.38C119.229 2638.67 117.062 2631.99 114.896 2625.31C108.366 2605.15 101.951 2584.95 96.0546 2564.59C95.0191 2561.07 93.9218 2557.56 92.8124 2554.06C91.3853 2549.48 90.353 2544.96 89.4921 2540.25C89.023 2538.11 88.3836 2536.22 87.5624 2534.19C85.8051 2529.79 84.8456 2525.28 83.8203 2520.66C82.9082 2516.59 81.9369 2512.54 80.9374 2508.5C80.7751 2507.83 80.6128 2507.16 80.4455 2506.47C79.7824 2503.8 79.0931 2501.22 78.0344 2498.68C76.8771 2495.68 76.1736 2492.75 75.4843 2489.61C75.2057 2488.36 74.9271 2487.1 74.6401 2485.81C74.495 2485.15 74.3501 2484.49 74.2006 2483.8C73.4319 2480.3 72.6494 2476.8 71.8671 2473.3C71.7097 2472.59 71.5522 2471.88 71.39 2471.16C69.9563 2464.75 68.4284 2458.38 66.8749 2452C63.436 2437.84 60.2963 2423.61 57.4599 2409.32C57.0523 2407.26 56.6361 2405.21 56.2187 2403.16C54.8424 2396.39 53.5589 2389.62 52.5273 2382.78C52.0245 2379.88 52.0245 2379.88 51.0038 2376.63C49.6333 2371.67 49.1467 2366.72 48.5624 2361.62C48.1248 2358.09 48.1248 2358.09 47.0312 2355.21C45.5551 2350.62 45.085 2345.97 44.4999 2341.19C44.2642 2339.28 44.0247 2337.38 43.7812 2335.48C43.6787 2334.64 43.5762 2333.81 43.4706 2332.95C43.0827 2330.52 42.5952 2328.18 42.0397 2325.79C40.9196 2320.85 40.2262 2315.9 39.582 2310.89C39.3231 2308.93 39.0634 2306.97 38.8032 2305.02C38.605 2303.52 38.6051 2303.52 38.4029 2301.99C37.7615 2297.23 37.0738 2292.47 36.3867 2287.71C33.2342 2265.73 30.2719 2243.74 27.6874 2221.69C27.5646 2220.64 27.4418 2219.6 27.3152 2218.53C22.9563 2181.35 22.9563 2181.35 22.4374 2165.31C22.3777 2163.56 22.3142 2161.8 22.246 2160.05C22.2221 2159.32 22.1982 2158.58 22.1735 2157.82C22.101 2155.9 22.101 2155.9 20.9999 2154C20.7237 2151.65 20.5006 2149.31 20.3163 2146.95C20.2566 2146.21 20.1968 2145.48 20.1352 2144.71C19.9378 2142.23 19.7493 2139.74 19.5624 2137.25C19.4968 2136.39 19.4312 2135.54 19.3636 2134.66C17.9224 2115.61 17.2434 2096.53 16.6467 2077.44C16.5915 2075.73 16.5914 2075.73 16.5351 2073.99C16.4663 2071.85 16.4017 2069.7 16.3416 2067.55C16.3112 2066.6 16.2808 2065.64 16.2495 2064.66C16.2252 2063.83 16.201 2063 16.176 2062.14C16.0701 2059.81 16.07 2059.81 14.9999 2057C14.9054 2054.71 14.8737 2052.42 14.873 2050.14C14.8714 2049.43 14.8698 2048.73 14.8682 2048.01C14.8642 2045.65 14.8674 2043.29 14.8705 2040.93C14.8692 2039.25 14.8674 2037.56 14.8652 2035.87C14.8606 2031.28 14.8625 2026.69 14.8657 2022.1C14.8682 2017.3 14.8658 2012.5 14.8642 2007.7C14.8624 1999.63 14.8648 1991.57 14.8696 1983.51C14.875 1974.18 14.8732 1964.86 14.8677 1955.53C14.8632 1947.53 14.8626 1939.53 14.8652 1931.53C14.8667 1926.75 14.8669 1921.97 14.8636 1917.19C14.8607 1912.69 14.8628 1908.19 14.8686 1903.7C14.8699 1902.05 14.8695 1900.4 14.8673 1898.75C14.8645 1896.49 14.868 1894.24 14.873 1891.99C14.8734 1890.73 14.8737 1889.47 14.8741 1888.17C14.978 1885.55 15.2641 1883.49 15.9999 1881C16.123 1879.47 16.2026 1877.94 16.2495 1876.41C16.2799 1875.49 16.3103 1874.58 16.3416 1873.64C16.3707 1872.65 16.3997 1871.66 16.4296 1870.64C16.5016 1868.49 16.574 1866.34 16.6467 1864.18C16.6837 1863.05 16.7206 1861.92 16.7587 1860.75C17.367 1842.41 18.1693 1824.11 19.5624 1805.81C19.6265 1804.95 19.6904 1804.09 19.7564 1803.2C19.9366 1800.81 20.1244 1798.41 20.3163 1796.02C20.3975 1794.96 20.3975 1794.96 20.4803 1793.88C20.8828 1789.12 20.8828 1789.12 21.9999 1788C22.1863 1786.1 22.3084 1784.19 22.4055 1782.28C22.5072 1780.44 22.5071 1780.44 22.6109 1778.57C22.6464 1777.91 22.682 1777.24 22.7186 1776.56C23.644 1759.7 25.3968 1742.98 27.4277 1726.21C27.6924 1724.02 27.9536 1721.83 28.2141 1719.64C31.0591 1695.71 34.292 1671.86 37.942 1648.05C38.7228 1642.93 39.4384 1637.81 40.1015 1632.68C40.7261 1627.89 41.4678 1623.21 42.4999 1618.5C43.826 1612.16 44.7316 1605.87 45.4726 1599.44C45.9999 1596 45.9999 1596 46.9648 1592.69C48.4764 1587.3 49.1102 1581.83 49.8554 1576.3C50.513 1571.62 51.4951 1567.48 52.9999 1563C53.759 1558.99 54.2891 1554.94 54.8554 1550.9C54.9753 1550.09 55.0952 1549.27 55.2187 1548.43C55.3212 1547.7 55.4237 1546.97 55.5292 1546.22C55.9999 1544 55.9999 1544 56.999 1541.56C58.0578 1538.85 58.444 1536.52 58.7968 1533.64C60.2998 1523.23 62.8642 1513.04 65.2499 1502.81C65.7504 1500.65 66.2505 1498.49 66.7502 1496.33C67.7268 1492.11 68.7057 1487.89 69.686 1483.68C70.7791 1478.96 71.8556 1474.25 72.9179 1469.53C75.0618 1460.04 77.223 1450.67 80.2656 1441.41C81.2078 1438.32 81.5604 1435.2 81.9999 1432C82.7125 1430.12 83.4276 1428.24 84.1757 1426.38C85.5681 1422.36 86.3729 1418.21 87.2538 1414.05C87.9487 1411.21 88.9141 1408.71 89.9999 1406C90.5357 1403.88 91.0339 1401.76 91.4999 1399.63C92.5311 1395.03 93.6386 1390.51 94.9999 1386C95.5002 1384.33 96.0002 1382.67 96.4999 1381C96.8557 1379.82 96.8557 1379.82 97.2187 1378.63C97.7743 1376.76 98.3122 1374.89 98.8381 1373.01C100.255 1368.05 101.82 1363.13 103.371 1358.2C104.035 1356.09 104.698 1353.97 105.361 1351.86C106.398 1348.56 107.436 1345.26 108.475 1341.95C109.484 1338.75 110.49 1335.54 111.496 1332.33C111.956 1330.87 111.956 1330.87 112.424 1329.39C114.192 1323.74 115.824 1318.08 117.32 1312.36C118.257 1309.11 119.649 1306.1 121 1303C121.798 1300.52 122.529 1298.02 123.258 1295.52C125.464 1288.02 128.167 1280.69 130.816 1273.33C131.917 1270.23 132.971 1267.12 134 1264C134.66 1264 135.32 1264 136 1264C136.099 1262.87 136.198 1261.73 136.3 1260.57C136.911 1255.73 138.447 1251.46 140.203 1246.93C140.523 1246.08 140.842 1245.23 141.172 1244.36C142.19 1241.68 143.22 1238.99 144.25 1236.31C144.927 1234.53 145.602 1232.75 146.277 1230.97C148.68 1224.64 151.102 1218.32 153.542 1212.01C153.985 1210.86 154.427 1209.71 154.883 1208.54C155.446 1207.09 155.446 1207.09 156.02 1205.61C157.215 1202.43 158.272 1199.22 159.316 1195.99C159.983 1194.05 160.74 1192.19 161.562 1190.31C162.894 1187.25 163.99 1184.19 165 1181C165.66 1181 166.32 1181 167 1181C167.305 1179.23 167.305 1179.23 167.617 1177.43C169.199 1170.33 172.261 1163.77 175.125 1157.13C175.715 1155.74 176.305 1154.35 176.894 1152.97C178.058 1150.23 179.225 1147.5 180.395 1144.76C181.779 1141.52 183.143 1138.28 184.496 1135.03C184.852 1134.17 185.209 1133.32 185.576 1132.44C186.206 1130.92 186.836 1129.4 187.463 1127.89C189.187 1123.77 191.065 1119.77 193.099 1115.8C195.691 1110.63 197.733 1105.2 199.84 1099.82C203.308 1091.39 207.275 1083.2 211.25 1075C215.382 1066.46 219.501 1057.91 223.464 1049.29C224.864 1046.27 226.346 1043.35 228.027 1040.48C229.996 1037.1 231.49 1033.61 233 1030C240.825 1012.83 249.468 996.114 258.808 979.721C261.89 974.281 264.685 968.727 267.445 963.117C269.499 959 271.726 954.999 274 951C274.835 949.501 275.668 948.001 276.5 946.5C277.726 944.293 278.952 942.086 280.18 939.88C282.202 936.244 284.219 932.606 286.219 928.957C290.949 920.349 295.814 911.831 300.812 903.375C301.351 902.464 301.89 901.552 302.445 900.613C305.217 895.943 308.031 891.308 310.947 886.727C312.468 884.233 313.748 881.637 315 879C315.66 879 316.32 879 317 879C317.083 878.029 317.083 878.029 317.168 877.039C318.38 872.613 320.814 869.192 323.312 865.375C324.402 863.68 325.492 861.985 326.582 860.289C327.145 859.419 327.708 858.55 328.288 857.653C331.052 853.37 333.776 849.06 336.5 844.75C336.991 843.977 337.483 843.204 337.989 842.408C340.782 838.001 343.448 833.551 346 829C346.66 829 347.32 829 348 829C348.261 828.12 348.522 827.239 348.791 826.332C349.986 823.039 351.383 820.581 353.344 817.692C354.009 816.704 354.673 815.716 355.358 814.699C356.065 813.664 356.772 812.629 357.5 811.563C358.953 809.412 360.406 807.261 361.859 805.109C362.568 804.066 363.276 803.023 364.006 801.947C365.732 799.396 367.443 796.836 369.141 794.266C369.59 793.586 370.039 792.906 370.502 792.205C371.304 790.989 372.105 789.772 372.904 788.555C374.54 786.087 376.221 783.726 378.078 781.418C379.972 779.036 381.479 776.632 383 774C387.027 767.455 391.269 761.138 395.828 754.953C398.269 751.635 400.67 748.29 403.062 744.938C403.489 744.34 403.916 743.742 404.356 743.126C406.782 739.725 409.182 736.308 411.562 732.875C414.739 728.321 418.071 723.895 421.418 719.465C424.486 715.375 427.456 711.216 430.437 707.063C435.813 699.587 441.344 692.265 447 685C447.854 683.889 448.707 682.777 449.559 681.664C453.961 675.913 458.414 670.211 462.957 664.57C465.238 661.7 467.463 658.79 469.687 655.875C475.622 648.112 481.81 640.559 488 633C488.829 631.986 489.658 630.971 490.512 629.926C493.485 626.288 496.463 622.654 499.445 619.024C500.247 618.046 501.049 617.069 501.875 616.063C502.594 615.187 503.314 614.312 504.055 613.41C505.296 611.873 506.494 610.299 507.633 608.684C508.084 608.128 508.535 607.573 509 607C509.66 607 510.32 607 511 607C511.228 606.463 511.456 605.925 511.691 605.371C513.401 602.273 515.63 599.722 517.937 597.063C518.924 595.91 519.911 594.758 520.898 593.606C521.407 593.014 521.916 592.423 522.44 591.814C524.993 588.845 527.529 585.861 530.062 582.875C530.527 582.331 530.992 581.787 531.47 581.227C533.465 578.88 535.289 576.567 537 574C537.66 574 538.32 574 539 574C539.269 573.409 539.537 572.817 539.814 572.208C541.005 569.991 542.235 568.483 543.977 566.68C544.561 566.067 545.146 565.454 545.748 564.822C546.677 563.858 546.677 563.858 547.625 562.875C552.482 557.766 557.072 552.587 561.394 547.012C563.415 544.48 565.679 542.256 568 540C568.722 539.072 569.444 538.144 570.187 537.188C570.786 536.466 571.384 535.744 572 535C572.66 535 573.32 535 574 535C574 534.34 574 533.68 574 533C574.66 533 575.32 533 576 533C576.233 532.438 576.467 531.876 576.707 531.297C578.319 528.433 580.319 526.528 582.687 524.25C586.411 520.606 589.905 516.886 593.289 512.93C595.742 510.163 598.386 507.605 601.019 505.012C603.56 502.431 605.919 499.718 608.262 496.957C609.923 495.087 611.663 493.324 613.436 491.559C615.241 489.76 617.039 487.954 618.837 486.147C622.804 482.162 626.774 478.18 630.746 474.199C632.452 472.488 634.158 470.775 635.863 469.062C638.34 466.573 640.82 464.087 643.301 461.602C644.053 460.844 644.805 460.087 645.581 459.306C649.669 455.217 653.854 451.319 658.234 447.544C660.475 445.585 662.571 443.51 664.648 441.379C665.426 440.589 666.203 439.8 667.004 438.986C668.61 437.345 670.214 435.702 671.816 434.057C672.586 433.276 673.355 432.496 674.148 431.692C674.841 430.982 675.534 430.272 676.247 429.541C678 428 678 428 680 428C680 427.34 680 426.68 680 426C681.644 424.379 681.644 424.379 683.812 422.563C686.825 420.027 686.825 420.027 689.637 417.277C691 416 691 416 693 416C693.33 415.01 693.66 414.02 694 413C695.742 411.281 695.742 411.281 697.875 409.5C700.854 406.997 700.854 406.997 703.633 404.281C705 403 705 403 707 403C707 402.34 707 401.68 707 401C708.461 399.492 708.461 399.492 710.375 397.875C711.315 397.067 711.315 397.067 712.273 396.242C714 395 714 395 716 395C716.241 394.411 716.482 393.822 716.73 393.215C718.244 390.575 719.859 389.348 722.312 387.563C724.873 385.644 727.17 383.83 729.437 381.563C731.849 379.151 734.324 377.108 737 375C740.577 372.178 743.818 369.266 747 366C748.384 364.716 749.78 363.446 751.187 362.188C751.862 361.583 752.536 360.978 753.23 360.356C755 359 755 359 757 359C757.33 358.01 757.66 357.02 758 356C761.444 353 761.444 353 764 353C764 352.34 764 351.68 764 351C765.658 349.987 767.327 348.989 769 348C769.722 347.278 770.444 346.556 771.187 345.813C772.085 344.915 772.085 344.915 773 344C773.66 344 774.32 344 775 344C775.205 343.438 775.41 342.876 775.621 342.297C777.503 339.163 780.154 337.36 783.062 335.25C787.075 332.257 790.975 329.242 794.687 325.875C797.813 323.043 800.986 320.298 804.25 317.625C805.039 316.978 805.828 316.331 806.641 315.664C809 314 809 314 811.734 312.961C812.482 312.644 813.23 312.327 814 312C814.33 311.01 814.66 310.02 815 309C816.325 308.316 817.659 307.65 819 307C819.66 306.01 820.32 305.02 821 304C822.652 302.977 824.321 301.98 826 301C827.711 299.654 829.397 298.277 831.062 296.875C835.896 292.87 840.844 289.071 845.883 285.328C849.196 282.854 852.477 280.34 855.75 277.813C862.106 272.912 868.499 268.082 875 263.375C879.644 260.01 884.233 256.577 888.812 253.125C894.041 249.189 899.299 245.303 904.625 241.5C905.458 240.905 905.458 240.905 906.308 240.297C908.897 238.458 911.507 236.664 914.152 234.906C917.134 232.91 919.951 230.77 922.777 228.563C925.15 226.894 927.633 225.504 930.16 224.085C933.179 222.305 935.984 220.252 938.812 218.188C940.036 217.304 941.26 216.422 942.484 215.539C943.079 215.109 943.674 214.679 944.287 214.235C946.701 212.495 949.129 210.775 951.562 209.063C952.306 208.538 953.05 208.013 953.816 207.473C960.448 203 960.448 203 963 203C963 202.34 963 201.68 963 201C964.434 199.922 964.434 199.922 966.437 198.75C970.258 196.462 973.951 194.037 977.629 191.527C980.085 189.945 982.612 188.52 985.155 187.082C988.237 185.275 991.172 183.258 994.125 181.25C999.101 177.906 1004.1 174.609 1009.19 171.438C1010.72 170.477 1010.72 170.477 1012.29 169.496C1014.61 168.215 1016.41 167.451 1019 167C1019 166.34 1019 165.68 1019 165C1024.75 162 1024.75 162 1027 162C1027 161.34 1027 160.68 1027 160C1027.52 159.746 1028.04 159.492 1028.57 159.231C1029.27 158.886 1029.97 158.542 1030.69 158.188C1031.37 157.851 1032.06 157.515 1032.76 157.168C1037.51 154.691 1041.98 151.752 1046.49 148.875C1054.32 143.882 1062.2 139.056 1070.31 134.524C1072.25 133.424 1074.14 132.237 1076 131C1076.99 131 1077.98 131 1079 131C1079 130.34 1079 129.68 1079 129C1081.97 128.01 1084.94 127.02 1088 126C1088 125.34 1088 124.68 1088 124C1088.49 123.732 1088.97 123.464 1089.48 123.188C1094.3 120.521 1099.09 117.806 1103.88 115.063C1119.62 106.043 1135.72 97.6584 1151.76 89.1842C1154.04 87.9782 1156.32 86.7686 1158.6 85.5587C1167.55 80.8149 1176.55 76.1968 1185.63 71.6976C1191.99 68.5332 1198.28 65.2466 1204.53 61.8671C1207.96 60.0241 1211.37 58.3975 1215 57.0001C1216.49 56.2893 1217.97 55.5593 1219.44 54.8126C1220.32 54.3705 1221.19 53.9283 1222.1 53.4728C1224.09 52.4636 1226.07 51.4504 1228.06 50.4337C1235.48 46.6642 1242.99 43.1597 1250.6 39.7721C1259.6 35.7584 1268.52 31.5968 1277.44 27.4293C1285.72 23.5697 1293.92 19.9665 1302.55 16.965C1305.19 16.0239 1305.19 16.0239 1308 14.0001C1309.69 13.4699 1311.4 12.9964 1313.12 12.5626C1316.55 11.6686 1319.91 10.7311 1323.25 9.56261C1329.75 7.37197 1336.33 5.58913 1343 4.00011C1343.75 3.81239 1344.51 3.62467 1345.28 3.43127C1370.41 -2.61449 1401.1 -3.38144 1426 4.00011Z" fill="#524538"/>
</g>
<defs>
<clipPath id="clip0_19_9">
<rect width="4096" height="4096" fill="white"/>
</clipPath>
</defs>
</svg>
