<svg width="4096" height="4096" viewBox="0 0 4096 4096" fill="none" xmlns="http://www.w3.org/2000/svg">
<g clip-path="url(#clip0_19_12)">
<path d="M1385.56 -0.375378C1386.9 -0.374562 1386.89 -0.374562 1388.25 -0.37373C1401.23 -0.337149 1413.51 0.183946 1426 3.99962C1426.75 4.21393 1427.5 4.42824 1428.28 4.64904C1439.51 7.87346 1449.71 12.5196 1460 17.9996C1461.33 18.6714 1462.66 19.341 1464 19.9996C1464 20.6596 1464 21.3196 1464 21.9996C1464.85 22.2059 1465.69 22.4121 1466.56 22.6246C1470.77 24.3057 1473.94 26.6641 1477 29.9996C1477 30.6596 1477 31.3196 1477 31.9996C1477.59 32.095 1478.19 32.1904 1478.8 32.2887C1481.5 33.1603 1482.39 34.2023 1484.19 36.3746C1485.09 37.4594 1485.09 37.4594 1486.01 38.566C1486.67 39.3691 1487.32 40.1722 1488 40.9996C1489.09 42.2816 1489.09 42.2816 1490.21 43.5895C1501.35 56.8188 1510.7 72.1247 1515 88.9996C1515.52 90.5624 1516.04 92.1249 1516.56 93.6871C1518.28 99.3145 1518.9 105.052 1519.57 110.875C1519.82 113.899 1519.82 113.899 1521 116C1521.21 120.582 1521.19 125.168 1521.19 129.755C1521.19 132.029 1521.21 134.302 1521.22 136.576C1521.25 143.225 1521.25 149.623 1519.5 156.091C1518.64 159.353 1518.37 162.65 1518 166C1517.03 174.292 1515.29 181.986 1513 190C1512.54 191.726 1512.54 191.726 1512.06 193.488C1509.24 203.636 1505.65 213.37 1501.81 223.175C1498.79 230.891 1495.96 238.65 1493.27 246.485C1491.6 251.338 1489.79 256.102 1487.83 260.847C1486.6 264.029 1485.66 267.28 1484.71 270.554C1484.02 272.946 1483.27 275.318 1482.5 277.687C1482.18 278.683 1482.18 278.683 1481.84 279.699C1481.14 281.623 1480.33 283.511 1479.51 285.386C1478.15 288.652 1477.21 291.695 1476.38 295.125C1474.39 302.961 1471.98 310.661 1469.56 318.375C1463.9 336.148 1463.9 336.148 1458.97 354.132C1458.21 357.154 1457.38 360.097 1456.44 363.062C1455.54 365.987 1454.92 368.575 1454.5 371.625C1454.02 374.862 1453.04 377.47 1451.82 380.488C1450.33 385.047 1449.6 389.797 1448.75 394.511C1448 398 1448 398 1447.01 400.472C1445.68 403.81 1445.08 407.23 1444.44 410.75C1443.13 417.869 1443.13 417.869 1442 419C1441.65 420.47 1441.34 421.952 1441.06 423.437C1440.89 424.332 1440.72 425.226 1440.54 426.148C1440.36 427.089 1440.18 428.03 1440 429C1439.65 430.854 1439.3 432.709 1438.94 434.562C1438.78 435.388 1438.63 436.215 1438.46 437.066C1438 439 1438 439 1437 440C1436.54 442.374 1436.13 444.742 1435.74 447.129C1434.05 457.112 1431.93 466.991 1429.78 476.887C1426.74 490.943 1423.71 505 1421 519.125C1420.82 520.073 1420.63 521.022 1420.45 521.999C1419.53 526.88 1418.73 531.766 1418 536.679C1417.47 540.217 1416.9 543.667 1415.97 547.121C1414.5 552.994 1413.88 558.953 1413.14 564.955C1412.64 568.89 1412.12 572.598 1411 576.414C1409.54 581.639 1409.05 586.93 1408.44 592.312C1408.19 594.475 1407.94 596.638 1407.68 598.8C1407.52 600.226 1407.52 600.226 1407.36 601.681C1407 604 1407 604 1406 606C1405.56 608.955 1405.16 611.902 1404.8 614.867C1404.69 615.787 1404.57 616.707 1404.45 617.654C1404.07 620.727 1403.69 623.801 1403.31 626.875C1403.18 627.942 1403.05 629.01 1402.91 630.11C1402.07 636.937 1401.24 643.766 1400.41 650.595C1400.02 653.864 1399.61 657.133 1399.21 660.401C1394.47 698.951 1390.87 737.588 1388.28 776.343C1388.24 777.008 1388.19 777.673 1388.15 778.358C1387.32 791.229 1386.84 804.123 1386.46 817.015C1386.44 817.754 1386.42 818.493 1386.4 819.254C1385.89 837.194 1385.84 855.132 1385.87 873.078C1385.87 875.742 1385.88 878.405 1385.88 881.069C1385.98 967.943 1390.1 1054.55 1403.44 1192.91C1403.54 1193.77 1403.63 1194.63 1403.74 1195.52C1403.92 1197.16 1404.11 1198.79 1404.29 1200.43C1404.81 1204.98 1405.21 1209.53 1405.51 1214.1C1405.83 1218.65 1406.53 1222.93 1407.5 1227.38C1408.75 1233.88 1409.19 1240.52 1409.86 1247.1C1410.45 1252.74 1411.18 1258.17 1412.51 1263.68C1413.77 1269.65 1414.2 1275.79 1414.86 1281.85C1415.43 1286.93 1416.13 1291.73 1417.49 1296.68C1418.18 1299.83 1418.52 1302.98 1418.9 1306.19C1420.07 1316.2 1421.84 1326.08 1423.62 1336C1423.8 1336.96 1423.97 1337.93 1424.15 1338.92C1427.03 1355.08 1430.15 1371.19 1433.47 1387.27C1436.1 1400.04 1436.1 1400.04 1436.6 1405.23C1436.98 1408.82 1437.83 1411.62 1439 1415C1439.74 1418.58 1440.28 1422.2 1440.86 1425.81C1441.52 1429.82 1442.47 1433.22 1444 1437C1444.69 1440.37 1445.29 1443.73 1445.86 1447.12C1446.36 1449.98 1446.86 1452.66 1447.96 1455.36C1449.6 1459.52 1450.24 1463.87 1451.06 1468.25C1451.4 1470.07 1451.75 1471.89 1452.1 1473.7C1452.25 1474.5 1452.4 1475.3 1452.55 1476.13C1452.83 1478 1452.83 1478 1454 1479C1454.3 1480.72 1454.57 1482.45 1454.81 1484.19C1455.54 1488.76 1456.53 1493.12 1457.84 1497.55C1459.91 1504.65 1461.81 1511.79 1463.69 1518.94C1467.57 1533.64 1471.77 1548.25 1476.07 1562.84C1478.16 1569.95 1480.07 1577.1 1481.9 1584.28C1483 1588.01 1484.46 1591.43 1486 1595C1486.55 1596.94 1487.05 1598.9 1487.5 1600.87C1488.68 1606.05 1490.28 1610.99 1492 1616C1492.4 1617.16 1492.8 1618.32 1493.21 1619.52C1494.14 1622.25 1495.08 1624.98 1496.02 1627.71C1496.54 1629.21 1497.05 1630.7 1497.56 1632.19C1497.82 1632.95 1498.09 1633.71 1498.36 1634.49C1501.24 1642.87 1504.1 1651.24 1506.87 1659.65C1507.1 1660.33 1507.32 1661.01 1507.55 1661.71C1508.61 1664.91 1509.66 1668.11 1510.7 1671.32C1512.59 1677.07 1514.58 1682.65 1517.17 1688.12C1518.01 1690.02 1518.59 1691.87 1519.12 1693.87C1519.86 1697.13 1519.86 1697.13 1522 1700C1522.48 1701.47 1522.91 1702.95 1523.31 1704.44C1524.41 1708.25 1525.72 1711.86 1527.28 1715.51C1530.06 1722.1 1532.66 1728.76 1535.25 1735.44C1539.64 1746.68 1544.25 1757.79 1549.07 1768.86C1550.36 1771.83 1551.59 1774.82 1552.81 1777.81C1554.42 1781.7 1556.18 1785.47 1558.1 1789.21C1559.88 1792.75 1561.39 1796.4 1562.79 1800.1C1564.84 1805.46 1567.22 1810.57 1569.81 1815.69C1572.59 1821.18 1575.35 1826.69 1578 1832.25C1578.3 1832.87 1578.61 1833.49 1578.92 1834.13C1580.47 1837.42 1581 1839.26 1581 1843C1581.66 1843 1582.32 1843 1583 1843C1585.03 1846.73 1586 1848.67 1586 1853C1586.66 1853 1587.32 1853 1588 1853C1588.38 1853.8 1588.38 1853.8 1588.76 1854.63C1596.54 1871.24 1604.82 1887.5 1613.9 1903.45C1615.97 1907.1 1617.92 1910.78 1619.75 1914.56C1624.69 1924.63 1630.42 1934.28 1636 1944C1636.45 1944.79 1636.91 1945.58 1637.38 1946.4C1642.63 1955.52 1648.15 1964.44 1653.81 1973.31C1657 1978.34 1659.95 1983.42 1662.73 1988.68C1664.39 1991.71 1666.3 1994.53 1668.25 1997.38C1670.5 2000.74 1672.62 2004.18 1674.75 2007.62C1679.26 2014.89 1683.96 2022.02 1688.74 2029.12C1690.03 2031.05 1691.32 2032.98 1692.61 2034.92C1696.75 2041.16 1700.91 2047.37 1705.23 2053.49C1707.28 2056.4 1709.3 2059.32 1711.31 2062.25C1713.77 2065.82 1716.25 2069.36 1718.8 2072.87C1719.26 2073.51 1719.72 2074.14 1720.19 2074.8C1721.09 2076.04 1721.99 2077.27 1722.9 2078.51C1726 2082.78 1726 2082.78 1726 2085C1726.66 2085 1727.32 2085 1728 2085C1730.3 2087.56 1731 2088.48 1731 2092C1731.99 2092.33 1732.98 2092.66 1734 2093C1734.93 2094.3 1735.84 2095.62 1736.68 2096.98C1739.07 2100.65 1741.77 2104.1 1744.39 2107.61C1746 2110 1746 2110 1746 2112C1746.99 2112.33 1747.98 2112.66 1749 2113C1750.35 2114.45 1750.35 2114.45 1751.71 2116.32C1752.21 2117 1752.72 2117.68 1753.24 2118.38C1753.76 2119.1 1754.28 2119.82 1754.81 2120.56C1755.32 2121.25 1755.83 2121.95 1756.35 2122.66C1757.38 2124.06 1758.41 2125.46 1759.43 2126.86C1761.54 2129.73 1763.72 2132.54 1765.91 2135.35C1767 2137 1767 2137 1767 2139C1767.57 2139.21 1768.13 2139.42 1768.71 2139.64C1771.77 2141.46 1773.51 2143.98 1775.56 2146.81C1779.09 2151.54 1782.72 2156.14 1786.56 2160.62C1787.48 2161.7 1788.4 2162.77 1789.31 2163.85C1789.76 2164.37 1790.2 2164.89 1790.66 2165.43C1792.82 2167.96 1794.94 2170.51 1797.06 2173.06C1797.78 2173.92 1798.49 2174.78 1799.22 2175.66C1800.79 2177.72 1801.95 2179.64 1803 2182C1803.66 2182 1804.32 2182 1805 2182C1806.35 2183.51 1807.63 2185.09 1808.88 2186.69C1812.43 2191.14 1816.11 2195.39 1820 2199.56C1820.51 2200.11 1821.03 2200.66 1821.55 2201.23C1822.57 2202.31 1823.58 2203.4 1824.59 2204.48C1827.33 2207.44 1830.01 2210.45 1832.7 2213.45C1834.41 2215.35 1836.13 2217.23 1837.86 2219.11C1838.35 2219.64 1838.84 2220.17 1839.35 2220.72C1840.74 2222.23 1842.13 2223.73 1843.52 2225.24C1845.07 2226.96 1846.57 2228.73 1848.01 2230.54C1850.19 2233.23 1852.52 2235.59 1855 2238C1857.11 2240.06 1859.21 2242.12 1861.31 2244.19C1861.86 2244.72 1862.41 2245.25 1862.98 2245.8C1864.36 2247.16 1865.68 2248.58 1867 2250C1867 2250.66 1867 2251.32 1867 2252C1867.96 2252.4 1867.96 2252.4 1868.94 2252.81C1871 2254 1871 2254 1872 2257C1872.87 2257.4 1872.87 2257.4 1873.75 2257.81C1876.37 2259.19 1877.7 2261 1879.52 2263.29C1881.79 2265.91 1884.43 2268.07 1887.06 2270.33C1889.52 2272.45 1891.81 2274.6 1894 2277C1894 2277.66 1894 2278.32 1894 2279C1894.56 2279.23 1895.11 2279.45 1895.69 2279.69C1898.66 2281.37 1900.65 2283.53 1903 2286C1906.47 2289.56 1906.47 2289.56 1910.31 2292.69C1911.15 2293.34 1911.15 2293.34 1912 2294C1912 2294.66 1912 2295.32 1912 2296C1913.32 2296.66 1914.64 2297.32 1916 2298C1916 2298.66 1916 2299.32 1916 2300C1916.58 2300.25 1917.17 2300.51 1917.77 2300.77C1920.24 2302.13 1921.81 2303.64 1923.75 2305.69C1930.18 2312.27 1937.21 2318.03 1944.39 2323.79C1947.08 2326.06 1949.52 2328.5 1952 2331C1952.93 2331.72 1953.86 2332.44 1954.81 2333.19C1955.9 2334.08 1955.9 2334.08 1957 2335C1957 2335.66 1957 2336.32 1957 2337C1957.56 2337.23 1958.11 2337.47 1958.68 2337.71C1961.58 2339.32 1963.66 2341.34 1966.06 2343.62C1970.68 2347.91 1975.46 2351.61 1980.61 2355.24C1983.39 2357.29 1985.65 2359.49 1988 2362C1988.66 2362.33 1989.32 2362.66 1990 2363C1990 2363.66 1990 2364.32 1990 2365C1990.62 2365.31 1991.24 2365.62 1991.88 2365.94C1993.25 2366.62 1994.62 2367.31 1996 2368C1996 2368.66 1996 2369.32 1996 2370C1996.58 2370.27 1997.16 2370.55 1997.76 2370.83C2001.54 2372.8 2004.84 2375.44 2008.25 2378C2009 2378.55 2009.74 2379.09 2010.51 2379.66C2011.56 2380.44 2011.56 2380.44 2012.64 2381.25C2013.29 2381.73 2013.93 2382.21 2014.59 2382.7C2015.06 2383.13 2015.52 2383.56 2016 2384C2016 2384.66 2016 2385.32 2016 2386C2016.73 2386.25 2017.46 2386.5 2018.22 2386.75C2021.25 2388.11 2023.1 2389.67 2025.5 2391.94C2027.87 2394.17 2029.97 2395.98 2032.78 2397.63C2033.51 2398.08 2034.25 2398.53 2035 2399C2035 2399.66 2035 2400.32 2035 2401C2035.78 2401.31 2036.57 2401.62 2037.38 2401.94C2040 2403 2040 2403 2042 2404C2042 2404.66 2042 2405.32 2042 2406C2042.74 2406.27 2043.48 2406.54 2044.24 2406.81C2046.92 2407.96 2048.85 2409.21 2051.14 2411C2052.25 2411.87 2052.25 2411.87 2053.38 2412.75C2054.14 2413.35 2054.9 2413.95 2055.69 2414.56C2057.21 2415.75 2058.74 2416.94 2060.26 2418.13C2060.93 2418.66 2061.6 2419.18 2062.29 2419.72C2063.98 2421.06 2063.98 2421.06 2066 2422C2066 2422.66 2066 2423.32 2066 2424C2066.84 2424.14 2066.84 2424.14 2067.69 2424.28C2070.61 2425.19 2072.5 2426.65 2074.94 2428.5C2079.1 2431.6 2083.29 2434.62 2087.56 2437.56C2091.41 2440.21 2095.25 2442.87 2099.06 2445.56C2104.64 2449.47 2110.32 2453.23 2116 2457C2117.46 2457.98 2118.92 2458.96 2120.38 2459.94C2129.66 2466.12 2139.08 2472.08 2148.6 2477.91C2152.35 2480.21 2156.08 2482.54 2159.81 2484.87C2160.48 2485.29 2161.15 2485.71 2161.84 2486.14C2165.29 2488.3 2168.74 2490.47 2172.19 2492.65C2180.93 2498.17 2189.73 2503.41 2199 2508C2199 2508.66 2199 2509.32 2199 2510C2199.73 2510.11 2200.46 2510.22 2201.21 2510.33C2204.15 2511.04 2206.03 2512.04 2208.56 2513.66C2214.25 2517.19 2220.1 2520.35 2226 2523.5C2232.71 2527.08 2239.35 2530.73 2245.83 2534.71C2248.48 2536.28 2251.18 2537.67 2253.95 2539.01C2255.9 2539.95 2257.84 2540.91 2259.77 2541.88C2260.47 2542.23 2261.17 2542.58 2261.89 2542.94C2262.59 2543.29 2263.28 2543.64 2264 2544C2265.24 2544.62 2266.47 2545.23 2267.71 2545.85C2300.53 2562.26 2300.53 2562.26 2302.57 2563.29C2303.9 2563.95 2305.22 2564.61 2306.55 2565.27C2309.39 2566.69 2312.23 2568.12 2315.07 2569.54C2315.96 2569.99 2316.84 2570.43 2317.75 2570.89C2318.5 2571.27 2319.25 2571.64 2320.01 2572.03C2322.96 2573.47 2325.97 2574.73 2329 2576C2332.01 2577.32 2335 2578.66 2338 2580C2338.65 2580.29 2339.31 2580.58 2339.98 2580.88C2344.54 2582.9 2349.09 2584.94 2353.63 2586.99C2362.49 2590.99 2371.36 2594.95 2380.25 2598.87C2381.3 2599.34 2382.34 2599.8 2383.42 2600.28C2388.9 2602.69 2394.37 2604.97 2400 2607C2401.46 2607.53 2401.46 2607.53 2402.94 2608.06C2403.81 2608.37 2404.67 2608.68 2405.56 2609C2408.69 2610.13 2411.77 2611.29 2414.81 2612.62C2417.84 2613.93 2420.86 2615 2424 2616C2424 2616.66 2424 2617.32 2424 2618C2424.59 2618.09 2425.17 2618.19 2425.77 2618.28C2432.81 2619.53 2439.13 2621.78 2445.75 2624.44C2448.03 2625.33 2450.31 2626.23 2452.59 2627.12C2454.39 2627.82 2454.39 2627.82 2456.21 2628.54C2462.86 2631.12 2469.56 2633.55 2476.25 2636C2477.22 2636.36 2477.22 2636.36 2478.21 2636.72C2486.23 2639.66 2494.25 2642.49 2502.44 2644.94C2505.95 2646.01 2509.25 2647.11 2512.62 2648.56C2516.43 2650.18 2520.23 2651.2 2524.23 2652.25C2527.51 2653.14 2530.7 2654.2 2533.92 2655.3C2536.92 2656.31 2539.95 2657.16 2543 2658C2543 2658.66 2543 2659.32 2543 2660C2544.27 2660.1 2545.54 2660.2 2546.85 2660.31C2552.26 2660.92 2557.24 2662.38 2562.41 2664.02C2563.39 2664.32 2564.36 2664.62 2565.36 2664.93C2568.45 2665.88 2571.54 2666.85 2574.62 2667.81C2578.68 2669.07 2582.73 2670.33 2586.79 2671.58C2587.76 2671.88 2588.74 2672.18 2589.74 2672.5C2599.46 2675.48 2609.25 2678.09 2619.12 2680.5C2623.27 2681.52 2627.31 2682.7 2631.38 2684C2637.17 2685.82 2642.98 2687.13 2648.93 2688.35C2652.34 2689.07 2655.65 2690.02 2659 2691C2662.43 2691.79 2665.87 2692.56 2669.3 2693.32C2672 2694 2672 2694 2673 2695C2675.06 2695.41 2677.12 2695.77 2679.19 2696.12C2687.07 2697.53 2694.84 2699.33 2702.62 2701.19C2714.8 2704.07 2727.01 2706.75 2739.25 2709.31C2740.06 2709.48 2740.88 2709.65 2741.72 2709.83C2749.45 2711.45 2757.19 2713.05 2764.95 2714.59C2766.89 2714.98 2768.83 2715.38 2770.77 2715.78C2778.08 2717.29 2785.37 2718.55 2792.78 2719.47C2796 2720 2796 2720 2799.22 2720.96C2804.1 2722.3 2808.98 2722.89 2814 2723.5C2824.09 2724.73 2824.09 2724.73 2828.41 2726C2833.66 2727.46 2838.97 2727.95 2844.38 2728.56C2846.55 2728.81 2848.72 2729.06 2850.9 2729.32C2851.85 2729.42 2852.81 2729.53 2853.79 2729.64C2856 2730 2856 2730 2857 2731C2858.56 2731.26 2860.14 2731.46 2861.71 2731.64C2862.71 2731.75 2863.71 2731.87 2864.74 2731.99C2865.83 2732.11 2866.92 2732.23 2868.04 2732.35C2876.7 2733.36 2885.35 2734.42 2893.99 2735.61C2894.98 2735.75 2895.97 2735.89 2897 2736.03C2899.04 2736.31 2901.09 2736.59 2903.14 2736.88C2922.74 2739.57 2942.35 2742.06 2962 2744.31C2963.07 2744.43 2964.14 2744.56 2965.24 2744.68C2983.51 2746.78 3001.77 2748.81 3020.12 2750C3029.38 2750.63 3038.57 2751.4 3047.78 2752.53C3062.21 2754.2 3076.75 2754.55 3091.26 2755.12C3094.28 2755.25 3097.3 2755.37 3100.32 2755.5C3101.25 2755.53 3102.18 2755.57 3103.13 2755.61C3104.42 2755.66 3104.42 2755.66 3105.73 2755.72C3106.87 2755.76 3106.87 2755.76 3108.02 2755.81C3110 2756 3110 2756 3113 2757C3130.65 2758.65 3148.54 2758.61 3166.25 2759.06C3167.12 2759.08 3167.99 2759.11 3168.88 2759.13C3296.36 2768.63 3296.36 2768.63 3415 2756C3417.33 2755.82 3419.66 2755.7 3421.99 2755.6C3423.48 2755.54 3424.96 2755.47 3426.45 2755.4C3427.24 2755.37 3428.03 2755.33 3428.85 2755.3C3446.84 2754.49 3464.64 2752.79 3482.53 2750.72C3488.18 2750.08 3493.84 2749.55 3499.51 2749.06C3537.17 2745.74 3574.82 2740.23 3612.13 2734.17C3613.83 2733.9 3615.53 2733.62 3617.23 2733.35C3618.02 2733.22 3618.8 2733.09 3619.62 2732.96C3624.67 2732.16 3629.7 2731.63 3634.81 2731.24C3637.99 2730.89 3640.94 2729.9 3644 2729C3648.64 2728.24 3653.32 2727.71 3657.99 2727.14C3662.93 2726.52 3667.27 2725.59 3672 2724C3676.41 2723.22 3680.86 2722.71 3685.3 2722.14C3690.11 2721.5 3694.4 2720.61 3699 2719C3701.22 2718.64 3703.45 2718.33 3705.69 2718.06C3710.94 2717.36 3715.84 2716.31 3720.92 2714.81C3724.21 2713.94 3727.49 2713.33 3730.84 2712.74C3740.95 2710.9 3750.94 2708.6 3760.95 2706.29C3764.13 2705.56 3767.31 2704.84 3770.49 2704.11C3780.12 2701.91 3789.68 2699.69 3799.09 2696.68C3802.47 2695.89 3805.55 2695.89 3809 2696C3809 2695.34 3809 2694.68 3809 2694C3810.21 2693.75 3811.41 2693.49 3812.66 2693.23C3814.27 2692.88 3815.89 2692.53 3817.5 2692.19C3818.29 2692.02 3819.08 2691.86 3819.9 2691.69C3825.16 2690.54 3829.98 2688.94 3835 2687C3836.49 2686.62 3837.99 2686.28 3839.5 2686C3843.13 2685.25 3846.4 2684.14 3849.84 2682.78C3853.16 2681.58 3856.57 2680.72 3860 2679.84C3862.42 2679.16 3864.78 2678.42 3867.16 2677.62C3914.42 2661.71 3965.94 2654.39 4012.27 2677C4016.59 2679.26 4020.78 2681.75 4024.94 2684.31C4025.64 2684.74 4026.35 2685.18 4027.07 2685.62C4028.76 2686.69 4030.38 2687.84 4032 2689C4032 2689.66 4032 2690.32 4032 2691C4032.8 2691.27 4033.61 2691.54 4034.44 2691.81C4035.28 2692.2 4036.13 2692.6 4037 2693C4037.33 2693.99 4037.66 2694.98 4038 2696C4039.32 2696.7 4040.65 2697.36 4042 2698C4058.79 2711.98 4069.66 2733.52 4076 2754C4076.35 2755.05 4076.7 2756.1 4077.06 2757.19C4078.27 2762.08 4078.89 2766.99 4079.54 2771.99C4079.83 2774.91 4079.83 2774.91 4081 2777C4081.11 2779.52 4081.16 2782.01 4081.17 2784.53C4081.17 2785.66 4081.17 2785.66 4081.18 2786.82C4081.18 2788.41 4081.19 2790.01 4081.19 2791.61C4081.19 2794.03 4081.21 2796.45 4081.22 2798.86C4081.25 2806.51 4081.03 2813.58 4079 2821C4078.66 2823.33 4078.35 2825.66 4078.06 2828C4077.4 2832.82 4076.47 2837.11 4074.79 2841.66C4073.48 2845.56 4072.7 2849.58 4071.84 2853.59C4069.7 2862.23 4066.3 2870.33 4062.81 2878.5C4062.33 2879.64 4061.84 2880.79 4061.34 2881.96C4057.95 2889.9 4054.4 2897.75 4050.66 2905.53C4048.69 2909.65 4046.83 2913.81 4045 2918C4044.34 2918 4043.68 2918 4043 2918C4042.67 2919.15 4042.34 2920.31 4042 2921.5C4039.78 2928.1 4036.55 2934.18 4033.37 2940.35C4031.78 2943.43 4030.19 2946.53 4028.61 2949.62C4027.69 2951.4 4026.77 2953.19 4025.85 2954.97C4024.96 2956.7 4024.08 2958.43 4023.19 2960.16C4019.83 2966.65 4016.29 2973 4012.56 2979.29C4010.88 2982.21 4009.37 2985.17 4007.9 2988.19C4006.37 2991.28 4004.65 2994.26 4002.94 2997.25C3999.92 3002.58 3996.94 3007.92 3994 3013.3C3989.8 3020.97 3985.55 3028.61 3981.19 3036.19C3980.76 3036.94 3980.32 3037.69 3979.88 3038.47C3977.21 3043.07 3974.37 3047.49 3971.33 3051.85C3969.9 3054.16 3968.94 3056.46 3968 3059C3967.34 3059 3966.68 3059 3966 3059C3965.75 3059.85 3965.5 3060.69 3965.25 3061.56C3963.53 3066.29 3961.35 3070.38 3958.12 3074.25C3956.24 3076.69 3954.93 3078.91 3953.5 3081.62C3948.84 3090.38 3943.34 3098.65 3938 3107C3936.69 3109.06 3935.37 3111.12 3934.06 3113.19C3933.53 3114.01 3933.01 3114.84 3932.46 3115.69C3931.47 3117.26 3930.49 3118.84 3929.54 3120.44C3928.41 3122.32 3927.21 3124.17 3926 3126C3925.34 3126 3924.68 3126 3924 3126C3923.9 3126.56 3923.8 3127.11 3923.69 3127.69C3922.85 3130.5 3921.54 3132.54 3919.94 3135C3919.31 3135.97 3918.68 3136.93 3918.03 3137.93C3915.33 3142.01 3912.63 3146.09 3909.9 3150.16C3908.74 3151.89 3907.59 3153.63 3906.44 3155.37C3903.05 3160.53 3899.46 3165.52 3895.82 3170.5C3893.3 3173.96 3890.92 3177.47 3888.72 3181.14C3888.06 3182.24 3888.06 3182.24 3887.38 3183.37C3886.77 3184.41 3886.77 3184.41 3886.15 3185.46C3885.58 3186.22 3885.58 3186.22 3885 3187C3884.34 3187 3883.68 3187 3883 3187C3882.74 3187.72 3882.48 3188.45 3882.21 3189.19C3880.95 3192.12 3879.47 3194.33 3877.56 3196.87C3876.85 3197.83 3876.14 3198.79 3875.41 3199.78C3875.02 3200.29 3874.64 3200.81 3874.24 3201.34C3871.98 3204.36 3869.74 3207.4 3867.5 3210.44C3867.03 3211.07 3866.57 3211.7 3866.09 3212.35C3862.37 3217.41 3858.92 3222.6 3855.56 3227.9C3855.04 3228.59 3854.53 3229.29 3854 3230C3853.34 3230 3852.68 3230 3852 3230C3851.8 3230.65 3851.61 3231.3 3851.41 3231.97C3849.39 3236.31 3846.48 3239.77 3843.5 3243.5C3842.23 3245.11 3840.97 3246.72 3839.7 3248.32C3839.07 3249.11 3838.45 3249.91 3837.8 3250.72C3835.29 3253.9 3832.79 3257.1 3830.31 3260.31C3829.55 3261.3 3828.78 3262.28 3827.99 3263.3C3826.15 3265.79 3824.59 3268.34 3823 3271C3821.69 3272.35 3820.36 3273.69 3819 3275C3818.5 3275.99 3818.5 3275.99 3818 3277C3817.34 3277 3816.68 3277 3816 3277C3815.76 3277.71 3815.53 3278.42 3815.28 3279.16C3813.78 3282.48 3811.89 3284.75 3809.5 3287.5C3805.19 3292.51 3801.14 3297.66 3797.22 3302.99C3796.2 3304.36 3795.1 3305.68 3794 3307C3793.34 3307 3792.68 3307 3792 3307C3791.85 3307.96 3791.85 3307.96 3791.69 3308.94C3791.46 3309.62 3791.23 3310.3 3791 3311C3789.51 3311.49 3789.51 3311.49 3788 3312C3787.88 3312.58 3787.75 3313.15 3787.62 3313.75C3786.7 3317.06 3784.44 3318.61 3782 3321C3780.68 3322.75 3779.44 3324.55 3778.2 3326.36C3776.67 3328.46 3774.87 3330.2 3773 3332C3772.5 3332.99 3772.5 3332.99 3772 3334C3771.34 3334 3770.68 3334 3770 3334C3769.75 3334.56 3769.5 3335.12 3769.24 3335.69C3767.8 3338.37 3766.09 3340.57 3764.19 3342.94C3763.52 3343.77 3762.85 3344.61 3762.17 3345.46C3760 3348 3760 3348 3757.61 3350.39C3754.6 3353.4 3751.87 3356.57 3749.12 3359.81C3748.07 3361.06 3747.01 3362.3 3745.95 3363.55C3745.44 3364.14 3744.93 3364.74 3744.41 3365.35C3742.1 3368.05 3739.75 3370.71 3737.39 3373.38C3736.11 3374.88 3734.89 3376.44 3733.69 3378C3733.13 3378.66 3732.57 3379.32 3732 3380C3731.34 3380 3730.68 3380 3730 3380C3729.75 3380.56 3729.5 3381.11 3729.25 3381.69C3727.77 3384.42 3726.07 3386.68 3724 3389C3723.34 3389 3722.68 3389 3722 3389C3721.59 3389.89 3721.59 3389.89 3721.17 3390.8C3720.03 3392.94 3718.87 3394.42 3717.21 3396.17C3716.66 3396.75 3716.12 3397.33 3715.56 3397.92C3714.98 3398.53 3714.41 3399.13 3713.81 3399.75C3712.63 3401 3711.45 3402.25 3710.28 3403.5C3709.71 3404.1 3709.15 3404.7 3708.56 3405.32C3706.06 3408.01 3703.7 3410.81 3701.37 3413.64C3700 3415 3700 3415 3697 3416C3696.65 3417.33 3696.32 3418.66 3696 3420C3694.62 3421.42 3694.62 3421.42 3692.88 3422.75C3687.86 3426.81 3683.87 3431.64 3679.88 3436.69C3677.75 3439.31 3675.4 3441.63 3673 3444C3669.68 3447.29 3666.37 3450.58 3663.06 3453.87C3661.74 3455.18 3661.74 3455.18 3660.39 3456.52C3656.16 3460.74 3652.07 3464.98 3648.25 3469.56C3646.59 3471.47 3644.76 3473.08 3642.81 3474.69C3640.68 3476.45 3639.02 3477.97 3637.39 3480.21C3636.7 3481.09 3636.7 3481.09 3636 3482C3635.34 3482 3634.68 3482 3634 3482C3634 3482.66 3634 3483.32 3634 3484C3633.34 3484 3632.68 3484 3632 3484C3631.5 3485.48 3631.5 3485.48 3631 3487C3630.34 3487 3629.68 3487 3629 3487C3629 3487.66 3629 3488.32 3629 3489C3628.34 3489 3627.68 3489 3627 3489C3626.5 3490.48 3626.5 3490.48 3626 3492C3624.33 3493.65 3624.33 3493.65 3622.25 3495.37C3617.17 3499.62 3612.63 3504.37 3607.99 3509.08C3606.58 3510.5 3605.17 3511.93 3603.76 3513.35C3602.79 3514.33 3601.82 3515.32 3600.85 3516.3C3599.44 3517.73 3598.03 3519.16 3596.61 3520.58C3595.78 3521.43 3594.94 3522.28 3594.08 3523.15C3592 3525 3592 3525 3590 3525C3590 3525.66 3590 3526.32 3590 3527C3589.34 3527 3588.68 3527 3588 3527C3588 3527.66 3588 3528.32 3588 3529C3586.43 3530.33 3586.43 3530.33 3584.31 3531.81C3580.84 3534.25 3577.96 3536.95 3575 3540C3566.27 3548.85 3557.32 3557.01 3547.61 3564.79C3544.92 3567.07 3542.48 3569.49 3540 3572C3538.03 3573.84 3536.05 3575.68 3534.06 3577.5C3533.56 3577.96 3533.06 3578.42 3532.55 3578.89C3522.61 3588 3522.61 3588 3520 3588C3519.5 3589.48 3519.5 3589.48 3519 3591C3516.95 3592.87 3516.95 3592.87 3514.25 3595C3513.25 3595.79 3512.26 3596.59 3511.23 3597.41C3510.71 3597.83 3510.18 3598.25 3509.63 3598.68C3506.88 3600.91 3504.19 3603.2 3501.5 3605.5C3496.72 3609.56 3491.91 3613.57 3487.04 3617.52C3484.64 3619.48 3482.25 3621.44 3479.86 3623.41C3478.41 3624.61 3476.95 3625.8 3475.5 3627C3474.8 3627.58 3474.11 3628.15 3473.39 3628.75C3472.41 3629.55 3472.41 3629.55 3471.41 3630.37C3470.82 3630.86 3470.24 3631.34 3469.63 3631.84C3468 3633 3468 3633 3465 3634C3465 3634.66 3465 3635.32 3465 3636C3463.39 3637.44 3463.39 3637.44 3461.25 3639C3460.55 3639.52 3459.86 3640.03 3459.14 3640.56C3457 3642 3457 3642 3454.86 3643C3452.67 3643.99 3452.67 3643.99 3451 3647C3450.01 3647 3449.02 3647 3448 3647C3448 3647.66 3448 3648.32 3448 3649C3446.5 3650.37 3446.5 3650.37 3444.42 3651.93C3443.67 3652.5 3442.92 3653.07 3442.15 3653.65C3441.36 3654.24 3440.57 3654.83 3439.75 3655.44C3438.58 3656.32 3438.58 3656.32 3437.39 3657.21C3435.27 3658.81 3433.13 3660.41 3431 3662C3430.3 3662.56 3429.59 3663.12 3428.87 3663.69C3427 3665 3427 3665 3425 3665C3425 3665.66 3425 3666.32 3425 3667C3423.16 3668.52 3423.16 3668.52 3420.5 3670.37C3415.67 3673.8 3410.91 3677.3 3406.19 3680.87C3400.69 3685.02 3395.15 3689.08 3389.52 3693.05C3385.98 3695.56 3382.48 3698.13 3379.01 3700.73C3378.15 3701.38 3377.29 3702.02 3376.4 3702.68C3374.7 3703.96 3373 3705.24 3371.31 3706.53C3370.53 3707.11 3369.76 3707.69 3368.96 3708.29C3368.27 3708.81 3367.57 3709.33 3366.86 3709.87C3365 3711 3365 3711 3362 3711C3361.5 3712.48 3361.5 3712.48 3361 3714C3356.67 3717 3356.67 3717 3354 3717C3354 3717.66 3354 3718.32 3354 3719C3352.41 3720.09 3352.41 3720.09 3350.06 3721.37C3345.04 3724.28 3340.34 3727.51 3335.62 3730.87C3311.6 3748 3311.6 3748 3308 3748C3308 3748.66 3308 3749.32 3308 3750C3306.28 3751.37 3306.28 3751.37 3303.94 3752.87C3303.18 3753.37 3302.43 3753.86 3301.65 3754.37C3299.78 3755.52 3297.88 3756.63 3295.96 3757.71C3290.42 3760.85 3285.1 3764.36 3279.75 3767.81C3277.6 3769.19 3275.45 3770.58 3273.3 3771.96C3272.25 3772.63 3271.2 3773.3 3270.12 3774C3267.09 3775.94 3264.05 3777.89 3261.02 3779.82C3260.17 3780.36 3259.32 3780.91 3258.45 3781.46C3255.98 3783.01 3253.5 3784.51 3251 3786C3249.75 3786.79 3248.5 3787.58 3247.25 3788.37C3244.55 3790.07 3241.82 3791.67 3239.02 3793.19C3233.05 3796.49 3227.22 3800.03 3221.38 3803.56C3217.25 3806.05 3213.13 3808.53 3209 3811C3208.27 3811.45 3207.53 3811.89 3206.77 3812.35C3202.34 3815 3202.34 3815 3199 3815C3199 3815.66 3199 3816.32 3199 3817C3193.25 3820 3193.25 3820 3191 3820C3191 3820.66 3191 3821.32 3191 3822C3190.39 3822.29 3189.79 3822.58 3189.16 3822.88C3184.7 3825.07 3180.36 3827.33 3176.12 3829.94C3172.71 3832.02 3169.29 3833.88 3165.69 3835.62C3159.81 3838.5 3154.17 3841.73 3148.5 3845C3141.88 3848.82 3135.27 3852.52 3128.38 3855.82C3125.93 3857 3125.93 3857 3123.39 3858.57C3120.99 3860.01 3118.53 3861.05 3115.94 3862.12C3112.98 3863.46 3110.19 3865.09 3107.36 3866.69C3103.31 3868.94 3099.15 3870.95 3095 3873C3093.24 3873.88 3091.47 3874.76 3089.71 3875.64C3088.39 3876.31 3087.06 3876.97 3085.74 3877.63C3081.64 3879.67 3077.55 3881.73 3073.46 3883.78C3072.51 3884.27 3071.55 3884.75 3070.57 3885.24C3068.7 3886.18 3066.84 3887.12 3064.98 3888.05C3060.4 3890.35 3055.79 3892.6 3051.14 3894.77C3049.84 3895.38 3049.84 3895.38 3048.52 3895.99C3046.01 3896.99 3043.66 3897.56 3041 3898C3041 3898.66 3041 3899.32 3041 3900C3040.39 3900.23 3039.79 3900.46 3039.16 3900.7C3037.91 3901.19 3037.91 3901.19 3036.62 3901.69C3035.81 3902 3035 3902.31 3034.16 3902.64C3031.63 3903.73 3029.22 3904.89 3026.77 3906.14C3019.8 3909.66 3012.66 3912.78 3005.52 3915.94C3003.14 3916.99 3000.75 3918.06 2998.36 3919.12C2990.72 3922.51 2983.06 3925.86 2975.32 3929.02C2972.48 3930.22 2969.74 3931.59 2967 3933C2965.34 3933.67 2963.67 3934.34 2962 3935C2960.04 3935.81 2958.08 3936.62 2956.12 3937.44C2955.14 3937.85 2954.15 3938.26 2953.13 3938.68C2951.03 3939.57 2948.92 3940.46 2946.83 3941.36C2940.38 3944.13 2933.9 3946.82 2927.42 3949.52C2925.76 3950.22 2924.11 3950.91 2922.45 3951.6C2920.04 3952.61 2917.63 3953.62 2915.21 3954.63C2914.11 3955.09 2914.11 3955.09 2912.99 3955.56C2902.33 3960 2902.33 3960 2897 3960C2897 3960.66 2897 3961.32 2897 3962C2895.59 3962.51 2894.17 3963.01 2892.75 3963.5C2891.96 3963.78 2891.17 3964.06 2890.36 3964.34C2888 3965 2888 3965 2884 3965C2884 3965.66 2884 3966.32 2884 3967C2883.14 3967.25 2882.29 3967.51 2881.4 3967.77C2879.69 3968.29 2879.69 3968.29 2877.94 3968.81C2876.81 3969.15 2875.69 3969.48 2874.53 3969.83C2871.56 3970.81 2868.76 3971.97 2865.89 3973.21C2862.82 3974.49 2859.69 3975.58 2856.54 3976.66C2855.04 3977.19 2853.53 3977.72 2852.02 3978.24C2851.22 3978.52 2850.41 3978.81 2849.58 3979.1C2845.87 3980.39 2842.18 3981.71 2838.48 3983.03C2834.45 3984.45 2830.42 3985.87 2826.39 3987.29C2824.32 3988.02 2822.24 3988.75 2820.17 3989.49C2817.13 3990.57 2814.09 3991.64 2811.05 3992.71C2810.13 3993.04 2809.21 3993.37 2808.26 3993.71C2803.69 3995.3 2799.91 3996.43 2795 3996C2795 3996.66 2795 3997.32 2795 3998C2793.5 3998.38 2793.5 3998.38 2791.96 3998.77C2790.62 3999.12 2789.28 3999.46 2787.94 3999.81C2787.28 3999.98 2786.62 4000.14 2785.95 4000.31C2782.6 4001.19 2779.45 4002.17 2776.29 4003.57C2773.59 4004.74 2771.36 4005.49 2768.5 4006C2765.09 4006.69 2762.18 4007.75 2759.01 4009.21C2755.47 4010.6 2751.76 4011.38 2748.06 4012.25C2742.42 4013.63 2736.87 4015.33 2731.32 4017.03C2720.95 4020.17 2710.54 4023.09 2700.07 4025.88C2697.5 4026.56 2694.93 4027.25 2692.36 4027.94C2683.64 4030.28 2674.91 4032.56 2666.16 4034.78C2664.93 4035.09 2664.93 4035.09 2663.68 4035.41C2659.14 4036.55 2654.66 4037.39 2650 4038C2647.9 4038.61 2647.9 4038.61 2646 4039.37C2640.64 4041.27 2635.13 4042.23 2629.55 4043.25C2626.07 4043.91 2626.07 4043.91 2623.07 4045C2618.56 4046.47 2613.96 4047.11 2609.28 4047.85C2605 4048.57 2601.11 4049.61 2597 4051C2594.57 4051.48 2592.13 4051.91 2589.69 4052.31C2583.91 4053.29 2578.16 4054.36 2572.42 4055.54C2544.13 4061.36 2515.63 4066.35 2487.12 4071C2485.35 4071.29 2485.35 4071.29 2483.54 4071.59C2477.12 4072.62 2470.75 4073.34 2464.26 4073.75C2462.03 4073.76 2462.03 4073.76 2461 4075C2459.69 4075.27 2458.37 4075.49 2457.05 4075.68C2456.21 4075.81 2455.37 4075.93 2454.51 4076.05C2453.6 4076.18 2452.69 4076.31 2451.75 4076.44C2450.35 4076.64 2450.35 4076.64 2448.92 4076.84C2441.39 4077.88 2433.85 4078.66 2426.28 4079.26C2422.17 4079.61 2418.21 4080.12 2414.17 4080.99C2408.3 4082.23 2402.42 4082.65 2396.44 4083.06C2384.38 4083.18 2384.38 4083.18 2373 4086C2371.53 4086.19 2370.06 4086.32 2368.59 4086.43C2367.67 4086.5 2366.74 4086.57 2365.79 4086.65C2364.78 4086.72 2363.77 4086.79 2362.72 4086.87C2361.67 4086.95 2360.61 4087.03 2359.52 4087.11C2356.04 4087.37 2352.55 4087.62 2349.06 4087.87C2346.62 4088.05 2344.18 4088.23 2341.74 4088.41C2336.8 4088.78 2331.86 4089.14 2326.92 4089.49C2321.96 4089.85 2316.99 4090.22 2312.03 4090.61C2257.28 4094.78 2202.64 4096.52 2147.75 4096.39C2142.5 4096.37 2137.25 4096.38 2132 4096.39C2070.6 4096.53 2009.35 4094.34 1948.19 4088.7C1942.81 4088.21 1937.42 4087.82 1932.03 4087.47C1930.99 4087.4 1930.99 4087.4 1929.94 4087.33C1926.51 4087.11 1923.09 4086.9 1919.67 4086.7C1917.83 4086.58 1917.83 4086.58 1915.95 4086.46C1914.85 4086.4 1913.75 4086.33 1912.62 4086.26C1910 4086 1910 4086 1908 4085C1905.64 4084.64 1903.3 4084.33 1900.94 4084.06C1900.21 4083.98 1899.49 4083.89 1898.74 4083.8C1890.55 4082.88 1882.33 4082.28 1874.12 4081.7C1873.08 4081.62 1872.04 4081.54 1870.97 4081.46C1870.03 4081.4 1869.1 4081.33 1868.14 4081.26C1866 4081 1866 4081 1865 4080C1862.42 4079.65 1859.86 4079.36 1857.27 4079.1C1855.67 4078.93 1854.06 4078.76 1852.46 4078.59C1849.92 4078.32 1847.39 4078.06 1844.85 4077.8C1842.41 4077.55 1839.97 4077.29 1837.52 4077.03C1836.78 4076.96 1836.03 4076.89 1835.26 4076.81C1831.85 4076.45 1828.8 4075.94 1825.49 4074.99C1821.54 4073.87 1817.69 4073.47 1813.62 4073.13C1801.65 4071.99 1789.85 4069.93 1778 4067.87C1775.68 4067.48 1773.35 4067.08 1771.03 4066.68C1755.98 4064.08 1740.95 4061.4 1725.94 4058.62C1725.05 4058.46 1724.17 4058.3 1723.26 4058.13C1714.58 4056.53 1705.99 4054.84 1697.44 4052.61C1694.34 4051.84 1691.23 4051.35 1688.06 4050.94C1685.06 4050.55 1682.48 4050.2 1679.68 4049.03C1675.88 4047.57 1672.02 4047.09 1668 4046.5C1663.01 4045.76 1658.69 4044.88 1654 4043C1650.6 4042.21 1647.18 4041.58 1643.75 4040.94C1641.93 4040.6 1640.11 4040.25 1638.3 4039.9C1637.5 4039.75 1636.7 4039.6 1635.87 4039.45C1634 4039 1634 4039 1633 4038C1630.95 4037.57 1628.89 4037.18 1626.83 4036.8C1616.31 4034.8 1606.02 4031.92 1595.69 4029.12C1593.74 4028.6 1591.79 4028.08 1589.85 4027.56C1580.86 4025.15 1571.88 4022.7 1562.91 4020.23C1562.18 4020.03 1561.45 4019.83 1560.7 4019.62C1556.34 4018.41 1552.07 4017.04 1547.81 4015.55C1545.73 4014.87 1545.73 4014.87 1542.38 4014.5C1539.24 4014.04 1536.94 4013.15 1534.09 4011.82C1530.44 4010.38 1526.6 4009.62 1522.77 4008.75C1520.25 4008.07 1518.32 4007.16 1516 4006C1514.05 4005.46 1512.09 4004.96 1510.12 4004.5C1506 4003.5 1502.01 4002.39 1498 4001C1495.62 4000.28 1493.24 3999.58 1490.86 3998.88C1481.49 3996 1472.24 3992.71 1462.96 3989.55C1461.29 3988.98 1459.62 3988.41 1457.95 3987.84C1448.08 3984.49 1438.26 3981.04 1428.53 3977.3C1423.93 3975.61 1419.29 3974.21 1414.57 3972.86C1412 3972 1412 3972 1409 3970C1407.45 3969.47 1405.89 3969 1404.31 3968.56C1398.25 3966.81 1392.46 3964.59 1386.61 3962.24C1382.54 3960.61 1378.47 3959.01 1374.39 3957.41C1351.78 3948.59 1351.78 3948.59 1341.76 3944.2C1338.3 3942.7 1334.8 3941.31 1331.29 3939.93C1329.02 3939.01 1326.79 3938.02 1324.56 3937C1320.44 3935.14 1316.24 3933.6 1311.97 3932.12C1301.26 3928.06 1290.92 3922.85 1280.52 3918.07C1278.25 3917.03 1275.98 3915.98 1273.71 3914.94C1272.97 3914.61 1272.23 3914.27 1271.47 3913.92C1265.67 3911.28 1259.82 3908.77 1253.92 3906.32C1251.13 3905.06 1248.61 3903.6 1246 3902C1244.36 3901.28 1242.71 3900.56 1241.05 3899.87C1236.66 3898.01 1232.34 3895.99 1228 3894C1226.35 3893.24 1226.35 3893.24 1224.66 3892.47C1209.69 3885.57 1195 3878.13 1180.44 3870.4C1175.66 3867.86 1170.85 3865.4 1166 3863C1159.33 3859.67 1152.67 3856.33 1146 3853C1146 3852.34 1146 3851.68 1146 3851C1145.3 3850.9 1144.59 3850.79 1143.86 3850.68C1140.61 3849.91 1138.12 3848.65 1135.18 3847.05C1134.06 3846.45 1132.95 3845.85 1131.81 3845.23C1130.65 3844.6 1129.5 3843.96 1128.31 3843.31C1127.18 3842.7 1126.05 3842.09 1124.88 3841.45C1118.84 3838.17 1112.88 3834.8 1107.02 3831.21C1104.42 3829.65 1101.72 3828.33 1099 3827C1096.9 3825.87 1094.82 3824.71 1092.75 3823.54C1090.79 3822.44 1088.82 3821.35 1086.85 3820.27C1076.36 3814.49 1066.14 3808.28 1055.94 3802.03C1049.7 3798.21 1043.43 3794.49 1037 3791C1034.3 3789.46 1031.97 3787.97 1029.56 3786C1027.11 3783.94 1027.11 3783.94 1024.4 3782.73C1020.09 3780.54 1016.07 3777.98 1012 3775.37C1011.16 3774.84 1010.33 3774.31 1009.47 3773.76C1006.98 3772.18 1004.49 3770.59 1002 3769C1001.31 3768.56 1000.61 3768.11 999.897 3767.66C994.441 3764.17 988.992 3760.68 983.625 3757.06C980.364 3754.87 977.041 3752.79 973.69 3750.73C963.955 3744.74 954.627 3738.24 945.303 3731.63C942.045 3729.32 938.776 3727.03 935.5 3724.75C934.52 3724.06 933.541 3723.38 932.531 3722.67C930.397 3721.26 928.318 3720.07 926 3719C926 3718.34 926 3717.68 926 3717C925.216 3716.69 924.432 3716.38 923.625 3716.06C921 3715 921 3715 919 3714C919 3713.34 919 3712.68 919 3712C918.237 3711.71 917.474 3711.42 916.687 3711.12C914 3710 914 3710 911 3708C911 3707.34 911 3706.68 911 3706C910.479 3705.93 909.958 3705.86 909.422 3705.79C905.912 3704.64 903.19 3702.48 900.25 3700.31C899.311 3699.63 899.311 3699.63 898.352 3698.93C894.522 3696.14 890.721 3693.32 886.953 3690.44C883.679 3688.02 880.288 3685.78 876.906 3683.52C876.277 3683.01 875.648 3682.51 875 3682C875 3681.34 875 3680.68 875 3680C874.336 3679.78 873.672 3679.57 872.988 3679.34C868.996 3677.55 865.694 3675.1 862.187 3672.5C861.495 3672 860.802 3671.5 860.088 3670.99C859.434 3670.51 858.779 3670.03 858.105 3669.53C857.509 3669.09 856.912 3668.66 856.298 3668.2C855.869 3667.81 855.441 3667.41 855 3667C855 3666.34 855 3665.68 855 3665C853.888 3664.6 853.888 3664.6 852.754 3664.2C850.015 3663.01 848.195 3661.74 845.934 3659.81C845.201 3659.2 844.468 3658.58 843.713 3657.94C842.962 3657.3 842.211 3656.66 841.437 3656C839.939 3654.73 838.438 3653.45 836.934 3652.19C836.274 3651.62 835.615 3651.06 834.935 3650.48C833.03 3649.02 831.148 3648.05 829 3647C828.428 3646.42 827.855 3645.85 827.266 3645.26C823.417 3641.42 818.891 3638.42 814.492 3635.25C813.788 3634.73 813.084 3634.21 812.359 3633.68C811.392 3632.98 811.392 3632.98 810.405 3632.26C809.941 3631.85 809.478 3631.43 809 3631C809 3630.34 809 3629.68 809 3629C808.484 3628.77 807.969 3628.55 807.437 3628.31C804.104 3626.52 800.853 3624.5 798 3622C798 3621.34 798 3620.68 798 3620C797.415 3619.73 796.831 3619.46 796.228 3619.18C794.013 3618.01 792.271 3616.73 790.348 3615.13C789.66 3614.56 788.972 3613.99 788.263 3613.4C787.537 3612.8 786.811 3612.19 786.062 3611.56C785.31 3610.94 784.557 3610.31 783.781 3609.67C781.517 3607.78 779.257 3605.89 777 3604C776.362 3603.46 775.723 3602.93 775.065 3602.38C766.983 3595.6 758.995 3588.72 751.187 3581.62C745.161 3576.18 738.902 3571.03 732.488 3566.05C729.813 3563.85 727.434 3561.47 725 3559C723.03 3557.15 721.054 3555.32 719.062 3553.5C718.563 3553.04 718.063 3552.58 717.549 3552.1C715.007 3549.78 712.434 3547.51 709.777 3545.31C707.013 3543.01 704.542 3540.54 702 3538C701.01 3537.17 700.02 3536.35 699 3535.5C696.158 3533.13 693.614 3530.61 691 3528C689.546 3526.82 689.546 3526.82 688.062 3525.62C685.117 3523.23 682.799 3520.49 680.391 3517.57C678.782 3515.75 676.955 3514.43 675 3513C675 3512.34 675 3511.68 675 3511C673.68 3510.34 672.36 3509.68 671 3509C671 3508.34 671 3507.68 671 3507C670.408 3506.74 669.817 3506.47 669.207 3506.2C666.901 3504.95 665.483 3503.65 663.687 3501.75C661.365 3499.35 659.016 3497.12 656.437 3495C654.057 3493 652.037 3490.96 650.062 3488.56C647.907 3485.95 645.649 3483.75 643.062 3481.56C639.524 3478.56 636.575 3475.3 633.582 3471.77C631.953 3469.85 631.953 3469.85 629.5 3468C626.574 3465.66 624.335 3463.01 621.914 3460.16C619.265 3457.17 616.398 3454.42 613.504 3451.66C612 3450 612 3450 612 3448C611.041 3447.6 611.041 3447.6 610.062 3447.19C608 3446 608 3446 607 3443C605.676 3442.31 604.342 3441.65 603 3441C601.394 3439.37 601.394 3439.37 599.812 3437.44C597.167 3434.3 594.424 3431.37 591.5 3428.5C588.197 3425.24 585.099 3421.89 582.078 3418.36C579.281 3415.18 576.39 3412.09 573.5 3409C569.376 3404.58 565.297 3400.14 561.367 3395.55C559.996 3393.95 559.996 3393.95 558.32 3392.42C557 3391 557 3391 557 3389C556.01 3388.67 555.02 3388.34 554 3388C552.57 3386.33 552.57 3386.33 551.125 3384.25C548.71 3380.79 545.985 3377.98 543 3375C541.268 3372.97 539.559 3370.94 537.875 3368.87C535.357 3365.8 532.854 3362.77 530 3360C525.896 3355.52 522.078 3350.91 518.555 3345.96C516.942 3343.85 516.942 3343.85 514.594 3341.59C512.073 3339.07 509.853 3336.47 507.625 3333.69C505.017 3330.46 502.394 3327.28 499.625 3324.19C496.069 3320.17 492.781 3315.94 489.482 3311.71C485.749 3306.93 481.953 3302.2 478.125 3297.5C477.59 3296.84 477.055 3296.18 476.503 3295.51C475.989 3294.87 475.475 3294.24 474.945 3293.59C474.205 3292.68 474.205 3292.68 473.45 3291.76C472.492 3290.6 471.523 3289.45 470.542 3288.3C468.443 3285.86 467.031 3284.09 466 3281C465.319 3280.32 464.639 3279.64 463.937 3278.94C463.298 3278.3 462.659 3277.66 462 3277C462 3276.34 462 3275.68 462 3275C461.34 3275 460.68 3275 460 3275C458.809 3273.67 458.809 3273.67 457.437 3271.75C456.906 3271.02 456.375 3270.29 455.828 3269.53C455.225 3268.7 454.622 3267.86 454 3267C452.566 3265.08 451.128 3263.16 449.687 3261.25C448.535 3259.71 448.535 3259.71 447.359 3258.14C445.809 3256.08 444.257 3254.01 442.703 3251.95C438.427 3246.26 434.205 3240.55 430.035 3234.78C427.864 3231.81 425.654 3228.87 423.437 3225.94C420.206 3221.64 417.064 3217.3 414 3212.88C411.414 3209.16 408.802 3205.45 406.187 3201.75C405.673 3201.02 405.159 3200.29 404.629 3199.54C399.337 3192.05 394.017 3184.58 388.66 3177.14C386.284 3173.83 384.069 3170.51 382 3167C379.658 3163.4 377.221 3159.88 374.75 3156.37C372.004 3152.45 369.265 3148.52 366.562 3144.56C365.883 3143.57 365.204 3142.58 364.504 3141.57C363 3139 363 3139 363 3136C362.34 3136 361.68 3136 361 3136C359.347 3133.59 357.815 3131.19 356.312 3128.69C355.407 3127.21 354.5 3125.73 353.594 3124.25C353.15 3123.52 352.707 3122.79 352.25 3122.04C350.635 3119.4 348.979 3116.79 347.312 3114.19C346.756 3113.31 346.199 3112.44 345.625 3111.54C345.089 3110.7 344.552 3109.86 344 3109C337.634 3099.02 331.3 3089.02 325 3079C324.595 3078.36 324.191 3077.71 323.774 3077.05C319.804 3070.72 316.001 3064.35 312.519 3057.73C311.329 3055.59 310.094 3053.54 308.785 3051.47C305.228 3045.83 301.943 3040.03 298.625 3034.25C297.347 3032.03 296.068 3029.8 294.789 3027.58C294.163 3026.49 293.537 3025.4 292.893 3024.28C290.453 3020.05 287.992 3015.84 285.526 3011.62C275 2993.53 275 2993.53 275 2990C274.34 2990 273.68 2990 273 2990C272.596 2989.17 272.193 2988.34 271.777 2987.48C266.561 2976.86 260.993 2966.44 255.369 2956.03C251.797 2949.4 248.321 2942.75 245 2936C244.426 2934.85 243.853 2933.7 243.262 2932.52C240.941 2927.88 238.621 2923.24 236.301 2918.6C236.01 2918.02 235.719 2917.44 235.419 2916.84C234.795 2915.59 234.171 2914.34 233.548 2913.09C231.483 2908.96 229.413 2904.83 227.338 2900.7C226.015 2898.07 224.695 2895.44 223.374 2892.8C222.719 2891.5 222.063 2890.19 221.406 2888.89C217.571 2881.27 213.846 2873.62 210.316 2865.85C209.035 2863.08 207.692 2860.35 206.312 2857.62C203.222 2851.5 200.659 2845.2 198.16 2838.82C195.327 2831.93 192.171 2825.19 189.041 2818.44C184.842 2809.36 180.806 2800.29 177.191 2790.96C176.23 2788.57 175.207 2786.33 174 2784.06C171.596 2779.51 169.936 2774.65 168.193 2769.81C166.706 2765.72 164.991 2761.88 163 2758C162.495 2756.76 162.012 2755.51 161.562 2754.25C160.505 2751.35 159.404 2748.48 158.25 2745.62C152.304 2730.83 146.624 2715.92 141 2701C140.723 2700.27 140.446 2699.54 140.161 2698.79C139.432 2696.86 138.715 2694.93 138 2693C137.412 2691.42 137.412 2691.42 136.812 2689.81C136.014 2687.05 135.832 2684.86 136 2682C135.34 2682 134.68 2682 134 2682C133.746 2681.13 133.492 2680.26 133.23 2679.37C132.714 2677.64 132.714 2677.64 132.187 2675.87C131.851 2674.74 131.515 2673.6 131.168 2672.43C130.033 2669.1 128.587 2666.13 127 2663C126.375 2660.91 126.375 2660.91 126 2659.06C125.104 2655.15 123.592 2651.69 122 2648C121.544 2646.56 121.11 2645.12 120.691 2643.67C118.908 2637.63 116.962 2631.64 115.014 2625.65C108.425 2605.38 101.985 2585.05 96.0507 2564.58C95.0353 2561.12 93.9618 2557.69 92.8749 2554.25C91.1914 2548.85 89.887 2543.41 88.7109 2537.87C88.0261 2535.11 87.0617 2532.64 85.9999 2530C85.5049 2528.07 85.0494 2526.13 84.6249 2524.19C83.5757 2519.48 82.4682 2514.79 81.2929 2510.11C81.0392 2509.1 81.0393 2509.1 80.7805 2508.07C79.7152 2503.83 78.6432 2499.59 77.5703 2495.35C65.7982 2448.83 65.7982 2448.83 61.8124 2430.56C61.4126 2428.74 61.4126 2428.74 61.0046 2426.88C59.5904 2420.26 58.4397 2413.66 57.5339 2406.95C56.9695 2403.83 56.0211 2401 54.9999 2398C54.6964 2396.5 54.4328 2394.99 54.2187 2393.47C54.0988 2392.66 53.9789 2391.85 53.8554 2391.01C53.6184 2389.34 53.3815 2387.66 53.1445 2385.99C52.6353 2382.54 52.122 2379.36 50.9999 2376.05C49.5609 2371.66 49.0866 2367.2 48.4999 2362.62C48.2646 2360.8 48.025 2358.98 47.7812 2357.16C47.6787 2356.36 47.5762 2355.56 47.4706 2354.74C47.011 2351.84 47.011 2351.84 46.0644 2348.39C44.7319 2343.18 43.9749 2337.91 43.1874 2332.59C43.0179 2331.47 42.8483 2330.35 42.6735 2329.19C42.1119 2325.46 41.556 2321.73 40.9999 2318C40.7029 2316.02 40.4059 2314.05 40.1085 2312.08C39.0521 2305.06 38.0057 2298.05 36.9676 2291.03C36.4328 2287.42 35.8962 2283.8 35.3544 2280.19C32.9432 2264.1 30.6741 2248 28.7499 2231.84C28.6255 2230.81 28.6255 2230.81 28.4985 2229.76C27.5103 2221.53 26.7484 2213.33 26.3541 2205.06C26.203 2201.41 26.203 2201.41 24.9999 2198C24.6341 2195.14 24.3277 2192.3 24.0624 2189.44C23.9774 2188.54 23.8924 2187.65 23.8049 2186.73C22.8423 2176.09 22.2655 2165.43 21.6975 2154.76C21.6386 2153.7 21.6386 2153.7 21.5786 2152.62C21.4707 2150.69 21.3679 2148.75 21.2653 2146.81C21.3104 2144.1 21.3104 2144.1 19.9999 2143C19.4886 2139.13 19.3172 2135.21 19.0624 2131.31C18.9774 2130.04 18.8924 2128.78 18.8049 2127.47C17.7324 2110.68 17.245 2093.85 16.6975 2077.04C16.6582 2075.88 16.619 2074.72 16.5786 2073.52C16.5043 2071.32 16.4337 2069.12 16.3671 2066.92C16.3335 2065.93 16.2999 2064.95 16.2653 2063.93C16.238 2063.07 16.2108 2062.21 16.1827 2061.33C16.0861 2059.08 16.086 2059.08 15.4964 2057.28C14.8284 2054.21 14.874 2051.31 14.873 2048.17C14.8714 2047.48 14.8698 2046.79 14.8682 2046.09C14.8642 2043.79 14.8674 2041.49 14.8705 2039.19C14.8692 2037.54 14.8674 2035.89 14.8652 2034.24C14.8606 2029.76 14.8625 2025.28 14.8657 2020.8C14.8682 2016.12 14.8658 2011.43 14.8642 2006.75C14.8624 1998.88 14.8648 1991.01 14.8696 1983.14C14.875 1974.04 14.8732 1964.94 14.8677 1955.84C14.8632 1948.03 14.8626 1940.22 14.8652 1932.41C14.8667 1927.75 14.8669 1923.08 14.8636 1918.41C14.8607 1914.03 14.8628 1909.64 14.8686 1905.25C14.8699 1903.64 14.8695 1902.03 14.8673 1900.42C14.8645 1898.23 14.868 1896.03 14.873 1893.83C14.8736 1891.99 14.8735 1891.99 14.8741 1890.1C14.979 1887.51 15.2776 1885.46 15.9999 1883C16.1285 1881.38 16.213 1879.76 16.2653 1878.14C16.3157 1876.69 16.3157 1876.69 16.3671 1875.21C16.4155 1873.64 16.4155 1873.64 16.4648 1872.03C16.5422 1869.78 16.6198 1867.52 16.6975 1865.27C16.7365 1864.09 16.7756 1862.91 16.8159 1861.7C17.9191 1828.71 17.9191 1828.71 19.0624 1812.25C19.1416 1811.08 19.2208 1809.91 19.3024 1808.71C19.8651 1801.13 19.8651 1801.13 20.9999 1800C21.2918 1796.93 21.5246 1793.88 21.7187 1790.81C21.7815 1789.88 21.8443 1788.95 21.909 1787.99C22.1103 1784.99 22.3055 1782 22.4999 1779C22.6953 1776.03 22.892 1773.06 23.0909 1770.1C23.2145 1768.25 23.3359 1766.4 23.4549 1764.55C24.4825 1749.03 24.4825 1749.03 25.9999 1746C26.1727 1744.5 26.2935 1742.99 26.3879 1741.48C26.4857 1740.05 26.4856 1740.05 26.5854 1738.59C26.6564 1737.54 26.7275 1736.48 26.8007 1735.4C27.9115 1720.43 29.8571 1705.59 31.8914 1690.73C32.1916 1688.53 32.4891 1686.33 32.7858 1684.13C35.7678 1662.07 39.1016 1640.08 42.9676 1618.15C43.9984 1612.22 44.797 1606.27 45.5236 1600.29C46.1595 1595.9 47.2176 1591.65 48.2773 1587.34C49.3458 1582.4 49.9094 1577.43 50.4726 1572.41C50.9999 1569 50.9999 1569 51.9648 1566.12C53.2886 1562.13 53.8768 1558.15 54.4999 1554C54.7347 1552.44 54.9742 1550.87 55.2187 1549.31C55.3212 1548.63 55.4237 1547.94 55.5292 1547.24C55.9999 1545 55.9999 1545 56.9738 1542.2C58.1133 1538.65 58.6688 1535.13 59.1992 1531.45C61.0847 1519.39 64.0247 1507.56 66.8781 1495.7C67.8062 1491.84 68.7251 1487.98 69.6425 1484.11C72.8588 1470.62 76.1943 1457.17 79.7448 1443.76C81.2377 1438.12 82.6958 1432.48 83.9648 1426.78C84.1253 1426.08 84.2858 1425.37 84.4511 1424.64C84.7751 1423.22 85.0955 1421.79 85.412 1420.36C86.4081 1416.01 87.7176 1411.96 89.3376 1407.81C90.1859 1405.49 90.6579 1403.18 91.0624 1400.75C91.4657 1398.34 91.81 1396.37 92.9335 1394.19C94.4856 1391 95.1881 1387.62 95.9999 1384.19C96.3321 1382.81 96.6654 1381.42 96.9999 1380.04C97.2165 1379.13 97.2165 1379.13 97.4374 1378.2C99.1448 1371.52 101.259 1364.98 103.371 1358.42C104.035 1356.35 104.698 1354.28 105.361 1352.21C106.398 1348.98 107.436 1345.75 108.475 1342.53C109.484 1339.39 110.49 1336.25 111.496 1333.11C111.802 1332.16 112.109 1331.21 112.424 1330.23C114.212 1324.65 115.839 1319.04 117.32 1313.37C118.255 1310.11 119.625 1307.09 121 1304C123.293 1297.71 125.17 1291.28 127.157 1284.89C128.709 1279.9 130.321 1274.94 132 1270C132.392 1268.82 132.784 1267.65 133.187 1266.44C133.456 1265.63 133.724 1264.83 134 1264C134.66 1264 135.32 1264 136 1264C136.103 1262.86 136.206 1261.71 136.312 1260.53C136.901 1255.88 138.311 1251.8 140 1247.44C140.305 1246.63 140.611 1245.82 140.925 1244.98C143.787 1237.44 146.76 1229.94 149.721 1222.44C152.303 1215.87 154.722 1209.26 157.039 1202.6C159.377 1195.88 161.788 1189.26 165.062 1182.94C166.815 1179.53 168.031 1176.11 169.18 1172.47C171.648 1165.04 174.873 1157.86 177.934 1150.66C178.293 1149.81 178.653 1148.96 179.024 1148.09C179.779 1146.31 180.534 1144.54 181.29 1142.76C182.433 1140.07 183.573 1137.38 184.713 1134.7C188.067 1126.8 191.437 1118.92 195.027 1111.13C196.273 1108.4 197.429 1105.65 198.562 1102.87C201.273 1096.32 204.043 1089.84 207.262 1083.52C210.272 1077.52 213.035 1071.42 215.812 1065.31C219.738 1056.73 223.787 1048.3 228.379 1040.05C229.789 1037.4 231.002 1034.73 232.158 1031.96C233.883 1027.94 235.805 1024.01 237.687 1020.06C238.103 1019.19 238.519 1018.31 238.947 1017.41C239.964 1015.27 240.981 1013.14 242 1011C242.66 1011 243.32 1011 244 1011C244.36 1009.78 244.719 1008.56 245.09 1007.31C247.235 1000.89 250.407 995.034 253.562 989.062C254.192 987.86 254.821 986.658 255.449 985.456C259.426 977.874 263.517 970.358 267.719 962.897C270.528 957.901 273.155 952.838 275.648 947.675C277.313 944.38 279.152 941.194 281 938C281.556 937.019 282.111 936.038 282.684 935.027C287.428 926.669 292.301 918.391 297.205 910.126C300.336 904.842 303.421 899.537 306.437 894.187C308.947 889.757 311.607 885.521 314.489 881.327C316.03 878.953 317.363 876.539 318.687 874.039C322.187 867.568 326.005 861.316 329.875 855.062C330.544 853.972 331.213 852.882 331.902 851.759C335.883 845.305 339.985 838.954 344.243 832.678C346.719 828.904 348.902 824.994 351 821C351.66 821 352.32 821 353 821C353.235 820.332 353.469 819.664 353.711 818.976C355.345 815.202 357.43 811.845 359.625 808.375C360.069 807.668 360.514 806.96 360.972 806.232C364.188 801.162 367.6 796.277 371.187 791.461C374.655 786.753 377.804 781.831 381 776.937C383.04 773.94 385.206 771.078 387.437 768.222C389.133 765.889 389.133 765.889 390.812 762.769C393.221 758.483 396.089 754.581 399 750.625C400.163 749.029 401.326 747.432 402.488 745.836C403.074 745.031 403.66 744.226 404.264 743.397C406.938 739.704 409.564 735.979 412.187 732.25C412.676 731.558 413.164 730.866 413.667 730.153C416.091 726.718 418.504 723.276 420.902 719.824C421.81 718.528 422.717 717.233 423.625 715.937C424.039 715.335 424.453 714.733 424.88 714.112C425.87 712.705 426.929 711.346 428 710C428.66 710 429.32 710 430 710C430.309 709.216 430.619 708.432 430.937 707.625C432 705 432 705 433 703C433.66 703 434.32 703 435 703C435.268 702.259 435.536 701.519 435.812 700.756C436.967 698.077 438.208 696.167 440.012 693.89C440.605 693.135 441.199 692.379 441.81 691.601C442.43 690.825 443.049 690.049 443.687 689.25C444.287 688.489 444.888 687.729 445.506 686.945C446.718 685.409 447.931 683.875 449.146 682.341C451.068 679.914 452.985 677.483 454.894 675.047C455.467 674.318 456.039 673.589 456.628 672.839C458.052 671.043 458.052 671.043 459 669C459.66 669 460.32 669 461 669C461.206 668.34 461.412 667.68 461.625 667C463.491 662.928 465.976 659.312 469 656C469.66 656 470.32 656 471 656C471.278 655.409 471.556 654.818 471.842 654.209C472.925 652.142 474.077 650.468 475.531 648.652C476.012 648.047 476.493 647.442 476.988 646.818C477.487 646.197 477.986 645.577 478.5 644.937C479.49 643.697 480.48 642.456 481.469 641.214C482.125 640.396 482.125 640.396 482.795 639.562C483.93 638.09 484.969 636.546 486 635C486.66 635 487.32 635 488 635C488.66 633.35 489.32 631.7 490 630C490.66 630 491.32 630 492 630C492.253 629.438 492.505 628.876 492.766 628.297C494.176 625.672 495.858 623.552 497.75 621.25C500.775 617.535 503.687 613.777 506.48 609.886C508 608 508 608 510.309 605.695C513.341 602.658 516.105 599.462 518.875 596.187C519.94 594.936 521.005 593.684 522.07 592.433C522.577 591.838 523.084 591.242 523.606 590.628C525.3 588.649 527.021 586.697 528.75 584.75C532.117 580.944 535.21 576.937 538.301 572.906C538.861 572.277 539.422 571.648 540 571C540.66 571 541.32 571 542 571C542.228 570.453 542.456 569.907 542.691 569.343C544.392 566.298 546.553 564.045 548.937 561.5C549.926 560.437 550.914 559.375 551.902 558.312C552.411 557.768 552.92 557.224 553.445 556.664C555.977 553.955 558.489 551.228 561 548.5C561.887 547.541 562.774 546.582 563.687 545.593C565.982 543.11 565.982 543.11 567.687 540.656C568.121 540.109 568.554 539.563 569 539C569.66 539 570.32 539 571 539C571.247 538.443 571.495 537.886 571.75 537.312C574.932 531.424 579.934 527.038 584.648 522.386C589.364 517.718 593.946 513.016 598.254 507.964C600.984 504.892 603.938 502.053 606.863 499.168C609.217 496.779 611.393 494.297 613.516 491.703C615.564 489.352 617.791 487.201 620 485C621.006 483.985 622.01 482.97 623.014 481.953C625.939 478.993 628.87 476.039 631.803 473.087C633.066 471.813 634.328 470.538 635.588 469.261C637.412 467.412 639.242 465.571 641.074 463.73C641.639 463.155 642.203 462.58 642.785 461.988C644.153 460.62 645.572 459.304 647 458C647.66 458 648.32 458 649 458C649.255 457.407 649.51 456.814 649.773 456.203C651.126 453.773 652.483 452.507 654.625 450.75C658.992 447.053 662.995 443.082 667 439C671.614 434.296 676.288 429.77 681.299 425.488C682.719 424.246 684.059 422.913 685.375 421.562C687 420 687 420 689 420C689.33 419.01 689.66 418.02 690 417C691.566 415.439 691.566 415.439 693.562 413.781C697.841 410.151 701.927 406.357 706 402.5C713.863 395.051 721.935 387.986 730.387 381.211C733.079 378.933 735.524 376.51 738 374C743.515 368.798 749.04 363.721 755.246 359.351C757.101 357.982 757.101 357.982 758.937 356.058C761.03 353.97 763.206 352.219 765.562 350.437C767.729 348.797 769.766 347.242 771.652 345.285C773 344 773 344 775 344C775 343.34 775 342.68 775 342C777.213 340.083 779.431 338.28 781.75 336.5C782.384 336.001 783.018 335.502 783.672 334.988C786.691 332.642 789.529 330.637 793 329C793 328.34 793 327.68 793 327C798.357 322 798.357 322 802 322C802.227 321.381 802.454 320.762 802.687 320.125C804.379 317.386 805.992 316.949 809 316C809 315.34 809 314.68 809 314C810.844 312.511 810.844 312.511 813.5 310.687C818.454 307.178 823.184 303.478 827.875 299.625C832.934 295.481 838.012 291.372 843.187 287.375C844.694 286.211 844.694 286.211 846.23 285.023C848.751 283.182 851.322 281.595 854 280C855.354 278.688 856.687 277.353 858 276C862.555 272 862.555 272 866 272C866 271.34 866 270.68 866 270C867.968 268.456 869.938 267.033 872 265.625C873.292 264.724 874.582 263.822 875.871 262.918C876.549 262.442 877.227 261.967 877.925 261.478C881.356 259.033 884.706 256.482 888.062 253.937C893.112 250.128 898.192 246.375 903.375 242.75C904.414 242.023 905.453 241.296 906.523 240.546C909 239 909 239 911 239C911 238.34 911 237.68 911 237C912.914 235.625 912.914 235.625 915.625 234C920.232 231.153 924.673 228.166 929.062 225C929.656 224.572 930.25 224.144 930.862 223.704C932.03 222.862 933.198 222.02 934.365 221.178C952.655 208 952.655 208 956 208C956 207.34 956 206.68 956 206C958.388 204.369 960.773 202.858 963.25 201.375C964.736 200.466 966.222 199.556 967.707 198.644C968.81 197.969 968.81 197.969 969.936 197.279C972.644 195.6 975.295 193.842 977.937 192.062C994.912 180.638 1012.21 169.642 1029.77 159.148C1034.05 156.581 1038.3 153.954 1042.54 151.306C1051.16 145.916 1059.84 140.713 1068.75 135.804C1072.59 133.672 1076.31 131.471 1079.94 129C1083 127 1083 127 1085.52 125.75C1090.34 123.327 1095 120.659 1099.69 118C1100.7 117.426 1101.72 116.852 1102.76 116.261C1108.43 113.05 1114.07 109.801 1119.69 106.512C1126.98 102.25 1134.3 98.236 1141.88 94.5387C1144.76 93.1178 1147.57 91.6191 1150.38 90.0621C1154.61 87.7215 1158.91 85.5223 1163.25 83.3746C1171.2 79.4364 1179.07 75.3357 1186.93 71.212C1189.62 69.8032 1192.31 68.401 1195 66.9996C1196.17 66.3818 1196.17 66.3818 1197.36 65.7516C1202.66 62.9996 1202.66 62.9996 1206 62.9996C1206 62.3396 1206 61.6796 1206 60.9996C1206.54 60.8037 1207.07 60.6077 1207.62 60.4059C1213.01 58.3504 1218.18 55.9679 1223.32 53.359C1231.12 49.4302 1238.95 45.5872 1246.81 41.7799C1248.96 40.7378 1251.11 39.693 1253.26 38.6481C1260.12 35.3162 1267 32.0391 1274 28.9996C1275.48 28.3346 1276.96 27.6681 1278.44 26.9996C1281.66 25.5637 1284.91 24.229 1288.19 22.9371C1290.91 21.8613 1293.5 20.7504 1296.12 19.4371C1301.73 16.6358 1307.67 14.7362 1313.63 12.8434C1316.12 12.0034 1316.12 12.0034 1318.86 10.6285C1324.22 8.30492 1329.96 7.18593 1335.63 5.89244C1337.6 5.44252 1339.57 4.9807 1341.54 4.5172C1356.39 1.08352 1370.36 -0.410321 1385.56 -0.375378Z" fill="#E4D9BE"/>
</g>
<defs>
<clipPath id="clip0_19_12">
<rect width="4096" height="4096" fill="white"/>
</clipPath>
</defs>
</svg>
