<svg width="500" height="500" viewBox="0 0 500 500" fill="none" xmlns="http://www.w3.org/2000/svg">
<path d="M181.238 11.7188C185.128 13.7843 187.078 16.1278 189 20C190.836 29.5767 188.047 37.6577 184.853 46.5437C182.432 53.3848 180.648 60.2052 179.188 67.3125C178.993 68.2411 178.799 69.1697 178.599 70.1265C175.632 85.0689 174.623 99.6203 174.688 114.813C174.689 115.708 174.691 116.603 174.693 117.525C174.745 132.85 175.523 147.85 178 163C178.161 163.996 178.322 164.993 178.488 166.019C185.861 209.655 205.922 254.569 241 283C241.495 283.407 241.99 283.814 242.5 284.234C250.599 290.879 258.866 296.828 268 302C268.665 302.385 269.331 302.77 270.016 303.167C296.985 318.657 327.24 326.576 358 330C358.759 330.094 359.517 330.189 360.299 330.286C370.22 331.378 380.219 331.244 390.188 331.25C391.17 331.251 392.153 331.251 393.166 331.252C417.016 331.226 439.829 328.73 462.777 321.871C468.799 320.243 475.327 319.719 481 322.688C485.365 326.052 486.969 328.824 487.875 334.188C488.501 342.949 484.392 350.859 480.313 358.375C479.868 359.203 479.424 360.031 478.966 360.884C475.35 367.534 471.44 373.865 467 380C466.565 380.604 466.129 381.208 465.681 381.83C450.128 403.291 432.516 423.34 411 439C409.85 439.857 408.7 440.713 407.551 441.57C399.358 447.612 390.831 452.946 382 458C380.877 458.656 379.754 459.312 378.598 459.988C324.629 490.281 256.321 496.857 196.906 480.934C192.573 479.716 188.282 478.386 184 477C183.223 476.749 182.445 476.498 181.645 476.24C149.428 465.608 119.806 448.104 95 425C93.6293 423.808 92.2545 422.62 90.875 421.438C60.8761 395.241 38.6793 358.465 26 321C25.7247 320.196 25.4493 319.391 25.1656 318.563C4.59458 257.457 10.081 189.265 38.0738 131.488C39.6616 128.296 41.3169 125.143 43 122C43.6123 120.846 44.2246 119.693 44.8555 118.504C54.856 100.338 67.7247 83.9812 82 69C82.5717 68.3996 83.1434 67.7992 83.7325 67.1807C92.2625 58.2879 101.066 50.2866 111 43C111.636 42.525 112.272 42.05 112.927 41.5605C161.509 5.38336 161.509 5.38336 181.238 11.7188Z" fill="#564537"/>
</svg>
