<svg width="80" height="80" viewBox="0 0 80 80" fill="none" xmlns="http://www.w3.org/2000/svg">
<path d="M14.1669 1H65.8331C73.6669 1 80 7.33312 80 15.1669V64.8331C80 72.6669 73.6669 79 65.8331 79H14.1669C6.33312 79 0 72.6669 0 64.8331V15.1669C0 7.33312 6.33312 1 14.1669 1Z" fill="#001E36"/>
<path d="M28.6669 20.833C27.6669 20.833 26.6669 20.833 25.6338 20.8668C24.6 20.8999 23.6331 20.8999 22.7331 20.9336C21.8331 20.9668 21 20.9668 20.2 20.9999C19.4331 21.033 18.9 21.033 18.3331 21.033C18.1 21.033 18 21.1661 18 21.3999V55.6999C18 55.9999 18.1331 56.1336 18.4 56.1336H24.8669C25.1 56.0999 25.2669 55.8999 25.2331 55.6668V44.9668C25.8663 44.9668 26.3331 44.9668 26.6669 44.9999C27 45.033 27.5331 45.033 28.3331 45.033C31.0669 45.033 33.5669 44.733 35.8331 43.8999C38 43.0999 39.8669 41.6999 41.2 39.833C42.5333 37.9663 43.2 35.5997 43.2 32.733C43.2 31.233 42.9337 29.7999 42.4337 28.3999C41.9039 26.9736 41.074 25.6777 40 24.5999C38.7324 23.3684 37.2065 22.4346 35.5331 21.8661C33.6663 21.1661 31.4 20.833 28.6669 20.833ZM29.4106 27.3986C30.5981 27.4211 31.7544 27.6286 32.8331 28.0661C33.8 28.433 34.6 29.0999 35.1669 29.9661C35.6985 30.8627 35.9645 31.8918 35.9338 32.9336C35.9338 34.3999 35.6 35.5336 34.9 36.3668C34.1663 37.1999 33.2331 37.8336 32.1669 38.1336C30.9331 38.5336 29.6331 38.733 28.3331 38.733H26.5663C26.1663 38.733 25.7337 38.6999 25.2669 38.6668V27.4668C25.5 27.433 25.9669 27.3999 26.6337 27.4336C27.2669 27.3999 28.0331 27.3999 28.9 27.3999C29.0708 27.3957 29.241 27.3953 29.4106 27.3986ZM57.3669 29.1005C55 29.1005 53.0331 29.4668 51.4669 30.2668C50.0338 30.9336 48.8 31.9999 47.9669 33.333C47.2338 34.5668 46.8331 35.933 46.8331 37.3668C46.8046 38.546 47.0681 39.7139 47.6 40.7668C48.2234 41.8878 49.089 42.8557 50.1337 43.5999C51.6001 44.6028 53.1913 45.4096 54.8669 45.9999C56.5 46.633 57.6 47.133 58.1338 47.5661C58.6669 47.9999 58.9338 48.433 58.9338 48.8999C58.9338 49.4999 58.5669 50.0668 58.0338 50.2999C57.4338 50.5999 56.5338 50.7668 55.2669 50.7668C53.9338 50.7668 52.6 50.5999 51.3331 50.2668C49.8785 49.9419 48.4838 49.3908 47.2 48.6336C47.1 48.5668 47 48.5336 46.9 48.6005C46.8 48.6668 46.7669 48.7999 46.7669 48.8999V54.6999C46.7338 54.9668 46.9 55.1999 47.1338 55.333C48.2147 55.838 49.3581 56.1968 50.5337 56.3999C52.0337 56.6999 53.5331 56.833 55.0663 56.833C57.4663 56.833 59.4669 56.4668 61.1 55.7668C62.6 55.1668 63.9 54.1336 64.8331 52.7999C65.7071 51.4887 66.1605 49.9423 66.1331 48.3668C66.166 47.1766 65.9027 45.9969 65.3669 44.9336C64.7331 43.7999 63.8331 42.8668 62.7331 42.1668C61.1239 41.1562 59.4009 40.3393 57.6 39.733C56.7958 39.4001 56.0061 39.0331 55.2331 38.633C54.8 38.3999 54.4 38.0999 54.1 37.733C53.9 37.4661 53.7669 37.1668 53.7669 36.8668C53.7669 36.5668 53.8669 36.2336 54.0331 35.9668C54.2669 35.6336 54.6331 35.3999 55.0663 35.2999C55.7 35.1336 56.4 35.033 57.0662 35.0661C58.3331 35.0661 59.5662 35.233 60.8 35.4999C61.9337 35.733 63 36.0999 64 36.6336C64.1331 36.6999 64.3 36.6999 64.6 36.6336C64.6521 36.595 64.6943 36.5447 64.7233 36.4867C64.7523 36.4287 64.7672 36.3647 64.7669 36.2999V30.8668C64.7669 30.733 64.7331 30.5999 64.7 30.4668C64.6331 30.3336 64.5 30.1999 64.3669 30.1668C63.4475 29.791 62.4842 29.5333 61.5 29.3999C60.1313 29.2006 58.75 29.101 57.3669 29.1005Z" fill="#31A8FF"/>
</svg>
