<svg width="80" height="80" viewBox="0 0 80 80" fill="none" xmlns="http://www.w3.org/2000/svg">
<path d="M61.25 0H18.75C8.39466 0 0 8.39466 0 18.75V61.25C0 71.6053 8.39466 80 18.75 80H61.25C71.6053 80 80 71.6053 80 61.25V18.75C80 8.39466 71.6053 0 61.25 0Z" fill="#00005B"/>
<path d="M16.875 57.0875V22.7541C16.875 22.5209 16.975 22.3875 17.2084 22.3875C17.775 22.3875 18.3084 22.3875 19.075 22.3541C19.875 22.3209 20.7084 22.3209 21.6084 22.2875C22.5084 22.2541 23.475 22.2541 24.5084 22.2209C25.5416 22.1875 26.5416 22.1875 27.5416 22.1875C30.275 22.1875 32.5416 22.5209 34.4084 23.2209C36.0817 23.7892 37.6074 24.7229 38.875 25.9541C39.9489 27.0319 40.7787 28.3278 41.3084 29.7541C41.8084 31.1541 42.075 32.5875 42.075 34.0875C42.075 36.9542 41.4083 39.3208 40.075 41.1875C38.7416 43.0541 36.875 44.4541 34.7084 45.2541C32.4416 46.0875 29.9416 46.3875 27.2084 46.3875C26.4084 46.3875 25.875 46.3875 25.5416 46.3541C25.2084 46.3209 24.7416 46.3209 24.1084 46.3209V57.0209C24.1416 57.2541 23.975 57.4541 23.7416 57.4875H17.275C17.0084 57.4875 16.875 57.3541 16.875 57.0541V57.0875ZM24.1416 28.8541V40.0541C24.6084 40.0875 25.0416 40.1209 25.4416 40.1209H27.2084C28.5084 40.1209 29.8084 39.9209 31.0416 39.5209C32.1084 39.2209 33.0416 38.5875 33.775 37.7541C34.475 36.9209 34.8084 35.7875 34.8084 34.3209C34.8397 33.2792 34.5737 32.2501 34.0416 31.3541C33.475 30.4875 32.675 29.8209 31.7084 29.4541C30.475 28.9541 29.1416 28.7541 27.775 28.7875C26.9084 28.7875 26.1416 28.7875 25.5084 28.8209C24.8416 28.7875 24.375 28.8209 24.1416 28.8541ZM46.875 30.8209H52.7084C53.0419 30.8209 53.3084 31.0541 53.4084 31.3541C53.5084 31.6209 53.575 31.8875 53.6084 32.1875C53.675 32.5209 53.7419 32.8875 53.775 33.2209C53.8084 33.5875 53.8419 33.9875 53.8419 34.4209C54.8427 33.2524 56.0521 32.2803 57.4084 31.5541C58.9419 30.6875 60.7084 30.2541 62.475 30.2541C62.7084 30.2209 62.9084 30.3875 62.9419 30.6209V37.2541C62.9419 37.5209 62.775 37.6209 62.4084 37.6209C61.2084 37.5875 59.975 37.6875 58.8084 37.9541C57.8418 38.1541 56.9084 38.4541 56.0084 38.8541C55.375 39.1541 54.775 39.5541 54.3084 40.0875V57.0875C54.3084 57.4209 54.175 57.5541 53.875 57.5541H47.3084C47.0419 57.5875 46.8084 57.4209 46.775 57.1541V38.5541C46.775 37.7541 46.775 36.9209 46.7419 36.0541C46.7084 35.1875 46.7084 34.3209 46.675 33.4541C46.675 32.6875 46.6084 31.9541 46.5419 31.1875C46.5084 31.0209 46.6084 30.8541 46.775 30.8209C46.775 30.7875 46.8419 30.7875 46.875 30.8209Z" fill="#9999FF"/>
</svg>
