<svg xmlns="http://www.w3.org/2000/svg" width="80" height="80" viewBox="0 0 80 80" role="img" aria-label="Premiere Pro">
  <rect x="0" y="0" width="80" height="80" rx="12" fill="#2A0634"/>
  <rect x="3.5" y="3.5" width="73" height="73" rx="10" fill="none" stroke="#E976B9" stroke-width="3"/>
  <path fill="#E976B9" d="M43.125 29.438h-10.75v36.563h6v-13.313h4.875c6.125-.063 11.125-5.125 11.125-11.313v-1.438c-.063-5.875-4.875-10.563-10.75-10.5zm-0.562 16.875h-4.188V35h4.188c2.813 0 5.125 2.312 5.125 5.125v1.375c0 2.813-2.312 4.813-5.125 4.813zM58.188 66V40.563h6.313c0.188 0 0.313 0.125 0.375 0.313 0.063 0.188 0.125 0.375 0.125 0.563 0.063 0.188 0.063 0.438 0.063 0.688 0.063 0.25 0.063 0.5 0.063 0.75 1.125-1.5 2.563-2.625 4.188-3.5 1.75-1 3.75-1.5 5.75-1.438 0.25 0 0.438 0.188 0.438 0.438v5c0 0.313-0.188 0.438-0.563 0.438-1.313-0.063-2.625 0.063-3.875 0.375-1.063 0.25-2.125 0.625-3.125 1.125-0.75 0.375-1.438 0.875-2.063 1.5V66c0 0.313-0.125 0.5-0.438 0.5h-6.813c-0.313 0-0.5-0.188-0.5-0.5z"/>
</svg>
