<svg width="573" height="573" viewBox="0 0 573 573" fill="none" xmlns="http://www.w3.org/2000/svg">
<path fill-rule="evenodd" clip-rule="evenodd" d="M119.375 23.875C94.0468 23.875 69.756 33.9366 51.8463 51.8463C33.9366 69.756 23.875 94.0468 23.875 119.375V453.625C23.875 478.953 33.9366 503.244 51.8463 521.154C69.756 539.063 94.0468 549.125 119.375 549.125H453.625C478.953 549.125 503.244 539.063 521.154 521.154C539.063 503.244 549.125 478.953 549.125 453.625V119.375C549.125 94.0468 539.063 69.756 521.154 51.8463C503.244 33.9366 478.953 23.875 453.625 23.875H119.375ZM111.401 107.438C108.787 108.409 106.437 109.977 104.536 112.017C102.636 114.057 101.238 116.513 100.454 119.189C99.6704 121.865 99.5224 124.687 100.022 127.43C100.521 130.173 101.654 132.761 103.331 134.989L237.365 312.858L96.1446 464.345L95.0941 465.563H143.966L259.283 341.914L347.907 459.57C349.963 462.293 352.754 464.372 355.952 465.563H461.528C464.137 464.586 466.483 463.014 468.378 460.972C470.274 458.929 471.666 456.473 472.445 453.798C473.224 451.122 473.368 448.302 472.865 445.562C472.363 442.821 471.227 440.235 469.55 438.011L335.515 260.142L477.906 107.438H428.962L313.646 231.11L224.974 113.454C222.921 110.722 220.129 108.634 216.928 107.438H111.401ZM371.161 430.896L153.54 142.104H201.744L419.341 430.872L371.161 430.896Z" fill="black"/>
</svg>
